G04 start of page 8 for group -4078 idx -4078 *
G04 Title: (unknown), bottomsilk *
G04 Creator: pcb 20110918 *
G04 CreationDate: Mon 01 Apr 2013 11:47:59 PM GMT UTC *
G04 For: railfan *
G04 Format: Gerber/RS-274X *
G04 PCB-Dimensions: 130000 55000 *
G04 PCB-Coordinate-Origin: lower left *
%MOIN*%
%FSLAX25Y25*%
%LNBOTTOMSILK*%
%ADD40C,0.0100*%
G54D40*X500Y54500D02*Y500D01*
X129500D02*Y54500D01*
X500Y500D02*X129500D01*
Y54500D02*X500D01*
X105500Y22000D02*X106500D01*
X105500D02*X104500Y23000D01*
X105500Y24000D01*
X106500D01*
X104500Y25700D02*Y26700D01*
Y26200D02*X108500D01*
X107500Y25200D02*X108500Y26200D01*
X104500Y27900D02*Y28400D01*
X108000Y29600D02*X108500Y30100D01*
Y31600D01*
X108000Y32100D01*
X107000D02*X108000D01*
X104500Y29600D02*X107000Y32100D01*
X104500Y29600D02*Y32100D01*
X32000Y8500D02*X33000D01*
X32500D02*Y12500D01*
X32000D02*X33000D01*
X34200Y11000D02*Y12000D01*
Y11000D02*X34700Y10500D01*
X35700D01*
X36200Y11000D01*
Y12000D01*
X35700Y12500D02*X36200Y12000D01*
X34700Y12500D02*X35700D01*
X34200Y12000D02*X34700Y12500D01*
X37400Y10500D02*Y12000D01*
X37900Y12500D01*
X38400D01*
X38900Y12000D01*
Y10500D02*Y12000D01*
X39400Y12500D01*
X39900D01*
X40400Y12000D01*
Y10500D02*Y12000D01*
X43100Y10500D02*X43600Y11000D01*
X42100Y10500D02*X43100D01*
X41600Y11000D02*X42100Y10500D01*
X41600Y11000D02*Y12000D01*
X42100Y12500D01*
X43600Y10500D02*Y12000D01*
X44100Y12500D01*
X42100D02*X43100D01*
X43600Y12000D01*
X49100Y8500D02*X49600Y9000D01*
X47600Y8500D02*X49100D01*
X47100Y9000D02*X47600Y8500D01*
X47100Y9000D02*Y10000D01*
X47600Y10500D01*
X49100D01*
X49600Y11000D01*
Y12000D01*
X49100Y12500D02*X49600Y12000D01*
X47600Y12500D02*X49100D01*
X47100Y12000D02*X47600Y12500D01*
X51300Y10500D02*X52800D01*
X50800Y11000D02*X51300Y10500D01*
X50800Y11000D02*Y12000D01*
X51300Y12500D01*
X52800D01*
X55500Y10500D02*X56000Y11000D01*
X54500Y10500D02*X55500D01*
X54000Y11000D02*X54500Y10500D01*
X54000Y11000D02*Y12000D01*
X54500Y12500D01*
X56000Y10500D02*Y12000D01*
X56500Y12500D01*
X54500D02*X55500D01*
X56000Y12000D01*
X57700Y8500D02*Y12000D01*
X58200Y12500D01*
X59700D02*X61200D01*
X59200Y12000D02*X59700Y12500D01*
X59200Y11000D02*Y12000D01*
Y11000D02*X59700Y10500D01*
X60700D01*
X61200Y11000D01*
X59200Y11500D02*X61200D01*
Y11000D02*Y11500D01*
X64400Y8500D02*Y12500D01*
X63900D02*X64400Y12000D01*
X62900Y12500D02*X63900D01*
X62400Y12000D02*X62900Y12500D01*
X62400Y11000D02*Y12000D01*
Y11000D02*X62900Y10500D01*
X63900D01*
X64400Y11000D01*
X67400Y10500D02*X68900D01*
X67400Y12500D02*X69400D01*
X67400Y8500D02*Y12500D01*
Y8500D02*X69400D01*
X71100Y11000D02*Y12500D01*
Y11000D02*X71600Y10500D01*
X72100D01*
X72600Y11000D01*
Y12500D01*
X70600Y10500D02*X71100Y11000D01*
X75300Y10500D02*X75800Y11000D01*
X74300Y10500D02*X75300D01*
X73800Y11000D02*X74300Y10500D01*
X73800Y11000D02*Y12000D01*
X74300Y12500D01*
X75300D01*
X75800Y12000D01*
X73800Y13500D02*X74300Y14000D01*
X75300D01*
X75800Y13500D01*
Y10500D02*Y13500D01*
X77000Y9500D02*Y10000D01*
Y11000D02*Y12500D01*
X78500Y11000D02*Y12500D01*
Y11000D02*X79000Y10500D01*
X79500D01*
X80000Y11000D01*
Y12500D01*
X78000Y10500D02*X78500Y11000D01*
X81700Y12500D02*X83200D01*
X81200Y12000D02*X81700Y12500D01*
X81200Y11000D02*Y12000D01*
Y11000D02*X81700Y10500D01*
X82700D01*
X83200Y11000D01*
X81200Y11500D02*X83200D01*
Y11000D02*Y11500D01*
X84900Y12500D02*X86400D01*
X84400Y12000D02*X84900Y12500D01*
X84400Y11000D02*Y12000D01*
Y11000D02*X84900Y10500D01*
X85900D01*
X86400Y11000D01*
X84400Y11500D02*X86400D01*
Y11000D02*Y11500D01*
X88100Y11000D02*Y12500D01*
Y11000D02*X88600Y10500D01*
X89600D01*
X87600D02*X88100Y11000D01*
X90800Y9500D02*Y10000D01*
Y11000D02*Y12500D01*
X92300Y11000D02*Y12500D01*
Y11000D02*X92800Y10500D01*
X93300D01*
X93800Y11000D01*
Y12500D01*
X91800Y10500D02*X92300Y11000D01*
X96500Y10500D02*X97000Y11000D01*
X95500Y10500D02*X96500D01*
X95000Y11000D02*X95500Y10500D01*
X95000Y11000D02*Y12000D01*
X95500Y12500D01*
X96500D01*
X97000Y12000D01*
X95000Y13500D02*X95500Y14000D01*
X96500D01*
X97000Y13500D01*
Y10500D02*Y13500D01*
X117150Y6685D02*Y8740D01*
X117835Y6000D02*X117150Y6685D01*
X117835Y6000D02*X121945D01*
X122630Y6685D01*
Y8740D01*
X117150Y10384D02*X122630D01*
X119890D02*X122630Y13124D01*
X119890Y10384D02*X117150Y13124D01*
X122630Y14768D02*Y17508D01*
X117150Y16138D02*X122630D01*
X119890Y19152D02*Y21892D01*
X117150Y23536D02*X122630D01*
X117150D02*Y26276D01*
X122630Y27920D02*Y30660D01*
X117150Y29290D02*X122630D01*
X121945Y32304D02*X122630Y32989D01*
Y34359D01*
X121945Y35044D01*
X117835D02*X121945D01*
X117150Y34359D02*X117835Y35044D01*
X117150Y32989D02*Y34359D01*
X117835Y32304D02*X117150Y32989D01*
X119890D02*Y35044D01*
X117150Y36688D02*X119890Y39428D01*
X121945D01*
X122630Y38743D02*X121945Y39428D01*
X122630Y37373D02*Y38743D01*
X121945Y36688D02*X122630Y37373D01*
X120575Y36688D02*X121945D01*
X120575D02*X119890Y37373D01*
Y39428D01*
X117150Y41072D02*X120575Y44497D01*
X122630D01*
Y41072D02*Y44497D01*
X121945Y46141D02*X122630Y46826D01*
Y48196D01*
X121945Y48881D01*
X117835D02*X121945D01*
X117150Y48196D02*X117835Y48881D01*
X117150Y46826D02*Y48196D01*
X117835Y46141D02*X117150Y46826D01*
X119890D02*Y48881D01*
X36000Y46500D02*Y50500D01*
Y49000D02*X36500Y48500D01*
X37500D01*
X38000Y49000D01*
Y50500D01*
X39700Y46500D02*Y50000D01*
X40200Y50500D01*
X39200Y48000D02*X40200D01*
X41700Y46500D02*Y50000D01*
X42200Y50500D01*
X41200Y48000D02*X42200D01*
X43700Y49000D02*Y52000D01*
X43200Y48500D02*X43700Y49000D01*
X44200Y48500D01*
X45200D01*
X45700Y49000D01*
Y50000D01*
X45200Y50500D02*X45700Y50000D01*
X44200Y50500D02*X45200D01*
X43700Y50000D02*X44200Y50500D01*
X46900Y48000D02*X47400D01*
X46900Y49000D02*X47400D01*
X48600Y50000D02*X51600Y47000D01*
X52800Y50000D02*X55800Y47000D01*
X57000Y47500D02*Y48000D01*
Y49000D02*Y50500D01*
X59500Y48500D02*X60000Y49000D01*
X58500Y48500D02*X59500D01*
X58000Y49000D02*X58500Y48500D01*
X58000Y49000D02*Y50000D01*
X58500Y50500D01*
X60000Y48500D02*Y50000D01*
X60500Y50500D01*
X58500D02*X59500D01*
X60000Y50000D01*
X62200Y50500D02*X63700D01*
X64200Y50000D01*
X63700Y49500D02*X64200Y50000D01*
X62200Y49500D02*X63700D01*
X61700Y49000D02*X62200Y49500D01*
X61700Y49000D02*X62200Y48500D01*
X63700D01*
X64200Y49000D01*
X61700Y50000D02*X62200Y50500D01*
X65900Y48500D02*X67400D01*
X65400Y49000D02*X65900Y48500D01*
X65400Y49000D02*Y50000D01*
X65900Y50500D01*
X67400D01*
X70100Y48500D02*X70600Y49000D01*
X69100Y48500D02*X70100D01*
X68600Y49000D02*X69100Y48500D01*
X68600Y49000D02*Y50000D01*
X69100Y50500D01*
X70600Y48500D02*Y50000D01*
X71100Y50500D01*
X69100D02*X70100D01*
X70600Y50000D01*
X72300Y46500D02*Y50000D01*
X72800Y50500D01*
X74300D02*X75800D01*
X73800Y50000D02*X74300Y50500D01*
X73800Y49000D02*Y50000D01*
Y49000D02*X74300Y48500D01*
X75300D01*
X75800Y49000D01*
X73800Y49500D02*X75800D01*
Y49000D02*Y49500D01*
X79000Y46500D02*Y50500D01*
X78500D02*X79000Y50000D01*
X77500Y50500D02*X78500D01*
X77000Y50000D02*X77500Y50500D01*
X77000Y49000D02*Y50000D01*
Y49000D02*X77500Y48500D01*
X78500D01*
X79000Y49000D01*
X80200Y50500D02*X80700D01*
X82400Y48500D02*X83900D01*
X81900Y49000D02*X82400Y48500D01*
X81900Y49000D02*Y50000D01*
X82400Y50500D01*
X83900D01*
X85100Y49000D02*Y50000D01*
Y49000D02*X85600Y48500D01*
X86600D01*
X87100Y49000D01*
Y50000D01*
X86600Y50500D02*X87100Y50000D01*
X85600Y50500D02*X86600D01*
X85100Y50000D02*X85600Y50500D01*
X88800Y49000D02*Y50500D01*
Y49000D02*X89300Y48500D01*
X89800D01*
X90300Y49000D01*
Y50500D01*
Y49000D02*X90800Y48500D01*
X91300D01*
X91800Y49000D01*
Y50500D01*
X88300Y48500D02*X88800Y49000D01*
X18000Y35830D02*Y39490D01*
Y35830D02*X18610Y35220D01*
X19830D01*
X20440Y35830D01*
Y39490D01*
X19830Y40100D02*X20440Y39490D01*
X18610Y40100D02*X19830D01*
X18000Y39490D02*X18610Y40100D01*
X21904Y35220D02*Y39490D01*
X22514Y40100D01*
X23734D01*
X24344Y39490D01*
Y35220D02*Y39490D01*
X25808Y35220D02*X28248D01*
X27028D02*Y40100D01*
X18000Y15220D02*X19220D01*
X18610D02*Y20100D01*
X18000D02*X19220D01*
X20684Y15220D02*Y20100D01*
Y15220D02*Y15830D01*
X23734Y18880D01*
Y15220D02*Y20100D01*
X20440Y25220D02*X21050Y25830D01*
X18610Y25220D02*X20440D01*
X18000Y25830D02*X18610Y25220D01*
X18000Y25830D02*Y29490D01*
X18610Y30100D01*
X20440D01*
X21050Y29490D01*
Y28270D02*Y29490D01*
X20440Y27660D02*X21050Y28270D01*
X19220Y27660D02*X20440D01*
X22514Y25220D02*Y30100D01*
Y25220D02*Y25830D01*
X25564Y28880D01*
Y25220D02*Y30100D01*
X27638Y25220D02*Y30100D01*
X29468Y25220D02*X30078Y25830D01*
Y29490D01*
X29468Y30100D02*X30078Y29490D01*
X27028Y30100D02*X29468D01*
X27028Y25220D02*X29468D01*
M02*
