G04 start of page 7 for group -4079 idx -4079 *
G04 Title: (unknown), topsilk *
G04 Creator: pcb 20110918 *
G04 CreationDate: Mon 01 Apr 2013 11:54:10 PM GMT UTC *
G04 For: railfan *
G04 Format: Gerber/RS-274X *
G04 PCB-Dimensions: 80000 55000 *
G04 PCB-Coordinate-Origin: lower left *
%MOIN*%
%FSLAX25Y25*%
%LNTOPSILK*%
%ADD39C,0.0100*%
G54D39*X500Y54500D02*Y500D01*
X79500Y54500D02*X500D01*
X79500Y500D02*Y54500D01*
X500Y500D02*X79500D01*
X25638Y5260D02*X30362D01*
X25638Y12740D02*X30362D01*
X41607Y33755D02*X42393D01*
X41607Y28245D02*X42393D01*
X69245Y15893D02*Y15107D01*
X74755Y15893D02*Y15107D01*
X64496Y25000D02*Y11000D01*
X43504Y25000D02*X64496D01*
X41504Y11000D02*Y23000D01*
X64496Y11000D02*X41504D01*
Y23000D02*X43504Y25000D01*
X58607Y44755D02*X59393D01*
X58607Y39245D02*X59393D01*
X58607Y28245D02*X59393D01*
X58607Y33755D02*X59393D01*
X25107Y37245D02*X25893D01*
X25107Y42755D02*X25893D01*
X25107Y32755D02*X25893D01*
X25107Y27245D02*X25893D01*
X5000Y22500D02*Y12500D01*
Y22500D02*X15000D01*
X5000Y12500D02*X15000D01*
X5000Y42500D02*Y12500D01*
Y42500D02*X15000D01*
Y12500D01*
X32500Y15000D02*X34000D01*
X32000Y15500D02*X32500Y15000D01*
X32000Y18500D02*Y15500D01*
Y18500D02*X32500Y19000D01*
X34000D01*
X35700Y15000D02*X36700D01*
X36200Y19000D02*Y15000D01*
X35200Y18000D02*X36200Y19000D01*
X35500Y40000D02*X37500D01*
X38000Y39500D01*
Y38500D01*
X37500Y38000D02*X38000Y38500D01*
X36000Y38000D02*X37500D01*
X36000Y40000D02*Y36000D01*
Y38000D02*X38000Y36000D01*
X39200Y39500D02*X39700Y40000D01*
X40700D01*
X41200Y39500D01*
Y36500D01*
X40700Y36000D02*X41200Y36500D01*
X39700Y36000D02*X40700D01*
X39200Y36500D02*X39700Y36000D01*
Y38000D02*X41200D01*
X69500Y23500D02*X71000D01*
X69000Y24000D02*X69500Y23500D01*
X69000Y27000D02*Y24000D01*
Y27000D02*X69500Y27500D01*
X71000D01*
X72200Y27000D02*X72700Y27500D01*
X74200D01*
X74700Y27000D01*
Y26000D01*
X72200Y23500D02*X74700Y26000D01*
X72200Y23500D02*X74700D01*
X59500Y9500D02*Y6000D01*
X60000Y5500D01*
X61000D01*
X61500Y6000D01*
Y9500D02*Y6000D01*
X63200Y5500D02*X64200D01*
X63700Y9500D02*Y5500D01*
X62700Y8500D02*X63700Y9500D01*
X67807Y40150D02*X69307D01*
X67307Y40650D02*X67807Y40150D01*
X67307Y43650D02*Y40650D01*
Y43650D02*X67807Y44150D01*
X69307D01*
X70507Y43650D02*X71007Y44150D01*
X72007D01*
X72507Y43650D01*
Y40650D01*
X72007Y40150D02*X72507Y40650D01*
X71007Y40150D02*X72007D01*
X70507Y40650D02*X71007Y40150D01*
Y42150D02*X72507D01*
X67307Y34650D02*X69307D01*
X69807Y34150D01*
Y33150D01*
X69307Y32650D02*X69807Y33150D01*
X67807Y32650D02*X69307D01*
X67807Y34650D02*Y30650D01*
Y32650D02*X69807Y30650D01*
X71507D02*X72507D01*
X72007Y34650D02*Y30650D01*
X71007Y33650D02*X72007Y34650D01*
X23500Y45000D02*X25000D01*
X23000Y45500D02*X23500Y45000D01*
X23000Y48500D02*Y45500D01*
Y48500D02*X23500Y49000D01*
X25000D01*
X26200Y47000D02*X28200Y49000D01*
X26200Y47000D02*X28700D01*
X28200Y49000D02*Y45000D01*
X22414Y25000D02*X24414D01*
X24914Y24500D01*
Y23500D01*
X24414Y23000D02*X24914Y23500D01*
X22914Y23000D02*X24414D01*
X22914Y25000D02*Y21000D01*
Y23000D02*X24914Y21000D01*
X26114Y24500D02*X26614Y25000D01*
X28114D01*
X28614Y24500D01*
Y23500D01*
X26114Y21000D02*X28614Y23500D01*
X26114Y21000D02*X28614D01*
X17000Y19000D02*X18500D01*
Y15500D01*
X18000Y15000D02*X18500Y15500D01*
X17500Y15000D02*X18000D01*
X17000Y15500D02*X17500Y15000D01*
X20200D02*X21200D01*
X20700Y19000D02*Y15000D01*
X19700Y18000D02*X20700Y19000D01*
M02*
