G04 start of page 2 for group 0 idx 0 *
G04 Title: (unknown), component *
G04 Creator: pcb 20110918 *
G04 CreationDate: Mon 01 Apr 2013 11:54:10 PM GMT UTC *
G04 For: railfan *
G04 Format: Gerber/RS-274X *
G04 PCB-Dimensions: 80000 55000 *
G04 PCB-Coordinate-Origin: lower left *
%MOIN*%
%FSLAX25Y25*%
%LNTOP*%
%ADD22C,0.0380*%
%ADD21C,0.0360*%
%ADD20R,0.0660X0.0660*%
%ADD19R,0.0117X0.0117*%
%ADD18R,0.0512X0.0512*%
%ADD17C,0.0600*%
%ADD16C,0.0300*%
%ADD15C,0.0400*%
%ADD14C,0.0150*%
%ADD13C,0.0100*%
%ADD12C,0.0200*%
%ADD11C,0.0001*%
G54D11*G36*
X48000Y5000D02*Y45000D01*
X58000D01*
Y5000D01*
X48000D01*
G37*
G36*
X58000Y1500D02*X31000D01*
Y14500D01*
X58000D01*
Y1500D01*
G37*
G36*
X41000Y16500D02*X46000D01*
Y15500D01*
X41000D01*
Y16500D01*
G37*
G36*
Y18500D02*X46000D01*
Y17500D01*
X41000D01*
Y18500D01*
G37*
G36*
X43000Y24000D02*Y40000D01*
X48500D01*
Y45000D01*
X50000D01*
Y24000D01*
X43000D01*
G37*
G36*
Y43000D02*X49500D01*
Y39116D01*
X49225Y39003D01*
X49221Y39000D01*
X46779D01*
X46775Y39003D01*
X46368Y39171D01*
X45939Y39274D01*
X45500Y39309D01*
X45061Y39274D01*
X44632Y39171D01*
X44225Y39003D01*
X44221Y39000D01*
X43000D01*
Y43000D01*
G37*
G36*
X16000Y23000D02*X25000D01*
Y1500D01*
X16000D01*
Y23000D01*
G37*
G36*
X15000Y50500D02*X24000D01*
Y37500D01*
X15000D01*
Y50500D01*
G37*
G36*
X13613D02*X17000D01*
Y32000D01*
X13613D01*
Y35353D01*
X13656Y35360D01*
X13768Y35397D01*
X13873Y35452D01*
X13968Y35522D01*
X14051Y35606D01*
X14119Y35702D01*
X14170Y35808D01*
X14318Y36216D01*
X14422Y36637D01*
X14484Y37067D01*
X14505Y37500D01*
X14484Y37933D01*
X14422Y38363D01*
X14318Y38784D01*
X14175Y39194D01*
X14122Y39300D01*
X14053Y39396D01*
X13970Y39481D01*
X13875Y39551D01*
X13769Y39606D01*
X13657Y39643D01*
X13613Y39651D01*
Y50500D01*
G37*
G36*
X10002D02*X13613D01*
Y39651D01*
X13540Y39663D01*
X13421Y39664D01*
X13304Y39646D01*
X13191Y39610D01*
X13085Y39557D01*
X12988Y39488D01*
X12904Y39405D01*
X12833Y39309D01*
X12779Y39204D01*
X12741Y39092D01*
X12722Y38975D01*
X12721Y38856D01*
X12739Y38739D01*
X12777Y38626D01*
X12876Y38355D01*
X12944Y38075D01*
X12986Y37789D01*
X13000Y37500D01*
X12986Y37211D01*
X12944Y36925D01*
X12876Y36645D01*
X12780Y36372D01*
X12742Y36261D01*
X12725Y36144D01*
X12725Y36026D01*
X12745Y35909D01*
X12782Y35797D01*
X12836Y35693D01*
X12906Y35598D01*
X12991Y35515D01*
X13087Y35446D01*
X13192Y35393D01*
X13305Y35357D01*
X13421Y35340D01*
X13539Y35341D01*
X13613Y35353D01*
Y32000D01*
X10176D01*
X10002Y32014D01*
Y32995D01*
X10433Y33016D01*
X10863Y33078D01*
X11284Y33182D01*
X11694Y33325D01*
X11800Y33378D01*
X11896Y33447D01*
X11981Y33530D01*
X12051Y33625D01*
X12106Y33731D01*
X12143Y33843D01*
X12163Y33960D01*
X12164Y34079D01*
X12146Y34196D01*
X12110Y34309D01*
X12057Y34415D01*
X11988Y34512D01*
X11905Y34596D01*
X11809Y34667D01*
X11704Y34721D01*
X11592Y34759D01*
X11475Y34778D01*
X11356Y34779D01*
X11239Y34761D01*
X11126Y34723D01*
X10855Y34624D01*
X10575Y34556D01*
X10289Y34514D01*
X10002Y34500D01*
Y40500D01*
X10289Y40486D01*
X10575Y40444D01*
X10855Y40376D01*
X11128Y40280D01*
X11239Y40242D01*
X11356Y40225D01*
X11474Y40225D01*
X11591Y40245D01*
X11703Y40282D01*
X11807Y40336D01*
X11902Y40406D01*
X11985Y40491D01*
X12054Y40587D01*
X12107Y40692D01*
X12143Y40805D01*
X12160Y40921D01*
X12159Y41039D01*
X12140Y41156D01*
X12103Y41268D01*
X12048Y41373D01*
X11978Y41468D01*
X11894Y41551D01*
X11798Y41619D01*
X11692Y41670D01*
X11284Y41818D01*
X10863Y41922D01*
X10433Y41984D01*
X10002Y42005D01*
Y50500D01*
G37*
G36*
X6387D02*X10002D01*
Y42005D01*
X10000Y42005D01*
X9567Y41984D01*
X9137Y41922D01*
X8716Y41818D01*
X8306Y41675D01*
X8200Y41622D01*
X8104Y41553D01*
X8019Y41470D01*
X7949Y41375D01*
X7894Y41269D01*
X7857Y41157D01*
X7837Y41040D01*
X7836Y40921D01*
X7854Y40804D01*
X7890Y40691D01*
X7943Y40585D01*
X8012Y40488D01*
X8095Y40404D01*
X8191Y40333D01*
X8296Y40279D01*
X8408Y40241D01*
X8525Y40222D01*
X8644Y40221D01*
X8761Y40239D01*
X8874Y40277D01*
X9145Y40376D01*
X9425Y40444D01*
X9711Y40486D01*
X10000Y40500D01*
X10002Y40500D01*
Y34500D01*
X10000Y34500D01*
X9711Y34514D01*
X9425Y34556D01*
X9145Y34624D01*
X8872Y34720D01*
X8761Y34758D01*
X8644Y34775D01*
X8526Y34775D01*
X8409Y34755D01*
X8297Y34718D01*
X8193Y34664D01*
X8098Y34594D01*
X8015Y34509D01*
X7946Y34413D01*
X7893Y34308D01*
X7857Y34195D01*
X7840Y34079D01*
X7841Y33961D01*
X7860Y33844D01*
X7897Y33732D01*
X7952Y33627D01*
X8022Y33532D01*
X8106Y33449D01*
X8202Y33381D01*
X8308Y33330D01*
X8716Y33182D01*
X9137Y33078D01*
X9567Y33016D01*
X10000Y32995D01*
X10002Y32995D01*
Y32014D01*
X10000Y32014D01*
X9824Y32000D01*
X6387D01*
Y35349D01*
X6460Y35337D01*
X6579Y35336D01*
X6696Y35354D01*
X6809Y35390D01*
X6915Y35443D01*
X7012Y35512D01*
X7096Y35595D01*
X7167Y35691D01*
X7221Y35796D01*
X7259Y35908D01*
X7278Y36025D01*
X7279Y36144D01*
X7261Y36261D01*
X7223Y36374D01*
X7124Y36645D01*
X7056Y36925D01*
X7014Y37211D01*
X7000Y37500D01*
X7014Y37789D01*
X7056Y38075D01*
X7124Y38355D01*
X7220Y38628D01*
X7258Y38739D01*
X7275Y38856D01*
X7275Y38974D01*
X7255Y39091D01*
X7218Y39203D01*
X7164Y39307D01*
X7094Y39402D01*
X7009Y39485D01*
X6913Y39554D01*
X6808Y39607D01*
X6695Y39643D01*
X6579Y39660D01*
X6461Y39659D01*
X6387Y39647D01*
Y50500D01*
G37*
G36*
X2000Y32000D02*Y50500D01*
X6387D01*
Y39647D01*
X6344Y39640D01*
X6232Y39603D01*
X6127Y39548D01*
X6032Y39478D01*
X5949Y39394D01*
X5881Y39298D01*
X5830Y39192D01*
X5682Y38784D01*
X5578Y38363D01*
X5516Y37933D01*
X5495Y37500D01*
X5516Y37067D01*
X5578Y36637D01*
X5682Y36216D01*
X5825Y35806D01*
X5878Y35700D01*
X5947Y35604D01*
X6030Y35519D01*
X6125Y35449D01*
X6231Y35394D01*
X6343Y35357D01*
X6387Y35349D01*
Y32000D01*
X2000D01*
G37*
G36*
X19500Y17000D02*Y24000D01*
X32000D01*
X37500Y18500D01*
Y17000D01*
X19500D01*
G37*
G36*
X13750Y23000D02*X18000D01*
Y1500D01*
X13750D01*
Y15248D01*
X13868Y15257D01*
X13982Y15285D01*
X14092Y15330D01*
X14192Y15391D01*
X14282Y15468D01*
X14359Y15558D01*
X14420Y15658D01*
X14465Y15768D01*
X14493Y15882D01*
X14500Y16000D01*
Y19000D01*
X14493Y19118D01*
X14465Y19232D01*
X14420Y19342D01*
X14359Y19442D01*
X14282Y19532D01*
X14192Y19609D01*
X14092Y19670D01*
X13982Y19715D01*
X13868Y19743D01*
X13750Y19752D01*
Y23000D01*
G37*
G36*
X10000Y22986D02*X10176Y23000D01*
X13750D01*
Y19752D01*
X13632Y19743D01*
X13518Y19715D01*
X13408Y19670D01*
X13308Y19609D01*
X13218Y19532D01*
X13141Y19442D01*
X13080Y19342D01*
X13035Y19232D01*
X13007Y19118D01*
X13000Y19000D01*
Y16000D01*
X13007Y15882D01*
X13035Y15768D01*
X13080Y15658D01*
X13141Y15558D01*
X13218Y15468D01*
X13308Y15391D01*
X13408Y15330D01*
X13518Y15285D01*
X13632Y15257D01*
X13750Y15248D01*
Y1500D01*
X10000D01*
Y13000D01*
X11500D01*
X11618Y13007D01*
X11732Y13035D01*
X11842Y13080D01*
X11942Y13141D01*
X12032Y13218D01*
X12109Y13308D01*
X12170Y13408D01*
X12215Y13518D01*
X12243Y13632D01*
X12252Y13750D01*
X12243Y13868D01*
X12215Y13982D01*
X12170Y14092D01*
X12109Y14192D01*
X12032Y14282D01*
X11942Y14359D01*
X11842Y14420D01*
X11732Y14465D01*
X11618Y14493D01*
X11500Y14500D01*
X10000D01*
Y20500D01*
X11500D01*
X11618Y20507D01*
X11732Y20535D01*
X11842Y20580D01*
X11942Y20641D01*
X12032Y20718D01*
X12109Y20808D01*
X12170Y20908D01*
X12215Y21018D01*
X12243Y21132D01*
X12252Y21250D01*
X12243Y21368D01*
X12215Y21482D01*
X12170Y21592D01*
X12109Y21692D01*
X12032Y21782D01*
X11942Y21859D01*
X11842Y21920D01*
X11732Y21965D01*
X11618Y21993D01*
X11500Y22000D01*
X10000D01*
Y22986D01*
G37*
G36*
X6250Y23000D02*X9824D01*
X10000Y22986D01*
X10000D01*
Y22000D01*
X8500D01*
X8382Y21993D01*
X8268Y21965D01*
X8158Y21920D01*
X8058Y21859D01*
X7968Y21782D01*
X7891Y21692D01*
X7830Y21592D01*
X7785Y21482D01*
X7757Y21368D01*
X7748Y21250D01*
X7757Y21132D01*
X7785Y21018D01*
X7830Y20908D01*
X7891Y20808D01*
X7968Y20718D01*
X8058Y20641D01*
X8158Y20580D01*
X8268Y20535D01*
X8382Y20507D01*
X8500Y20500D01*
X10000D01*
Y14500D01*
X8500D01*
X8382Y14493D01*
X8268Y14465D01*
X8158Y14420D01*
X8058Y14359D01*
X7968Y14282D01*
X7891Y14192D01*
X7830Y14092D01*
X7785Y13982D01*
X7757Y13868D01*
X7748Y13750D01*
X7757Y13632D01*
X7785Y13518D01*
X7830Y13408D01*
X7891Y13308D01*
X7968Y13218D01*
X8058Y13141D01*
X8158Y13080D01*
X8268Y13035D01*
X8382Y13007D01*
X8500Y13000D01*
X10000D01*
Y1500D01*
X6250D01*
Y15248D01*
X6368Y15257D01*
X6482Y15285D01*
X6592Y15330D01*
X6692Y15391D01*
X6782Y15468D01*
X6859Y15558D01*
X6920Y15658D01*
X6965Y15768D01*
X6993Y15882D01*
X7000Y16000D01*
Y19000D01*
X6993Y19118D01*
X6965Y19232D01*
X6920Y19342D01*
X6859Y19442D01*
X6782Y19532D01*
X6692Y19609D01*
X6592Y19670D01*
X6482Y19715D01*
X6368Y19743D01*
X6250Y19752D01*
Y23000D01*
G37*
G36*
X2000D02*X6250D01*
Y19752D01*
X6132Y19743D01*
X6018Y19715D01*
X5908Y19670D01*
X5808Y19609D01*
X5718Y19532D01*
X5641Y19442D01*
X5580Y19342D01*
X5535Y19232D01*
X5507Y19118D01*
X5500Y19000D01*
Y16000D01*
X5507Y15882D01*
X5535Y15768D01*
X5580Y15658D01*
X5641Y15558D01*
X5718Y15468D01*
X5808Y15391D01*
X5908Y15330D01*
X6018Y15285D01*
X6132Y15257D01*
X6250Y15248D01*
Y1500D01*
X2000D01*
Y23000D01*
G37*
G36*
X19500Y5000D02*Y18500D01*
X25000D01*
Y5000D01*
X19500D01*
G37*
G36*
X65000Y50500D02*Y46000D01*
X19500D01*
Y50500D01*
X65000D01*
G37*
G36*
X2000Y48000D02*Y53500D01*
X78500D01*
Y48000D01*
X64616D01*
X64503Y48275D01*
X64272Y48651D01*
X63986Y48986D01*
X63651Y49272D01*
X63275Y49503D01*
X62868Y49671D01*
X62439Y49774D01*
X62000Y49809D01*
X61561Y49774D01*
X61132Y49671D01*
X60725Y49503D01*
X60349Y49272D01*
X60014Y48986D01*
X59728Y48651D01*
X59497Y48275D01*
X59384Y48000D01*
X24965D01*
X24862Y48430D01*
X24681Y48866D01*
X24435Y49269D01*
X24128Y49628D01*
X23769Y49935D01*
X23366Y50181D01*
X22930Y50362D01*
X22471Y50472D01*
X22000Y50509D01*
X21529Y50472D01*
X21070Y50362D01*
X20634Y50181D01*
X20231Y49935D01*
X19872Y49628D01*
X19565Y49269D01*
X19319Y48866D01*
X19138Y48430D01*
X19035Y48000D01*
X2000D01*
G37*
G36*
Y53500D01*
X78500D01*
Y48000D01*
X64616D01*
X64503Y48275D01*
X64272Y48651D01*
X63986Y48986D01*
X63651Y49272D01*
X63275Y49503D01*
X62868Y49671D01*
X62439Y49774D01*
X62000Y49809D01*
X61561Y49774D01*
X61132Y49671D01*
X60725Y49503D01*
X60349Y49272D01*
X60014Y48986D01*
X59728Y48651D01*
X59497Y48275D01*
X59384Y48000D01*
X24965D01*
X24862Y48430D01*
X24681Y48866D01*
X24435Y49269D01*
X24128Y49628D01*
X23769Y49935D01*
X23366Y50181D01*
X22930Y50362D01*
X22471Y50472D01*
X22000Y50509D01*
X21529Y50472D01*
X21070Y50362D01*
X20634Y50181D01*
X20231Y49935D01*
X19872Y49628D01*
X19565Y49269D01*
X19319Y48866D01*
X19138Y48430D01*
X19035Y48000D01*
X2000D01*
G37*
G36*
X42000Y18500D02*Y15500D01*
X19500D01*
Y18500D01*
X42000D01*
G37*
G36*
X62500Y21500D02*X60500D01*
Y31000D01*
X62500D01*
Y21500D01*
G37*
G36*
X78500Y35500D02*X60000D01*
Y50500D01*
X78500D01*
Y35500D01*
G37*
G36*
X68500Y25500D02*Y37500D01*
X78500D01*
Y25500D01*
X68500D01*
G37*
G36*
X78500Y4500D02*X59000D01*
Y14500D01*
X78500D01*
Y4500D01*
G37*
G36*
X19500Y50500D02*X42000D01*
Y44000D01*
X19500D01*
Y50500D01*
G37*
G36*
X40000Y48000D02*X47000D01*
Y44000D01*
X40000D01*
Y48000D01*
G37*
G54D12*X38457Y31000D02*X29129D01*
G54D13*X40562Y21938D02*X38500Y24000D01*
G54D14*Y30957D01*
G54D13*X38457Y31000D01*
X38530Y19970D02*X33000Y25500D01*
X23500D01*
G54D12*X21957Y40000D02*Y31086D01*
X29129Y31000D02*Y39914D01*
G54D13*X29043Y40000D01*
X22000Y30957D02*X22043Y31000D01*
X23500Y25500D02*X22000Y27000D01*
Y30957D01*
G54D12*X21957Y31086D02*X22043Y31000D01*
G54D15*X22000Y47500D02*Y40000D01*
G54D13*X62500Y30957D02*X62543Y31000D01*
G54D12*X65500Y19500D02*Y23000D01*
G54D13*X44754Y19970D02*X38530D01*
X44754Y21938D02*X40562D01*
X61246Y16031D02*X65531D01*
X67500Y18000D01*
X70957D01*
X72000Y19043D01*
X64000Y18000D02*X65500Y19500D01*
G54D16*Y23000D02*X71000Y28500D01*
G54D13*X61246Y18000D02*X64000D01*
G54D11*G36*
X7000Y20500D02*Y14500D01*
X13000D01*
Y20500D01*
X7000D01*
G37*
G54D17*X10000Y27500D03*
Y37500D03*
G54D18*X62543Y42393D02*Y41607D01*
X55457Y42393D02*Y41607D01*
X22095Y10181D02*Y7819D01*
X21957Y40393D02*Y39607D01*
X29043Y40393D02*Y39607D01*
Y30393D02*Y29607D01*
X21957Y30393D02*Y29607D01*
X33905Y10181D02*Y7819D01*
G54D19*X43605Y21940D02*X45903D01*
X43605Y19970D02*X45903D01*
X43605Y18000D02*X45903D01*
X43605Y16030D02*X45903D01*
X43605Y14060D02*X45903D01*
G54D18*X71607Y19043D02*X72393D01*
X71607Y11957D02*X72393D01*
G54D19*X60097Y14060D02*X62395D01*
X60097Y16030D02*X62395D01*
X60097Y18000D02*X62395D01*
X60097Y19970D02*X62395D01*
X60097Y21940D02*X62395D01*
G54D20*X53000Y18400D02*Y17600D01*
G54D18*X55457Y31393D02*Y30607D01*
X62543Y31393D02*Y30607D01*
X45543Y31393D02*Y30607D01*
X38457Y31393D02*Y30607D01*
G54D21*X38500Y12000D03*
Y8000D03*
Y4000D03*
X42500Y6000D03*
Y10000D03*
X62500Y6500D03*
Y11000D03*
X67000D03*
X71500D03*
X67000Y6500D03*
X71500D03*
X44000Y47000D03*
X62000D03*
X50500Y36500D03*
X45500D03*
X55500D03*
X50500Y31500D03*
Y26500D03*
X62000Y51500D03*
X57500D03*
X53000D03*
X48500D03*
X44000D03*
G54D12*G54D22*M02*
