M48
INCH
T30C0.020
T29C0.038
%
T30
X003850Y001200
X003850Y000800
X003850Y000400
X004250Y000600
X004250Y001000
X006250Y000650
X006250Y001100
X006700Y001100
X007150Y001100
X006700Y000650
X007150Y000650
X004400Y004700
X006200Y004700
X005050Y003650
X004550Y003650
X005550Y003650
X005050Y003150
X005050Y002650
X006200Y005150
X005750Y005150
X005300Y005150
X004850Y005150
X004400Y005150
T29
X001000Y001750
X001000Y002750
X001000Y003750
M30
