G04 start of page 8 for group -4078 idx -4078 *
G04 Title: (unknown), bottomsilk *
G04 Creator: pcb 20110918 *
G04 CreationDate: Mon 01 Apr 2013 11:54:10 PM GMT UTC *
G04 For: railfan *
G04 Format: Gerber/RS-274X *
G04 PCB-Dimensions: 80000 55000 *
G04 PCB-Coordinate-Origin: lower left *
%MOIN*%
%FSLAX25Y25*%
%LNBOTTOMSILK*%
%ADD40C,0.0100*%
G54D40*X500Y54500D02*Y500D01*
X79500D02*Y54500D01*
X500Y500D02*X79500D01*
Y54500D02*X500D01*
X16500Y35830D02*Y39490D01*
Y35830D02*X17110Y35220D01*
X18330D01*
X18940Y35830D01*
Y39490D01*
X18330Y40100D02*X18940Y39490D01*
X17110Y40100D02*X18330D01*
X16500Y39490D02*X17110Y40100D01*
X20404Y35220D02*Y39490D01*
X21014Y40100D01*
X22234D01*
X22844Y39490D01*
Y35220D02*Y39490D01*
X24308Y35220D02*X26748D01*
X25528D02*Y40100D01*
X16500Y15220D02*X17720D01*
X17110D02*Y20100D01*
X16500D02*X17720D01*
X19184Y15220D02*Y20100D01*
Y15220D02*Y15830D01*
X22234Y18880D01*
Y15220D02*Y20100D01*
X18940Y25220D02*X19550Y25830D01*
X17110Y25220D02*X18940D01*
X16500Y25830D02*X17110Y25220D01*
X16500Y25830D02*Y29490D01*
X17110Y30100D01*
X18940D01*
X19550Y29490D01*
Y28270D02*Y29490D01*
X18940Y27660D02*X19550Y28270D01*
X17720Y27660D02*X18940D01*
X21014Y25220D02*Y30100D01*
Y25220D02*Y25830D01*
X24064Y28880D01*
Y25220D02*Y30100D01*
X26138Y25220D02*Y30100D01*
X27968Y25220D02*X28578Y25830D01*
Y29490D01*
X27968Y30100D02*X28578Y29490D01*
X25528Y30100D02*X27968D01*
X25528Y25220D02*X27968D01*
X6500Y6500D02*Y7500D01*
X7500Y8500D01*
X8500Y7500D01*
Y6500D02*Y7500D01*
X9700Y5000D02*X10200Y4500D01*
X11700D01*
X12200Y5000D01*
Y6000D01*
X9700Y8500D02*X12200Y6000D01*
X9700Y8500D02*X12200D01*
X13400D02*X13900D01*
X15100Y8000D02*X15600Y8500D01*
X15100Y5000D02*Y8000D01*
Y5000D02*X15600Y4500D01*
X16600D01*
X17100Y5000D01*
Y8000D01*
X16600Y8500D02*X17100Y8000D01*
X15600Y8500D02*X16600D01*
X15100Y7500D02*X17100Y5500D01*
X4500Y51500D02*X6000D01*
X4000Y51000D02*X4500Y51500D01*
X4000Y48000D02*Y51000D01*
Y48000D02*X4500Y47500D01*
X6000D01*
X7200D02*Y51500D01*
Y49500D02*X9200Y47500D01*
X7200Y49500D02*X9200Y51500D01*
X10400Y47500D02*X12400D01*
X11400D02*Y51500D01*
X13600Y49500D02*X15600D01*
X16800Y47500D02*Y51500D01*
X18800D01*
X20000Y47500D02*X22000D01*
X21000D02*Y51500D01*
X23200Y48000D02*X23700Y47500D01*
X24700D01*
X25200Y48000D01*
Y51000D01*
X24700Y51500D02*X25200Y51000D01*
X23700Y51500D02*X24700D01*
X23200Y51000D02*X23700Y51500D01*
Y49500D02*X25200D01*
X26400Y51500D02*X28400Y49500D01*
Y48000D02*Y49500D01*
X27900Y47500D02*X28400Y48000D01*
X26900Y47500D02*X27900D01*
X26400Y48000D02*X26900Y47500D01*
X26400Y48000D02*Y49000D01*
X26900Y49500D01*
X28400D01*
X29600Y51500D02*X32100Y49000D01*
Y47500D02*Y49000D01*
X29600Y47500D02*X32100D01*
X33300Y48000D02*X33800Y47500D01*
X34800D01*
X35300Y48000D01*
Y51000D01*
X34800Y51500D02*X35300Y51000D01*
X33800Y51500D02*X34800D01*
X33300Y51000D02*X33800Y51500D01*
Y49500D02*X35300D01*
X30000Y12500D02*X38000Y4500D01*
X30000Y37500D02*Y12500D01*
X43000Y50500D02*X30000Y37500D01*
X43000Y50500D02*X73000D01*
X76000Y47500D02*X73000Y50500D01*
X76000Y47500D02*Y17500D01*
X63000Y4500D02*X76000Y17500D01*
X38000Y4500D02*X63000D01*
X43000Y27500D02*G75*G03X43000Y27500I10000J0D01*G01*
X54000Y25500D02*Y29500D01*
X56000D01*
X57700D02*X58700D01*
X58200Y25500D02*Y29500D01*
X57200Y26500D02*X58200Y25500D01*
M02*
