G04 start of page 11 for group -3984 idx -3984 *
G04 Title: (unknown), fab *
G04 Creator: pcb 20110918 *
G04 CreationDate: Mon 01 Apr 2013 11:54:10 PM GMT UTC *
G04 For: railfan *
G04 Format: Gerber/RS-274X *
G04 PCB-Dimensions: 80000 55000 *
G04 PCB-Coordinate-Origin: lower left *
%MOIN*%
%FSLAX25Y25*%
%LNFAB*%
%ADD47C,0.0100*%
%ADD46C,0.0060*%
%ADD45R,0.0080X0.0080*%
G54D45*X10000Y19100D02*Y15900D01*
X8400Y17500D02*X11600D01*
X10000Y29100D02*Y25900D01*
X8400Y27500D02*X11600D01*
X10000Y39100D02*Y35900D01*
X8400Y37500D02*X11600D01*
X15000Y97850D02*Y94650D01*
X13400Y96250D02*X16600D01*
G54D46*X135000Y98500D02*Y97750D01*
X136500Y96250D01*
X138000Y97750D01*
Y98500D02*Y97750D01*
X136500Y96250D02*Y92500D01*
X139800Y95500D02*X142050D01*
X139800Y92500D02*X142800D01*
X139800Y98500D02*Y92500D01*
Y98500D02*X142800D01*
X147600D02*X148350Y97750D01*
X145350Y98500D02*X147600D01*
X144600Y97750D02*X145350Y98500D01*
X144600Y97750D02*Y96250D01*
X145350Y95500D01*
X147600D01*
X148350Y94750D01*
Y93250D01*
X147600Y92500D02*X148350Y93250D01*
X145350Y92500D02*X147600D01*
X144600Y93250D02*X145350Y92500D01*
X98000Y97750D02*X98750Y98500D01*
X100250D01*
X101000Y97750D01*
Y93250D01*
X100250Y92500D02*X101000Y93250D01*
X98750Y92500D02*X100250D01*
X98000Y93250D02*X98750Y92500D01*
Y95500D02*X101000D01*
X45000Y93250D02*X45750Y92500D01*
X45000Y97750D02*Y93250D01*
Y97750D02*X45750Y98500D01*
X47250D01*
X48000Y97750D01*
Y93250D01*
X47250Y92500D02*X48000Y93250D01*
X45750Y92500D02*X47250D01*
X45000Y94000D02*X48000Y97000D01*
X49800Y92500D02*X50550D01*
X52350Y93250D02*X53100Y92500D01*
X52350Y97750D02*Y93250D01*
Y97750D02*X53100Y98500D01*
X54600D01*
X55350Y97750D01*
Y93250D01*
X54600Y92500D02*X55350Y93250D01*
X53100Y92500D02*X54600D01*
X52350Y94000D02*X55350Y97000D01*
X57150Y97750D02*X57900Y98500D01*
X59400D01*
X60150Y97750D01*
Y93250D01*
X59400Y92500D02*X60150Y93250D01*
X57900Y92500D02*X59400D01*
X57150Y93250D02*X57900Y92500D01*
Y95500D02*X60150D01*
X61950Y93250D02*X62700Y92500D01*
X61950Y94750D02*Y93250D01*
Y94750D02*X62700Y95500D01*
X64200D01*
X64950Y94750D01*
Y93250D01*
X64200Y92500D02*X64950Y93250D01*
X62700Y92500D02*X64200D01*
X61950Y96250D02*X62700Y95500D01*
X61950Y97750D02*Y96250D01*
Y97750D02*X62700Y98500D01*
X64200D01*
X64950Y97750D01*
Y96250D01*
X64200Y95500D02*X64950Y96250D01*
X50500Y36500D02*Y34900D01*
Y36500D02*X51887Y37300D01*
X50500Y36500D02*X49113Y37300D01*
X45500Y36500D02*Y34900D01*
Y36500D02*X46887Y37300D01*
X45500Y36500D02*X44113Y37300D01*
X55500Y36500D02*Y34900D01*
Y36500D02*X56887Y37300D01*
X55500Y36500D02*X54113Y37300D01*
X50500Y31500D02*Y29900D01*
Y31500D02*X51887Y32300D01*
X50500Y31500D02*X49113Y32300D01*
X50500Y26500D02*Y24900D01*
Y26500D02*X51887Y27300D01*
X50500Y26500D02*X49113Y27300D01*
X44000Y47000D02*Y45400D01*
Y47000D02*X45387Y47800D01*
X44000Y47000D02*X42613Y47800D01*
X62000Y47000D02*Y45400D01*
Y47000D02*X63387Y47800D01*
X62000Y47000D02*X60613Y47800D01*
X62000Y51500D02*Y49900D01*
Y51500D02*X63387Y52300D01*
X62000Y51500D02*X60613Y52300D01*
X57500Y51500D02*Y49900D01*
Y51500D02*X58887Y52300D01*
X57500Y51500D02*X56113Y52300D01*
X53000Y51500D02*Y49900D01*
Y51500D02*X54387Y52300D01*
X53000Y51500D02*X51613Y52300D01*
X48500Y51500D02*Y49900D01*
Y51500D02*X49887Y52300D01*
X48500Y51500D02*X47113Y52300D01*
X44000Y51500D02*Y49900D01*
Y51500D02*X45387Y52300D01*
X44000Y51500D02*X42613Y52300D01*
X38500Y12000D02*Y10400D01*
Y12000D02*X39887Y12800D01*
X38500Y12000D02*X37113Y12800D01*
X38500Y8000D02*Y6400D01*
Y8000D02*X39887Y8800D01*
X38500Y8000D02*X37113Y8800D01*
X38500Y4000D02*Y2400D01*
Y4000D02*X39887Y4800D01*
X38500Y4000D02*X37113Y4800D01*
X42500Y6000D02*Y4400D01*
Y6000D02*X43887Y6800D01*
X42500Y6000D02*X41113Y6800D01*
X42500Y10000D02*Y8400D01*
Y10000D02*X43887Y10800D01*
X42500Y10000D02*X41113Y10800D01*
X62500Y6500D02*Y4900D01*
Y6500D02*X63887Y7300D01*
X62500Y6500D02*X61113Y7300D01*
X67000Y6500D02*Y4900D01*
Y6500D02*X68387Y7300D01*
X67000Y6500D02*X65613Y7300D01*
X71500Y6500D02*Y4900D01*
Y6500D02*X72887Y7300D01*
X71500Y6500D02*X70113Y7300D01*
X62500Y11000D02*Y9400D01*
Y11000D02*X63887Y11800D01*
X62500Y11000D02*X61113Y11800D01*
X67000Y11000D02*Y9400D01*
Y11000D02*X68387Y11800D01*
X67000Y11000D02*X65613Y11800D01*
X71500Y11000D02*Y9400D01*
Y11000D02*X72887Y11800D01*
X71500Y11000D02*X70113Y11800D01*
X15000Y111250D02*Y109650D01*
Y111250D02*X16387Y112050D01*
X15000Y111250D02*X13613Y112050D01*
X135000Y113500D02*Y112750D01*
X136500Y111250D01*
X138000Y112750D01*
Y113500D02*Y112750D01*
X136500Y111250D02*Y107500D01*
X139800Y110500D02*X142050D01*
X139800Y107500D02*X142800D01*
X139800Y113500D02*Y107500D01*
Y113500D02*X142800D01*
X147600D02*X148350Y112750D01*
X145350Y113500D02*X147600D01*
X144600Y112750D02*X145350Y113500D01*
X144600Y112750D02*Y111250D01*
X145350Y110500D01*
X147600D01*
X148350Y109750D01*
Y108250D01*
X147600Y107500D02*X148350Y108250D01*
X145350Y107500D02*X147600D01*
X144600Y108250D02*X145350Y107500D01*
X98000Y112750D02*X98750Y113500D01*
X101000D01*
X101750Y112750D01*
Y111250D01*
X98000Y107500D02*X101750Y111250D01*
X98000Y107500D02*X101750D01*
X103550Y112750D02*X104300Y113500D01*
X105800D01*
X106550Y112750D01*
Y108250D01*
X105800Y107500D02*X106550Y108250D01*
X104300Y107500D02*X105800D01*
X103550Y108250D02*X104300Y107500D01*
Y110500D02*X106550D01*
X45000Y108250D02*X45750Y107500D01*
X45000Y112750D02*Y108250D01*
Y112750D02*X45750Y113500D01*
X47250D01*
X48000Y112750D01*
Y108250D01*
X47250Y107500D02*X48000Y108250D01*
X45750Y107500D02*X47250D01*
X45000Y109000D02*X48000Y112000D01*
X49800Y107500D02*X50550D01*
X52350Y108250D02*X53100Y107500D01*
X52350Y112750D02*Y108250D01*
Y112750D02*X53100Y113500D01*
X54600D01*
X55350Y112750D01*
Y108250D01*
X54600Y107500D02*X55350Y108250D01*
X53100Y107500D02*X54600D01*
X52350Y109000D02*X55350Y112000D01*
X57150Y112750D02*X57900Y113500D01*
X60150D01*
X60900Y112750D01*
Y111250D01*
X57150Y107500D02*X60900Y111250D01*
X57150Y107500D02*X60900D01*
X62700Y108250D02*X63450Y107500D01*
X62700Y112750D02*Y108250D01*
Y112750D02*X63450Y113500D01*
X64950D01*
X65700Y112750D01*
Y108250D01*
X64950Y107500D02*X65700Y108250D01*
X63450Y107500D02*X64950D01*
X62700Y109000D02*X65700Y112000D01*
X3000Y128500D02*X3750Y127750D01*
X750Y128500D02*X3000D01*
X0Y127750D02*X750Y128500D01*
X0Y127750D02*Y126250D01*
X750Y125500D01*
X3000D01*
X3750Y124750D01*
Y123250D01*
X3000Y122500D02*X3750Y123250D01*
X750Y122500D02*X3000D01*
X0Y123250D02*X750Y122500D01*
X5550Y125500D02*Y123250D01*
X6300Y122500D01*
X8550Y125500D02*Y121000D01*
X7800Y120250D02*X8550Y121000D01*
X6300Y120250D02*X7800D01*
X5550Y121000D02*X6300Y120250D01*
Y122500D02*X7800D01*
X8550Y123250D01*
X11100Y124750D02*Y122500D01*
Y124750D02*X11850Y125500D01*
X12600D01*
X13350Y124750D01*
Y122500D01*
Y124750D02*X14100Y125500D01*
X14850D01*
X15600Y124750D01*
Y122500D01*
X10350Y125500D02*X11100Y124750D01*
X17400Y128500D02*Y122500D01*
Y123250D02*X18150Y122500D01*
X19650D01*
X20400Y123250D01*
Y124750D02*Y123250D01*
X19650Y125500D02*X20400Y124750D01*
X18150Y125500D02*X19650D01*
X17400Y124750D02*X18150Y125500D01*
X22200Y124750D02*Y123250D01*
Y124750D02*X22950Y125500D01*
X24450D01*
X25200Y124750D01*
Y123250D01*
X24450Y122500D02*X25200Y123250D01*
X22950Y122500D02*X24450D01*
X22200Y123250D02*X22950Y122500D01*
X27000Y128500D02*Y123250D01*
X27750Y122500D01*
X0Y119250D02*X29250D01*
X41750Y128500D02*Y122500D01*
X44000Y128500D02*X44750Y127750D01*
Y123250D01*
X44000Y122500D02*X44750Y123250D01*
X41000Y122500D02*X44000D01*
X41000Y128500D02*X44000D01*
X46550Y127000D02*Y126250D01*
Y124750D02*Y122500D01*
X50300Y125500D02*X51050Y124750D01*
X48800Y125500D02*X50300D01*
X48050Y124750D02*X48800Y125500D01*
X48050Y124750D02*Y123250D01*
X48800Y122500D01*
X51050Y125500D02*Y123250D01*
X51800Y122500D01*
X48800D02*X50300D01*
X51050Y123250D01*
X54350Y124750D02*Y122500D01*
Y124750D02*X55100Y125500D01*
X55850D01*
X56600Y124750D01*
Y122500D01*
Y124750D02*X57350Y125500D01*
X58100D01*
X58850Y124750D01*
Y122500D01*
X53600Y125500D02*X54350Y124750D01*
X60650Y122500D02*X61400D01*
X65900Y123250D02*X66650Y122500D01*
X65900Y127750D02*X66650Y128500D01*
X65900Y127750D02*Y123250D01*
X68450Y128500D02*X69950D01*
X69200D02*Y122500D01*
X68450D02*X69950D01*
X72500Y124750D02*Y122500D01*
Y124750D02*X73250Y125500D01*
X74000D01*
X74750Y124750D01*
Y122500D01*
X71750Y125500D02*X72500Y124750D01*
X77300Y125500D02*X79550D01*
X76550Y124750D02*X77300Y125500D01*
X76550Y124750D02*Y123250D01*
X77300Y122500D01*
X79550D01*
X81350Y128500D02*Y122500D01*
Y124750D02*X82100Y125500D01*
X83600D01*
X84350Y124750D01*
Y122500D01*
X86150Y128500D02*X86900Y127750D01*
Y123250D01*
X86150Y122500D02*X86900Y123250D01*
X41000Y119250D02*X88700D01*
X95750Y122500D02*X98000D01*
X95000Y123250D02*X95750Y122500D01*
X95000Y127750D02*Y123250D01*
Y127750D02*X95750Y128500D01*
X98000D01*
X99800Y124750D02*Y123250D01*
Y124750D02*X100550Y125500D01*
X102050D01*
X102800Y124750D01*
Y123250D01*
X102050Y122500D02*X102800Y123250D01*
X100550Y122500D02*X102050D01*
X99800Y123250D02*X100550Y122500D01*
X104600Y125500D02*Y123250D01*
X105350Y122500D01*
X106850D01*
X107600Y123250D01*
Y125500D02*Y123250D01*
X110150Y124750D02*Y122500D01*
Y124750D02*X110900Y125500D01*
X111650D01*
X112400Y124750D01*
Y122500D01*
X109400Y125500D02*X110150Y124750D01*
X114950Y128500D02*Y123250D01*
X115700Y122500D01*
X114200Y126250D02*X115700D01*
X95000Y119250D02*X117200D01*
X130750Y128500D02*Y122500D01*
X130000Y128500D02*X133000D01*
X133750Y127750D01*
Y126250D01*
X133000Y125500D02*X133750Y126250D01*
X130750Y125500D02*X133000D01*
X135550Y128500D02*Y123250D01*
X136300Y122500D01*
X140050Y125500D02*X140800Y124750D01*
X138550Y125500D02*X140050D01*
X137800Y124750D02*X138550Y125500D01*
X137800Y124750D02*Y123250D01*
X138550Y122500D01*
X140800Y125500D02*Y123250D01*
X141550Y122500D01*
X138550D02*X140050D01*
X140800Y123250D01*
X144100Y128500D02*Y123250D01*
X144850Y122500D01*
X143350Y126250D02*X144850D01*
X147100Y122500D02*X149350D01*
X146350Y123250D02*X147100Y122500D01*
X146350Y124750D02*Y123250D01*
Y124750D02*X147100Y125500D01*
X148600D01*
X149350Y124750D01*
X146350Y124000D02*X149350D01*
Y124750D02*Y124000D01*
X154150Y128500D02*Y122500D01*
X153400D02*X154150Y123250D01*
X151900Y122500D02*X153400D01*
X151150Y123250D02*X151900Y122500D01*
X151150Y124750D02*Y123250D01*
Y124750D02*X151900Y125500D01*
X153400D01*
X154150Y124750D01*
X157450Y125500D02*Y124750D01*
Y123250D02*Y122500D01*
X155950Y127750D02*Y127000D01*
Y127750D02*X156700Y128500D01*
X158200D01*
X158950Y127750D01*
Y127000D01*
X157450Y125500D02*X158950Y127000D01*
X130000Y119250D02*X160750D01*
X0Y143500D02*X3000D01*
X1500D02*Y137500D01*
X4800Y143500D02*Y137500D01*
Y139750D02*X5550Y140500D01*
X7050D01*
X7800Y139750D01*
Y137500D01*
X10350D02*X12600D01*
X9600Y138250D02*X10350Y137500D01*
X9600Y139750D02*Y138250D01*
Y139750D02*X10350Y140500D01*
X11850D01*
X12600Y139750D01*
X9600Y139000D02*X12600D01*
Y139750D02*Y139000D01*
X15150Y139750D02*Y137500D01*
Y139750D02*X15900Y140500D01*
X17400D01*
X14400D02*X15150Y139750D01*
X19950Y137500D02*X22200D01*
X19200Y138250D02*X19950Y137500D01*
X19200Y139750D02*Y138250D01*
Y139750D02*X19950Y140500D01*
X21450D01*
X22200Y139750D01*
X19200Y139000D02*X22200D01*
Y139750D02*Y139000D01*
X28950Y140500D02*X29700Y139750D01*
X27450Y140500D02*X28950D01*
X26700Y139750D02*X27450Y140500D01*
X26700Y139750D02*Y138250D01*
X27450Y137500D01*
X29700Y140500D02*Y138250D01*
X30450Y137500D01*
X27450D02*X28950D01*
X29700Y138250D01*
X33000Y139750D02*Y137500D01*
Y139750D02*X33750Y140500D01*
X35250D01*
X32250D02*X33000Y139750D01*
X37800Y137500D02*X40050D01*
X37050Y138250D02*X37800Y137500D01*
X37050Y139750D02*Y138250D01*
Y139750D02*X37800Y140500D01*
X39300D01*
X40050Y139750D01*
X37050Y139000D02*X40050D01*
Y139750D02*Y139000D01*
X44550Y142750D02*X45300Y143500D01*
X47550D01*
X48300Y142750D01*
Y141250D01*
X44550Y137500D02*X48300Y141250D01*
X44550Y137500D02*X48300D01*
X55800Y143500D02*Y137500D01*
X55050D02*X55800Y138250D01*
X53550Y137500D02*X55050D01*
X52800Y138250D02*X53550Y137500D01*
X52800Y139750D02*Y138250D01*
Y139750D02*X53550Y140500D01*
X55050D01*
X55800Y139750D01*
X57600Y142000D02*Y141250D01*
Y139750D02*Y137500D01*
X59850Y142750D02*Y137500D01*
Y142750D02*X60600Y143500D01*
X61350D01*
X59100Y140500D02*X60600D01*
X63600Y142750D02*Y137500D01*
Y142750D02*X64350Y143500D01*
X65100D01*
X62850Y140500D02*X64350D01*
X67350Y137500D02*X69600D01*
X66600Y138250D02*X67350Y137500D01*
X66600Y139750D02*Y138250D01*
Y139750D02*X67350Y140500D01*
X68850D01*
X69600Y139750D01*
X66600Y139000D02*X69600D01*
Y139750D02*Y139000D01*
X72150Y139750D02*Y137500D01*
Y139750D02*X72900Y140500D01*
X74400D01*
X71400D02*X72150Y139750D01*
X76950Y137500D02*X79200D01*
X76200Y138250D02*X76950Y137500D01*
X76200Y139750D02*Y138250D01*
Y139750D02*X76950Y140500D01*
X78450D01*
X79200Y139750D01*
X76200Y139000D02*X79200D01*
Y139750D02*Y139000D01*
X81750Y139750D02*Y137500D01*
Y139750D02*X82500Y140500D01*
X83250D01*
X84000Y139750D01*
Y137500D01*
X81000Y140500D02*X81750Y139750D01*
X86550Y143500D02*Y138250D01*
X87300Y137500D01*
X85800Y141250D02*X87300D01*
X94500Y143500D02*Y137500D01*
X93750D02*X94500Y138250D01*
X92250Y137500D02*X93750D01*
X91500Y138250D02*X92250Y137500D01*
X91500Y139750D02*Y138250D01*
Y139750D02*X92250Y140500D01*
X93750D01*
X94500Y139750D01*
X97050D02*Y137500D01*
Y139750D02*X97800Y140500D01*
X99300D01*
X96300D02*X97050Y139750D01*
X101100Y142000D02*Y141250D01*
Y139750D02*Y137500D01*
X102600Y143500D02*Y138250D01*
X103350Y137500D01*
X104850Y143500D02*Y138250D01*
X105600Y137500D01*
X110550D02*X112800D01*
X113550Y138250D01*
X112800Y139000D02*X113550Y138250D01*
X110550Y139000D02*X112800D01*
X109800Y139750D02*X110550Y139000D01*
X109800Y139750D02*X110550Y140500D01*
X112800D01*
X113550Y139750D01*
X109800Y138250D02*X110550Y137500D01*
X115350Y142000D02*Y141250D01*
Y139750D02*Y137500D01*
X116850Y140500D02*X119850D01*
X116850Y137500D02*X119850Y140500D01*
X116850Y137500D02*X119850D01*
X122400D02*X124650D01*
X121650Y138250D02*X122400Y137500D01*
X121650Y139750D02*Y138250D01*
Y139750D02*X122400Y140500D01*
X123900D01*
X124650Y139750D01*
X121650Y139000D02*X124650D01*
Y139750D02*Y139000D01*
X127200Y137500D02*X129450D01*
X130200Y138250D01*
X129450Y139000D02*X130200Y138250D01*
X127200Y139000D02*X129450D01*
X126450Y139750D02*X127200Y139000D01*
X126450Y139750D02*X127200Y140500D01*
X129450D01*
X130200Y139750D01*
X126450Y138250D02*X127200Y137500D01*
X134700Y140500D02*Y138250D01*
X135450Y137500D01*
X136950D01*
X137700Y138250D01*
Y140500D02*Y138250D01*
X140250Y137500D02*X142500D01*
X143250Y138250D01*
X142500Y139000D02*X143250Y138250D01*
X140250Y139000D02*X142500D01*
X139500Y139750D02*X140250Y139000D01*
X139500Y139750D02*X140250Y140500D01*
X142500D01*
X143250Y139750D01*
X139500Y138250D02*X140250Y137500D01*
X145800D02*X148050D01*
X145050Y138250D02*X145800Y137500D01*
X145050Y139750D02*Y138250D01*
Y139750D02*X145800Y140500D01*
X147300D01*
X148050Y139750D01*
X145050Y139000D02*X148050D01*
Y139750D02*Y139000D01*
X152850Y143500D02*Y137500D01*
X152100D02*X152850Y138250D01*
X150600Y137500D02*X152100D01*
X149850Y138250D02*X150600Y137500D01*
X149850Y139750D02*Y138250D01*
Y139750D02*X150600Y140500D01*
X152100D01*
X152850Y139750D01*
X157350Y142000D02*Y141250D01*
Y139750D02*Y137500D01*
X159600Y139750D02*Y137500D01*
Y139750D02*X160350Y140500D01*
X161100D01*
X161850Y139750D01*
Y137500D01*
X158850Y140500D02*X159600Y139750D01*
X167100Y143500D02*Y138250D01*
X167850Y137500D01*
X166350Y141250D02*X167850D01*
X169350Y143500D02*Y137500D01*
Y139750D02*X170100Y140500D01*
X171600D01*
X172350Y139750D01*
Y137500D01*
X174150Y142000D02*Y141250D01*
Y139750D02*Y137500D01*
X176400D02*X178650D01*
X179400Y138250D01*
X178650Y139000D02*X179400Y138250D01*
X176400Y139000D02*X178650D01*
X175650Y139750D02*X176400Y139000D01*
X175650Y139750D02*X176400Y140500D01*
X178650D01*
X179400Y139750D01*
X175650Y138250D02*X176400Y137500D01*
X183900Y143500D02*Y138250D01*
X184650Y137500D01*
X188400Y140500D02*X189150Y139750D01*
X186900Y140500D02*X188400D01*
X186150Y139750D02*X186900Y140500D01*
X186150Y139750D02*Y138250D01*
X186900Y137500D01*
X189150Y140500D02*Y138250D01*
X189900Y137500D01*
X186900D02*X188400D01*
X189150Y138250D01*
X191700Y140500D02*Y138250D01*
X192450Y137500D01*
X194700Y140500D02*Y136000D01*
X193950Y135250D02*X194700Y136000D01*
X192450Y135250D02*X193950D01*
X191700Y136000D02*X192450Y135250D01*
Y137500D02*X193950D01*
X194700Y138250D01*
X196500Y139750D02*Y138250D01*
Y139750D02*X197250Y140500D01*
X198750D01*
X199500Y139750D01*
Y138250D01*
X198750Y137500D02*X199500Y138250D01*
X197250Y137500D02*X198750D01*
X196500Y138250D02*X197250Y137500D01*
X201300Y140500D02*Y138250D01*
X202050Y137500D01*
X203550D01*
X204300Y138250D01*
Y140500D02*Y138250D01*
X206850Y143500D02*Y138250D01*
X207600Y137500D01*
X206100Y141250D02*X207600D01*
X209100Y136000D02*X210600Y137500D01*
X215100Y142750D02*X215850Y143500D01*
X218100D01*
X218850Y142750D01*
Y141250D01*
X215100Y137500D02*X218850Y141250D01*
X215100Y137500D02*X218850D01*
X222900Y143500D02*X223650Y142750D01*
X221400Y143500D02*X222900D01*
X220650Y142750D02*X221400Y143500D01*
X220650Y142750D02*Y138250D01*
X221400Y137500D01*
X222900Y140500D02*X223650Y139750D01*
X220650Y140500D02*X222900D01*
X221400Y137500D02*X222900D01*
X223650Y138250D01*
Y139750D02*Y138250D01*
X228150Y143500D02*Y137500D01*
Y139750D02*X228900Y140500D01*
X230400D01*
X231150Y139750D01*
Y137500D01*
X232950Y139750D02*Y138250D01*
Y139750D02*X233700Y140500D01*
X235200D01*
X235950Y139750D01*
Y138250D01*
X235200Y137500D02*X235950Y138250D01*
X233700Y137500D02*X235200D01*
X232950Y138250D02*X233700Y137500D01*
X237750Y143500D02*Y138250D01*
X238500Y137500D01*
X240750D02*X243000D01*
X240000Y138250D02*X240750Y137500D01*
X240000Y139750D02*Y138250D01*
Y139750D02*X240750Y140500D01*
X242250D01*
X243000Y139750D01*
X240000Y139000D02*X243000D01*
Y139750D02*Y139000D01*
X245550Y137500D02*X247800D01*
X248550Y138250D01*
X247800Y139000D02*X248550Y138250D01*
X245550Y139000D02*X247800D01*
X244800Y139750D02*X245550Y139000D01*
X244800Y139750D02*X245550Y140500D01*
X247800D01*
X248550Y139750D01*
X244800Y138250D02*X245550Y137500D01*
X253800Y143500D02*Y138250D01*
X254550Y137500D01*
X253050Y141250D02*X254550D01*
X256050Y139750D02*Y138250D01*
Y139750D02*X256800Y140500D01*
X258300D01*
X259050Y139750D01*
Y138250D01*
X258300Y137500D02*X259050Y138250D01*
X256800Y137500D02*X258300D01*
X256050Y138250D02*X256800Y137500D01*
X261600Y143500D02*Y138250D01*
X262350Y137500D01*
X260850Y141250D02*X262350D01*
X266100Y140500D02*X266850Y139750D01*
X264600Y140500D02*X266100D01*
X263850Y139750D02*X264600Y140500D01*
X263850Y139750D02*Y138250D01*
X264600Y137500D01*
X266850Y140500D02*Y138250D01*
X267600Y137500D01*
X264600D02*X266100D01*
X266850Y138250D01*
X269400Y143500D02*Y138250D01*
X270150Y137500D01*
G54D47*X0Y55000D02*X80000D01*
X0D02*Y0D01*
X80000Y55000D02*Y0D01*
X0D02*X80000D01*
G54D46*X200000Y68500D02*Y62500D01*
Y68500D02*X202250Y66250D01*
X204500Y68500D01*
Y62500D01*
X208550Y65500D02*X209300Y64750D01*
X207050Y65500D02*X208550D01*
X206300Y64750D02*X207050Y65500D01*
X206300Y64750D02*Y63250D01*
X207050Y62500D01*
X209300Y65500D02*Y63250D01*
X210050Y62500D01*
X207050D02*X208550D01*
X209300Y63250D01*
X211850Y65500D02*X214850Y62500D01*
X211850D02*X214850Y65500D01*
X216650Y67000D02*Y66250D01*
Y64750D02*Y62500D01*
X218900Y64750D02*Y62500D01*
Y64750D02*X219650Y65500D01*
X220400D01*
X221150Y64750D01*
Y62500D01*
Y64750D02*X221900Y65500D01*
X222650D01*
X223400Y64750D01*
Y62500D01*
X218150Y65500D02*X218900Y64750D01*
X225200Y65500D02*Y63250D01*
X225950Y62500D01*
X227450D01*
X228200Y63250D01*
Y65500D02*Y63250D01*
X230750Y64750D02*Y62500D01*
Y64750D02*X231500Y65500D01*
X232250D01*
X233000Y64750D01*
Y62500D01*
Y64750D02*X233750Y65500D01*
X234500D01*
X235250Y64750D01*
Y62500D01*
X230000Y65500D02*X230750Y64750D01*
X240500Y68500D02*Y62500D01*
X242750Y68500D02*X243500Y67750D01*
Y63250D01*
X242750Y62500D02*X243500Y63250D01*
X239750Y62500D02*X242750D01*
X239750Y68500D02*X242750D01*
X245300Y67000D02*Y66250D01*
Y64750D02*Y62500D01*
X247550Y64750D02*Y62500D01*
Y64750D02*X248300Y65500D01*
X249050D01*
X249800Y64750D01*
Y62500D01*
Y64750D02*X250550Y65500D01*
X251300D01*
X252050Y64750D01*
Y62500D01*
X246800Y65500D02*X247550Y64750D01*
X254600Y62500D02*X256850D01*
X253850Y63250D02*X254600Y62500D01*
X253850Y64750D02*Y63250D01*
Y64750D02*X254600Y65500D01*
X256100D01*
X256850Y64750D01*
X253850Y64000D02*X256850D01*
Y64750D02*Y64000D01*
X259400Y64750D02*Y62500D01*
Y64750D02*X260150Y65500D01*
X260900D01*
X261650Y64750D01*
Y62500D01*
X258650Y65500D02*X259400Y64750D01*
X264200Y62500D02*X266450D01*
X267200Y63250D01*
X266450Y64000D02*X267200Y63250D01*
X264200Y64000D02*X266450D01*
X263450Y64750D02*X264200Y64000D01*
X263450Y64750D02*X264200Y65500D01*
X266450D01*
X267200Y64750D01*
X263450Y63250D02*X264200Y62500D01*
X269000Y67000D02*Y66250D01*
Y64750D02*Y62500D01*
X270500Y64750D02*Y63250D01*
Y64750D02*X271250Y65500D01*
X272750D01*
X273500Y64750D01*
Y63250D01*
X272750Y62500D02*X273500Y63250D01*
X271250Y62500D02*X272750D01*
X270500Y63250D02*X271250Y62500D01*
X276050Y64750D02*Y62500D01*
Y64750D02*X276800Y65500D01*
X277550D01*
X278300Y64750D01*
Y62500D01*
X275300Y65500D02*X276050Y64750D01*
X280850Y62500D02*X283100D01*
X283850Y63250D01*
X283100Y64000D02*X283850Y63250D01*
X280850Y64000D02*X283100D01*
X280100Y64750D02*X280850Y64000D01*
X280100Y64750D02*X280850Y65500D01*
X283100D01*
X283850Y64750D01*
X280100Y63250D02*X280850Y62500D01*
X285650Y66250D02*X286400D01*
X285650Y64750D02*X286400D01*
X290900Y63250D02*X291650Y62500D01*
X290900Y64750D02*Y63250D01*
Y64750D02*X291650Y65500D01*
X293150D01*
X293900Y64750D01*
Y63250D01*
X293150Y62500D02*X293900Y63250D01*
X291650Y62500D02*X293150D01*
X290900Y66250D02*X291650Y65500D01*
X290900Y67750D02*Y66250D01*
Y67750D02*X291650Y68500D01*
X293150D01*
X293900Y67750D01*
Y66250D01*
X293150Y65500D02*X293900Y66250D01*
X295700Y63250D02*X296450Y62500D01*
X295700Y67750D02*Y63250D01*
Y67750D02*X296450Y68500D01*
X297950D01*
X298700Y67750D01*
Y63250D01*
X297950Y62500D02*X298700Y63250D01*
X296450Y62500D02*X297950D01*
X295700Y64000D02*X298700Y67000D01*
X300500Y63250D02*X301250Y62500D01*
X300500Y67750D02*Y63250D01*
Y67750D02*X301250Y68500D01*
X302750D01*
X303500Y67750D01*
Y63250D01*
X302750Y62500D02*X303500Y63250D01*
X301250Y62500D02*X302750D01*
X300500Y64000D02*X303500Y67000D01*
X305300Y62500D02*X306050D01*
X307850Y63250D02*X308600Y62500D01*
X307850Y67750D02*Y63250D01*
Y67750D02*X308600Y68500D01*
X310100D01*
X310850Y67750D01*
Y63250D01*
X310100Y62500D02*X310850Y63250D01*
X308600Y62500D02*X310100D01*
X307850Y64000D02*X310850Y67000D01*
X312650Y63250D02*X313400Y62500D01*
X312650Y67750D02*Y63250D01*
Y67750D02*X313400Y68500D01*
X314900D01*
X315650Y67750D01*
Y63250D01*
X314900Y62500D02*X315650Y63250D01*
X313400Y62500D02*X314900D01*
X312650Y64000D02*X315650Y67000D01*
X317450Y63250D02*X318200Y62500D01*
X317450Y67750D02*Y63250D01*
Y67750D02*X318200Y68500D01*
X319700D01*
X320450Y67750D01*
Y63250D01*
X319700Y62500D02*X320450Y63250D01*
X318200Y62500D02*X319700D01*
X317450Y64000D02*X320450Y67000D01*
X322250Y63250D02*X323000Y62500D01*
X322250Y67750D02*Y63250D01*
Y67750D02*X323000Y68500D01*
X324500D01*
X325250Y67750D01*
Y63250D01*
X324500Y62500D02*X325250Y63250D01*
X323000Y62500D02*X324500D01*
X322250Y64000D02*X325250Y67000D01*
X327050Y63250D02*X327800Y62500D01*
X327050Y67750D02*Y63250D01*
Y67750D02*X327800Y68500D01*
X329300D01*
X330050Y67750D01*
Y63250D01*
X329300Y62500D02*X330050Y63250D01*
X327800Y62500D02*X329300D01*
X327050Y64000D02*X330050Y67000D01*
X331850Y63250D02*X332600Y62500D01*
X331850Y67750D02*Y63250D01*
Y67750D02*X332600Y68500D01*
X334100D01*
X334850Y67750D01*
Y63250D01*
X334100Y62500D02*X334850Y63250D01*
X332600Y62500D02*X334100D01*
X331850Y64000D02*X334850Y67000D01*
X340100Y64750D02*Y62500D01*
Y64750D02*X340850Y65500D01*
X341600D01*
X342350Y64750D01*
Y62500D01*
Y64750D02*X343100Y65500D01*
X343850D01*
X344600Y64750D01*
Y62500D01*
X339350Y65500D02*X340100Y64750D01*
X346400Y67000D02*Y66250D01*
Y64750D02*Y62500D01*
X347900Y68500D02*Y63250D01*
X348650Y62500D01*
X350900D02*X353150D01*
X353900Y63250D01*
X353150Y64000D02*X353900Y63250D01*
X350900Y64000D02*X353150D01*
X350150Y64750D02*X350900Y64000D01*
X350150Y64750D02*X350900Y65500D01*
X353150D01*
X353900Y64750D01*
X350150Y63250D02*X350900Y62500D01*
X358400Y65500D02*Y63250D01*
X359150Y62500D01*
X359900D01*
X360650Y63250D01*
Y65500D02*Y63250D01*
X361400Y62500D01*
X362150D01*
X362900Y63250D01*
Y65500D02*Y63250D01*
X364700Y67000D02*Y66250D01*
Y64750D02*Y62500D01*
X369200Y68500D02*Y62500D01*
X368450D02*X369200Y63250D01*
X366950Y62500D02*X368450D01*
X366200Y63250D02*X366950Y62500D01*
X366200Y64750D02*Y63250D01*
Y64750D02*X366950Y65500D01*
X368450D01*
X369200Y64750D01*
X371750Y62500D02*X374000D01*
X371000Y63250D02*X371750Y62500D01*
X371000Y64750D02*Y63250D01*
Y64750D02*X371750Y65500D01*
X373250D01*
X374000Y64750D01*
X371000Y64000D02*X374000D01*
Y64750D02*Y64000D01*
X375800Y61000D02*X377300Y62500D01*
X381800Y68500D02*X384800D01*
X381800D02*Y65500D01*
X382550Y66250D01*
X384050D01*
X384800Y65500D01*
Y63250D01*
X384050Y62500D02*X384800Y63250D01*
X382550Y62500D02*X384050D01*
X381800Y63250D02*X382550Y62500D01*
X386600Y68500D02*X389600D01*
X386600D02*Y65500D01*
X387350Y66250D01*
X388850D01*
X389600Y65500D01*
Y63250D01*
X388850Y62500D02*X389600Y63250D01*
X387350Y62500D02*X388850D01*
X386600Y63250D02*X387350Y62500D01*
X391400Y63250D02*X392150Y62500D01*
X391400Y67750D02*Y63250D01*
Y67750D02*X392150Y68500D01*
X393650D01*
X394400Y67750D01*
Y63250D01*
X393650Y62500D02*X394400Y63250D01*
X392150Y62500D02*X393650D01*
X391400Y64000D02*X394400Y67000D01*
X396200Y62500D02*X396950D01*
X398750Y63250D02*X399500Y62500D01*
X398750Y67750D02*Y63250D01*
Y67750D02*X399500Y68500D01*
X401000D01*
X401750Y67750D01*
Y63250D01*
X401000Y62500D02*X401750Y63250D01*
X399500Y62500D02*X401000D01*
X398750Y64000D02*X401750Y67000D01*
X403550Y63250D02*X404300Y62500D01*
X403550Y67750D02*Y63250D01*
Y67750D02*X404300Y68500D01*
X405800D01*
X406550Y67750D01*
Y63250D01*
X405800Y62500D02*X406550Y63250D01*
X404300Y62500D02*X405800D01*
X403550Y64000D02*X406550Y67000D01*
X408350Y63250D02*X409100Y62500D01*
X408350Y67750D02*Y63250D01*
Y67750D02*X409100Y68500D01*
X410600D01*
X411350Y67750D01*
Y63250D01*
X410600Y62500D02*X411350Y63250D01*
X409100Y62500D02*X410600D01*
X408350Y64000D02*X411350Y67000D01*
X413150Y63250D02*X413900Y62500D01*
X413150Y67750D02*Y63250D01*
Y67750D02*X413900Y68500D01*
X415400D01*
X416150Y67750D01*
Y63250D01*
X415400Y62500D02*X416150Y63250D01*
X413900Y62500D02*X415400D01*
X413150Y64000D02*X416150Y67000D01*
X417950Y63250D02*X418700Y62500D01*
X417950Y67750D02*Y63250D01*
Y67750D02*X418700Y68500D01*
X420200D01*
X420950Y67750D01*
Y63250D01*
X420200Y62500D02*X420950Y63250D01*
X418700Y62500D02*X420200D01*
X417950Y64000D02*X420950Y67000D01*
X422750Y63250D02*X423500Y62500D01*
X422750Y67750D02*Y63250D01*
Y67750D02*X423500Y68500D01*
X425000D01*
X425750Y67750D01*
Y63250D01*
X425000Y62500D02*X425750Y63250D01*
X423500Y62500D02*X425000D01*
X422750Y64000D02*X425750Y67000D01*
X431000Y64750D02*Y62500D01*
Y64750D02*X431750Y65500D01*
X432500D01*
X433250Y64750D01*
Y62500D01*
Y64750D02*X434000Y65500D01*
X434750D01*
X435500Y64750D01*
Y62500D01*
X430250Y65500D02*X431000Y64750D01*
X437300Y67000D02*Y66250D01*
Y64750D02*Y62500D01*
X438800Y68500D02*Y63250D01*
X439550Y62500D01*
X441800D02*X444050D01*
X444800Y63250D01*
X444050Y64000D02*X444800Y63250D01*
X441800Y64000D02*X444050D01*
X441050Y64750D02*X441800Y64000D01*
X441050Y64750D02*X441800Y65500D01*
X444050D01*
X444800Y64750D01*
X441050Y63250D02*X441800Y62500D01*
X449300Y68500D02*Y62500D01*
Y64750D02*X450050Y65500D01*
X451550D01*
X452300Y64750D01*
Y62500D01*
X454100Y67000D02*Y66250D01*
Y64750D02*Y62500D01*
X457850Y65500D02*X458600Y64750D01*
X456350Y65500D02*X457850D01*
X455600Y64750D02*X456350Y65500D01*
X455600Y64750D02*Y63250D01*
X456350Y62500D01*
X457850D01*
X458600Y63250D01*
X455600Y61000D02*X456350Y60250D01*
X457850D01*
X458600Y61000D01*
Y65500D02*Y61000D01*
X460400Y68500D02*Y62500D01*
Y64750D02*X461150Y65500D01*
X462650D01*
X463400Y64750D01*
Y62500D01*
X0Y-9500D02*X3000D01*
X3750Y-8750D01*
Y-7250D02*Y-8750D01*
X3000Y-6500D02*X3750Y-7250D01*
X750Y-6500D02*X3000D01*
X750Y-3500D02*Y-9500D01*
X0Y-3500D02*X3000D01*
X3750Y-4250D01*
Y-5750D01*
X3000Y-6500D02*X3750Y-5750D01*
X5550Y-7250D02*Y-8750D01*
Y-7250D02*X6300Y-6500D01*
X7800D01*
X8550Y-7250D01*
Y-8750D01*
X7800Y-9500D02*X8550Y-8750D01*
X6300Y-9500D02*X7800D01*
X5550Y-8750D02*X6300Y-9500D01*
X12600Y-6500D02*X13350Y-7250D01*
X11100Y-6500D02*X12600D01*
X10350Y-7250D02*X11100Y-6500D01*
X10350Y-7250D02*Y-8750D01*
X11100Y-9500D01*
X13350Y-6500D02*Y-8750D01*
X14100Y-9500D01*
X11100D02*X12600D01*
X13350Y-8750D01*
X16650Y-7250D02*Y-9500D01*
Y-7250D02*X17400Y-6500D01*
X18900D01*
X15900D02*X16650Y-7250D01*
X23700Y-3500D02*Y-9500D01*
X22950D02*X23700Y-8750D01*
X21450Y-9500D02*X22950D01*
X20700Y-8750D02*X21450Y-9500D01*
X20700Y-7250D02*Y-8750D01*
Y-7250D02*X21450Y-6500D01*
X22950D01*
X23700Y-7250D01*
X28200D02*Y-8750D01*
Y-7250D02*X28950Y-6500D01*
X30450D01*
X31200Y-7250D01*
Y-8750D01*
X30450Y-9500D02*X31200Y-8750D01*
X28950Y-9500D02*X30450D01*
X28200Y-8750D02*X28950Y-9500D01*
X33000Y-6500D02*Y-8750D01*
X33750Y-9500D01*
X35250D01*
X36000Y-8750D01*
Y-6500D02*Y-8750D01*
X38550Y-3500D02*Y-8750D01*
X39300Y-9500D01*
X37800Y-5750D02*X39300D01*
X40800Y-3500D02*Y-8750D01*
X41550Y-9500D01*
X43050Y-5000D02*Y-5750D01*
Y-7250D02*Y-9500D01*
X45300Y-7250D02*Y-9500D01*
Y-7250D02*X46050Y-6500D01*
X46800D01*
X47550Y-7250D01*
Y-9500D01*
X44550Y-6500D02*X45300Y-7250D01*
X50100Y-9500D02*X52350D01*
X49350Y-8750D02*X50100Y-9500D01*
X49350Y-7250D02*Y-8750D01*
Y-7250D02*X50100Y-6500D01*
X51600D01*
X52350Y-7250D01*
X49350Y-8000D02*X52350D01*
Y-7250D02*Y-8000D01*
X56850Y-5000D02*Y-5750D01*
Y-7250D02*Y-9500D01*
X59100D02*X61350D01*
X62100Y-8750D01*
X61350Y-8000D02*X62100Y-8750D01*
X59100Y-8000D02*X61350D01*
X58350Y-7250D02*X59100Y-8000D01*
X58350Y-7250D02*X59100Y-6500D01*
X61350D01*
X62100Y-7250D01*
X58350Y-8750D02*X59100Y-9500D01*
X67350Y-3500D02*Y-8750D01*
X68100Y-9500D01*
X66600Y-5750D02*X68100D01*
X69600Y-3500D02*Y-9500D01*
Y-7250D02*X70350Y-6500D01*
X71850D01*
X72600Y-7250D01*
Y-9500D01*
X75150D02*X77400D01*
X74400Y-8750D02*X75150Y-9500D01*
X74400Y-7250D02*Y-8750D01*
Y-7250D02*X75150Y-6500D01*
X76650D01*
X77400Y-7250D01*
X74400Y-8000D02*X77400D01*
Y-7250D02*Y-8000D01*
X82650Y-6500D02*X84900D01*
X81900Y-7250D02*X82650Y-6500D01*
X81900Y-7250D02*Y-8750D01*
X82650Y-9500D01*
X84900D01*
X87450D02*X89700D01*
X86700Y-8750D02*X87450Y-9500D01*
X86700Y-7250D02*Y-8750D01*
Y-7250D02*X87450Y-6500D01*
X88950D01*
X89700Y-7250D01*
X86700Y-8000D02*X89700D01*
Y-7250D02*Y-8000D01*
X92250Y-7250D02*Y-9500D01*
Y-7250D02*X93000Y-6500D01*
X93750D01*
X94500Y-7250D01*
Y-9500D01*
X91500Y-6500D02*X92250Y-7250D01*
X97050Y-3500D02*Y-8750D01*
X97800Y-9500D01*
X96300Y-5750D02*X97800D01*
X100050Y-9500D02*X102300D01*
X99300Y-8750D02*X100050Y-9500D01*
X99300Y-7250D02*Y-8750D01*
Y-7250D02*X100050Y-6500D01*
X101550D01*
X102300Y-7250D01*
X99300Y-8000D02*X102300D01*
Y-7250D02*Y-8000D01*
X104850Y-7250D02*Y-9500D01*
Y-7250D02*X105600Y-6500D01*
X107100D01*
X104100D02*X104850Y-7250D01*
X108900Y-3500D02*Y-8750D01*
X109650Y-9500D01*
X111150Y-5000D02*Y-5750D01*
Y-7250D02*Y-9500D01*
X113400Y-7250D02*Y-9500D01*
Y-7250D02*X114150Y-6500D01*
X114900D01*
X115650Y-7250D01*
Y-9500D01*
X112650Y-6500D02*X113400Y-7250D01*
X118200Y-9500D02*X120450D01*
X117450Y-8750D02*X118200Y-9500D01*
X117450Y-7250D02*Y-8750D01*
Y-7250D02*X118200Y-6500D01*
X119700D01*
X120450Y-7250D01*
X117450Y-8000D02*X120450D01*
Y-7250D02*Y-8000D01*
X124950Y-7250D02*Y-8750D01*
Y-7250D02*X125700Y-6500D01*
X127200D01*
X127950Y-7250D01*
Y-8750D01*
X127200Y-9500D02*X127950Y-8750D01*
X125700Y-9500D02*X127200D01*
X124950Y-8750D02*X125700Y-9500D01*
X130500Y-4250D02*Y-9500D01*
Y-4250D02*X131250Y-3500D01*
X132000D01*
X129750Y-6500D02*X131250D01*
X136950Y-3500D02*Y-8750D01*
X137700Y-9500D01*
X136200Y-5750D02*X137700D01*
X139200Y-3500D02*Y-9500D01*
Y-7250D02*X139950Y-6500D01*
X141450D01*
X142200Y-7250D01*
Y-9500D01*
X144000Y-5000D02*Y-5750D01*
Y-7250D02*Y-9500D01*
X146250D02*X148500D01*
X149250Y-8750D01*
X148500Y-8000D02*X149250Y-8750D01*
X146250Y-8000D02*X148500D01*
X145500Y-7250D02*X146250Y-8000D01*
X145500Y-7250D02*X146250Y-6500D01*
X148500D01*
X149250Y-7250D01*
X145500Y-8750D02*X146250Y-9500D01*
X153750Y-8750D02*X154500Y-9500D01*
X153750Y-7250D02*Y-8750D01*
Y-7250D02*X154500Y-6500D01*
X156000D01*
X156750Y-7250D01*
Y-8750D01*
X156000Y-9500D02*X156750Y-8750D01*
X154500Y-9500D02*X156000D01*
X153750Y-5750D02*X154500Y-6500D01*
X153750Y-4250D02*Y-5750D01*
Y-4250D02*X154500Y-3500D01*
X156000D01*
X156750Y-4250D01*
Y-5750D01*
X156000Y-6500D02*X156750Y-5750D01*
X158550Y-9500D02*X159300D01*
X161100Y-8750D02*X161850Y-9500D01*
X161100Y-4250D02*Y-8750D01*
Y-4250D02*X161850Y-3500D01*
X163350D01*
X164100Y-4250D01*
Y-8750D01*
X163350Y-9500D02*X164100Y-8750D01*
X161850Y-9500D02*X163350D01*
X161100Y-8000D02*X164100Y-5000D01*
X165900Y-8750D02*X166650Y-9500D01*
X165900Y-4250D02*Y-8750D01*
Y-4250D02*X166650Y-3500D01*
X168150D01*
X168900Y-4250D01*
Y-8750D01*
X168150Y-9500D02*X168900Y-8750D01*
X166650Y-9500D02*X168150D01*
X165900Y-8000D02*X168900Y-5000D01*
X170700Y-8750D02*X171450Y-9500D01*
X170700Y-4250D02*Y-8750D01*
Y-4250D02*X171450Y-3500D01*
X172950D01*
X173700Y-4250D01*
Y-8750D01*
X172950Y-9500D02*X173700Y-8750D01*
X171450Y-9500D02*X172950D01*
X170700Y-8000D02*X173700Y-5000D01*
X175500Y-8750D02*X176250Y-9500D01*
X175500Y-4250D02*Y-8750D01*
Y-4250D02*X176250Y-3500D01*
X177750D01*
X178500Y-4250D01*
Y-8750D01*
X177750Y-9500D02*X178500Y-8750D01*
X176250Y-9500D02*X177750D01*
X175500Y-8000D02*X178500Y-5000D01*
X180300Y-8750D02*X181050Y-9500D01*
X180300Y-4250D02*Y-8750D01*
Y-4250D02*X181050Y-3500D01*
X182550D01*
X183300Y-4250D01*
Y-8750D01*
X182550Y-9500D02*X183300Y-8750D01*
X181050Y-9500D02*X182550D01*
X180300Y-8000D02*X183300Y-5000D01*
X185100Y-8750D02*X185850Y-9500D01*
X185100Y-4250D02*Y-8750D01*
Y-4250D02*X185850Y-3500D01*
X187350D01*
X188100Y-4250D01*
Y-8750D01*
X187350Y-9500D02*X188100Y-8750D01*
X185850Y-9500D02*X187350D01*
X185100Y-8000D02*X188100Y-5000D01*
X193350Y-7250D02*Y-9500D01*
Y-7250D02*X194100Y-6500D01*
X194850D01*
X195600Y-7250D01*
Y-9500D01*
Y-7250D02*X196350Y-6500D01*
X197100D01*
X197850Y-7250D01*
Y-9500D01*
X192600Y-6500D02*X193350Y-7250D01*
X199650Y-5000D02*Y-5750D01*
Y-7250D02*Y-9500D01*
X201150Y-3500D02*Y-8750D01*
X201900Y-9500D01*
X206850Y-7250D02*Y-9500D01*
Y-7250D02*X207600Y-6500D01*
X209100D01*
X206100D02*X206850Y-7250D01*
X211650Y-9500D02*X213900D01*
X210900Y-8750D02*X211650Y-9500D01*
X210900Y-7250D02*Y-8750D01*
Y-7250D02*X211650Y-6500D01*
X213150D01*
X213900Y-7250D01*
X210900Y-8000D02*X213900D01*
Y-7250D02*Y-8000D01*
X216450Y-6500D02*X218700D01*
X215700Y-7250D02*X216450Y-6500D01*
X215700Y-7250D02*Y-8750D01*
X216450Y-9500D01*
X218700D01*
X221250Y-3500D02*Y-8750D01*
X222000Y-9500D01*
X220500Y-5750D02*X222000D01*
X225750Y-6500D02*X226500Y-7250D01*
X224250Y-6500D02*X225750D01*
X223500Y-7250D02*X224250Y-6500D01*
X223500Y-7250D02*Y-8750D01*
X224250Y-9500D01*
X226500Y-6500D02*Y-8750D01*
X227250Y-9500D01*
X224250D02*X225750D01*
X226500Y-8750D01*
X229800Y-7250D02*Y-9500D01*
Y-7250D02*X230550Y-6500D01*
X231300D01*
X232050Y-7250D01*
Y-9500D01*
X229050Y-6500D02*X229800Y-7250D01*
X236100Y-6500D02*X236850Y-7250D01*
X234600Y-6500D02*X236100D01*
X233850Y-7250D02*X234600Y-6500D01*
X233850Y-7250D02*Y-8750D01*
X234600Y-9500D01*
X236100D01*
X236850Y-8750D01*
X233850Y-11000D02*X234600Y-11750D01*
X236100D01*
X236850Y-11000D01*
Y-6500D02*Y-11000D01*
X238650Y-3500D02*Y-8750D01*
X239400Y-9500D01*
X241650D02*X243900D01*
X240900Y-8750D02*X241650Y-9500D01*
X240900Y-7250D02*Y-8750D01*
Y-7250D02*X241650Y-6500D01*
X243150D01*
X243900Y-7250D01*
X240900Y-8000D02*X243900D01*
Y-7250D02*Y-8000D01*
X248400Y-6500D02*X251400D01*
X255900Y-8750D02*X256650Y-9500D01*
X255900Y-4250D02*Y-8750D01*
Y-4250D02*X256650Y-3500D01*
X258150D01*
X258900Y-4250D01*
Y-8750D01*
X258150Y-9500D02*X258900Y-8750D01*
X256650Y-9500D02*X258150D01*
X255900Y-8000D02*X258900Y-5000D01*
X260700Y-11000D02*X262200Y-9500D01*
X264000Y-8750D02*X264750Y-9500D01*
X264000Y-4250D02*Y-8750D01*
Y-4250D02*X264750Y-3500D01*
X266250D01*
X267000Y-4250D01*
Y-8750D01*
X266250Y-9500D02*X267000Y-8750D01*
X264750Y-9500D02*X266250D01*
X264000Y-8000D02*X267000Y-5000D01*
X272250Y-3500D02*Y-8750D01*
X273000Y-9500D01*
X271500Y-5750D02*X273000D01*
X274500Y-7250D02*Y-8750D01*
Y-7250D02*X275250Y-6500D01*
X276750D01*
X277500Y-7250D01*
Y-8750D01*
X276750Y-9500D02*X277500Y-8750D01*
X275250Y-9500D02*X276750D01*
X274500Y-8750D02*X275250Y-9500D01*
X282000Y-8750D02*X282750Y-9500D01*
X282000Y-7250D02*Y-8750D01*
Y-7250D02*X282750Y-6500D01*
X284250D01*
X285000Y-7250D01*
Y-8750D01*
X284250Y-9500D02*X285000Y-8750D01*
X282750Y-9500D02*X284250D01*
X282000Y-5750D02*X282750Y-6500D01*
X282000Y-4250D02*Y-5750D01*
Y-4250D02*X282750Y-3500D01*
X284250D01*
X285000Y-4250D01*
Y-5750D01*
X284250Y-6500D02*X285000Y-5750D01*
X286800Y-8750D02*X287550Y-9500D01*
X286800Y-4250D02*Y-8750D01*
Y-4250D02*X287550Y-3500D01*
X289050D01*
X289800Y-4250D01*
Y-8750D01*
X289050Y-9500D02*X289800Y-8750D01*
X287550Y-9500D02*X289050D01*
X286800Y-8000D02*X289800Y-5000D01*
X291600Y-8750D02*X292350Y-9500D01*
X291600Y-4250D02*Y-8750D01*
Y-4250D02*X292350Y-3500D01*
X293850D01*
X294600Y-4250D01*
Y-8750D01*
X293850Y-9500D02*X294600Y-8750D01*
X292350Y-9500D02*X293850D01*
X291600Y-8000D02*X294600Y-5000D01*
X296400Y-9500D02*X297150D01*
X298950Y-8750D02*X299700Y-9500D01*
X298950Y-4250D02*Y-8750D01*
Y-4250D02*X299700Y-3500D01*
X301200D01*
X301950Y-4250D01*
Y-8750D01*
X301200Y-9500D02*X301950Y-8750D01*
X299700Y-9500D02*X301200D01*
X298950Y-8000D02*X301950Y-5000D01*
X303750Y-8750D02*X304500Y-9500D01*
X303750Y-4250D02*Y-8750D01*
Y-4250D02*X304500Y-3500D01*
X306000D01*
X306750Y-4250D01*
Y-8750D01*
X306000Y-9500D02*X306750Y-8750D01*
X304500Y-9500D02*X306000D01*
X303750Y-8000D02*X306750Y-5000D01*
X308550Y-8750D02*X309300Y-9500D01*
X308550Y-4250D02*Y-8750D01*
Y-4250D02*X309300Y-3500D01*
X310800D01*
X311550Y-4250D01*
Y-8750D01*
X310800Y-9500D02*X311550Y-8750D01*
X309300Y-9500D02*X310800D01*
X308550Y-8000D02*X311550Y-5000D01*
X313350Y-8750D02*X314100Y-9500D01*
X313350Y-4250D02*Y-8750D01*
Y-4250D02*X314100Y-3500D01*
X315600D01*
X316350Y-4250D01*
Y-8750D01*
X315600Y-9500D02*X316350Y-8750D01*
X314100Y-9500D02*X315600D01*
X313350Y-8000D02*X316350Y-5000D01*
X318150Y-8750D02*X318900Y-9500D01*
X318150Y-4250D02*Y-8750D01*
Y-4250D02*X318900Y-3500D01*
X320400D01*
X321150Y-4250D01*
Y-8750D01*
X320400Y-9500D02*X321150Y-8750D01*
X318900Y-9500D02*X320400D01*
X318150Y-8000D02*X321150Y-5000D01*
X322950Y-8750D02*X323700Y-9500D01*
X322950Y-4250D02*Y-8750D01*
Y-4250D02*X323700Y-3500D01*
X325200D01*
X325950Y-4250D01*
Y-8750D01*
X325200Y-9500D02*X325950Y-8750D01*
X323700Y-9500D02*X325200D01*
X322950Y-8000D02*X325950Y-5000D01*
X327750Y-11000D02*X329250Y-9500D01*
X331050Y-3500D02*X334050D01*
X331050D02*Y-6500D01*
X331800Y-5750D01*
X333300D01*
X334050Y-6500D01*
Y-8750D01*
X333300Y-9500D02*X334050Y-8750D01*
X331800Y-9500D02*X333300D01*
X331050Y-8750D02*X331800Y-9500D01*
X335850Y-3500D02*X338850D01*
X335850D02*Y-6500D01*
X336600Y-5750D01*
X338100D01*
X338850Y-6500D01*
Y-8750D01*
X338100Y-9500D02*X338850Y-8750D01*
X336600Y-9500D02*X338100D01*
X335850Y-8750D02*X336600Y-9500D01*
X340650Y-8750D02*X341400Y-9500D01*
X340650Y-4250D02*Y-8750D01*
Y-4250D02*X341400Y-3500D01*
X342900D01*
X343650Y-4250D01*
Y-8750D01*
X342900Y-9500D02*X343650Y-8750D01*
X341400Y-9500D02*X342900D01*
X340650Y-8000D02*X343650Y-5000D01*
X345450Y-9500D02*X346200D01*
X348000Y-8750D02*X348750Y-9500D01*
X348000Y-4250D02*Y-8750D01*
Y-4250D02*X348750Y-3500D01*
X350250D01*
X351000Y-4250D01*
Y-8750D01*
X350250Y-9500D02*X351000Y-8750D01*
X348750Y-9500D02*X350250D01*
X348000Y-8000D02*X351000Y-5000D01*
X352800Y-8750D02*X353550Y-9500D01*
X352800Y-4250D02*Y-8750D01*
Y-4250D02*X353550Y-3500D01*
X355050D01*
X355800Y-4250D01*
Y-8750D01*
X355050Y-9500D02*X355800Y-8750D01*
X353550Y-9500D02*X355050D01*
X352800Y-8000D02*X355800Y-5000D01*
X357600Y-8750D02*X358350Y-9500D01*
X357600Y-4250D02*Y-8750D01*
Y-4250D02*X358350Y-3500D01*
X359850D01*
X360600Y-4250D01*
Y-8750D01*
X359850Y-9500D02*X360600Y-8750D01*
X358350Y-9500D02*X359850D01*
X357600Y-8000D02*X360600Y-5000D01*
X362400Y-8750D02*X363150Y-9500D01*
X362400Y-4250D02*Y-8750D01*
Y-4250D02*X363150Y-3500D01*
X364650D01*
X365400Y-4250D01*
Y-8750D01*
X364650Y-9500D02*X365400Y-8750D01*
X363150Y-9500D02*X364650D01*
X362400Y-8000D02*X365400Y-5000D01*
X367200Y-8750D02*X367950Y-9500D01*
X367200Y-4250D02*Y-8750D01*
Y-4250D02*X367950Y-3500D01*
X369450D01*
X370200Y-4250D01*
Y-8750D01*
X369450Y-9500D02*X370200Y-8750D01*
X367950Y-9500D02*X369450D01*
X367200Y-8000D02*X370200Y-5000D01*
X372000Y-8750D02*X372750Y-9500D01*
X372000Y-4250D02*Y-8750D01*
Y-4250D02*X372750Y-3500D01*
X374250D01*
X375000Y-4250D01*
Y-8750D01*
X374250Y-9500D02*X375000Y-8750D01*
X372750Y-9500D02*X374250D01*
X372000Y-8000D02*X375000Y-5000D01*
X380250Y-7250D02*Y-9500D01*
Y-7250D02*X381000Y-6500D01*
X381750D01*
X382500Y-7250D01*
Y-9500D01*
Y-7250D02*X383250Y-6500D01*
X384000D01*
X384750Y-7250D01*
Y-9500D01*
X379500Y-6500D02*X380250Y-7250D01*
X386550Y-5000D02*Y-5750D01*
Y-7250D02*Y-9500D01*
X388050Y-3500D02*Y-8750D01*
X388800Y-9500D01*
X391050D02*X393300D01*
X394050Y-8750D01*
X393300Y-8000D02*X394050Y-8750D01*
X391050Y-8000D02*X393300D01*
X390300Y-7250D02*X391050Y-8000D01*
X390300Y-7250D02*X391050Y-6500D01*
X393300D01*
X394050Y-7250D01*
X390300Y-8750D02*X391050Y-9500D01*
X200750Y83500D02*Y77500D01*
X203000Y83500D02*X203750Y82750D01*
Y78250D01*
X203000Y77500D02*X203750Y78250D01*
X200000Y77500D02*X203000D01*
X200000Y83500D02*X203000D01*
X207800Y80500D02*X208550Y79750D01*
X206300Y80500D02*X207800D01*
X205550Y79750D02*X206300Y80500D01*
X205550Y79750D02*Y78250D01*
X206300Y77500D01*
X208550Y80500D02*Y78250D01*
X209300Y77500D01*
X206300D02*X207800D01*
X208550Y78250D01*
X211850Y83500D02*Y78250D01*
X212600Y77500D01*
X211100Y81250D02*X212600D01*
X214850Y77500D02*X217100D01*
X214100Y78250D02*X214850Y77500D01*
X214100Y79750D02*Y78250D01*
Y79750D02*X214850Y80500D01*
X216350D01*
X217100Y79750D01*
X214100Y79000D02*X217100D01*
Y79750D02*Y79000D01*
X218900Y81250D02*X219650D01*
X218900Y79750D02*X219650D01*
X224150Y83500D02*Y77500D01*
Y83500D02*X226400Y81250D01*
X228650Y83500D01*
Y77500D01*
X230450Y79750D02*Y78250D01*
Y79750D02*X231200Y80500D01*
X232700D01*
X233450Y79750D01*
Y78250D01*
X232700Y77500D02*X233450Y78250D01*
X231200Y77500D02*X232700D01*
X230450Y78250D02*X231200Y77500D01*
X236000Y79750D02*Y77500D01*
Y79750D02*X236750Y80500D01*
X237500D01*
X238250Y79750D01*
Y77500D01*
X235250Y80500D02*X236000Y79750D01*
X242750Y78250D02*X243500Y77500D01*
X242750Y82750D02*Y78250D01*
Y82750D02*X243500Y83500D01*
X245000D01*
X245750Y82750D01*
Y78250D01*
X245000Y77500D02*X245750Y78250D01*
X243500Y77500D02*X245000D01*
X242750Y79000D02*X245750Y82000D01*
X248300Y77500D02*X249800D01*
X249050Y83500D02*Y77500D01*
X247550Y82000D02*X249050Y83500D01*
X254300Y82750D02*Y77500D01*
Y82750D02*X255050Y83500D01*
X257300D01*
X258050Y82750D01*
Y77500D01*
X254300Y80500D02*X258050D01*
X260600Y79750D02*Y75250D01*
X259850Y80500D02*X260600Y79750D01*
X261350Y80500D01*
X262850D01*
X263600Y79750D01*
Y78250D01*
X262850Y77500D02*X263600Y78250D01*
X261350Y77500D02*X262850D01*
X260600Y78250D02*X261350Y77500D01*
X266150Y79750D02*Y77500D01*
Y79750D02*X266900Y80500D01*
X268400D01*
X265400D02*X266150Y79750D01*
X272900Y82750D02*X273650Y83500D01*
X275900D01*
X276650Y82750D01*
Y81250D01*
X272900Y77500D02*X276650Y81250D01*
X272900Y77500D02*X276650D01*
X278450Y78250D02*X279200Y77500D01*
X278450Y82750D02*Y78250D01*
Y82750D02*X279200Y83500D01*
X280700D01*
X281450Y82750D01*
Y78250D01*
X280700Y77500D02*X281450Y78250D01*
X279200Y77500D02*X280700D01*
X278450Y79000D02*X281450Y82000D01*
X284000Y77500D02*X285500D01*
X284750Y83500D02*Y77500D01*
X283250Y82000D02*X284750Y83500D01*
X287300Y82750D02*X288050Y83500D01*
X289550D01*
X290300Y82750D01*
Y78250D01*
X289550Y77500D02*X290300Y78250D01*
X288050Y77500D02*X289550D01*
X287300Y78250D02*X288050Y77500D01*
Y80500D02*X290300D01*
X295550Y77500D02*X297050D01*
X296300Y83500D02*Y77500D01*
X294800Y82000D02*X296300Y83500D01*
X299600Y77500D02*X301100D01*
X300350Y83500D02*Y77500D01*
X298850Y82000D02*X300350Y83500D01*
X302900Y81250D02*X303650D01*
X302900Y79750D02*X303650D01*
X305450Y83500D02*X308450D01*
X305450D02*Y80500D01*
X306200Y81250D01*
X307700D01*
X308450Y80500D01*
Y78250D01*
X307700Y77500D02*X308450Y78250D01*
X306200Y77500D02*X307700D01*
X305450Y78250D02*X306200Y77500D01*
X310250Y80500D02*X313250Y83500D01*
X310250Y80500D02*X314000D01*
X313250Y83500D02*Y77500D01*
X315800Y81250D02*X316550D01*
X315800Y79750D02*X316550D01*
X319100Y77500D02*X320600D01*
X319850Y83500D02*Y77500D01*
X318350Y82000D02*X319850Y83500D01*
X322400Y78250D02*X323150Y77500D01*
X322400Y82750D02*Y78250D01*
Y82750D02*X323150Y83500D01*
X324650D01*
X325400Y82750D01*
Y78250D01*
X324650Y77500D02*X325400Y78250D01*
X323150Y77500D02*X324650D01*
X322400Y79000D02*X325400Y82000D01*
X330650Y83500D02*Y77500D01*
X329900Y83500D02*X332900D01*
X333650Y82750D01*
Y81250D01*
X332900Y80500D02*X333650Y81250D01*
X330650Y80500D02*X332900D01*
X335450Y83500D02*Y77500D01*
Y83500D02*X337700Y81250D01*
X339950Y83500D01*
Y77500D01*
X347450Y83500D02*X348200Y82750D01*
X345200Y83500D02*X347450D01*
X344450Y82750D02*X345200Y83500D01*
X344450Y82750D02*Y78250D01*
X345200Y77500D01*
X347450D01*
X348200Y78250D01*
Y79750D02*Y78250D01*
X347450Y80500D02*X348200Y79750D01*
X345950Y80500D02*X347450D01*
X350000Y83500D02*Y77500D01*
Y83500D02*X352250Y81250D01*
X354500Y83500D01*
Y77500D01*
X356300Y83500D02*X359300D01*
X357800D02*Y77500D01*
X363800Y83500D02*Y78250D01*
X364550Y77500D01*
X366050D01*
X366800Y78250D01*
Y83500D02*Y78250D01*
X368600Y83500D02*X371600D01*
X370100D02*Y77500D01*
X374150D02*X376400D01*
X373400Y78250D02*X374150Y77500D01*
X373400Y82750D02*Y78250D01*
Y82750D02*X374150Y83500D01*
X376400D01*
X200000Y97750D02*Y92500D01*
Y97750D02*X200750Y98500D01*
X203000D01*
X203750Y97750D01*
Y92500D01*
X200000Y95500D02*X203750D01*
X205550D02*Y93250D01*
X206300Y92500D01*
X207800D01*
X208550Y93250D01*
Y95500D02*Y93250D01*
X211100Y98500D02*Y93250D01*
X211850Y92500D01*
X210350Y96250D02*X211850D01*
X213350Y98500D02*Y92500D01*
Y94750D02*X214100Y95500D01*
X215600D01*
X216350Y94750D01*
Y92500D01*
X218150Y94750D02*Y93250D01*
Y94750D02*X218900Y95500D01*
X220400D01*
X221150Y94750D01*
Y93250D01*
X220400Y92500D02*X221150Y93250D01*
X218900Y92500D02*X220400D01*
X218150Y93250D02*X218900Y92500D01*
X223700Y94750D02*Y92500D01*
Y94750D02*X224450Y95500D01*
X225950D01*
X222950D02*X223700Y94750D01*
X227750Y96250D02*X228500D01*
X227750Y94750D02*X228500D01*
X233000Y98500D02*Y92500D01*
Y98500D02*X235250Y96250D01*
X237500Y98500D01*
Y92500D01*
X239300Y97000D02*Y96250D01*
Y94750D02*Y92500D01*
X241550Y95500D02*X243800D01*
X240800Y94750D02*X241550Y95500D01*
X240800Y94750D02*Y93250D01*
X241550Y92500D01*
X243800D01*
X245600Y98500D02*Y92500D01*
Y94750D02*X246350Y95500D01*
X247850D01*
X248600Y94750D01*
Y92500D01*
X252650Y95500D02*X253400Y94750D01*
X251150Y95500D02*X252650D01*
X250400Y94750D02*X251150Y95500D01*
X250400Y94750D02*Y93250D01*
X251150Y92500D01*
X253400Y95500D02*Y93250D01*
X254150Y92500D01*
X251150D02*X252650D01*
X253400Y93250D01*
X256700Y92500D02*X258950D01*
X255950Y93250D02*X256700Y92500D01*
X255950Y94750D02*Y93250D01*
Y94750D02*X256700Y95500D01*
X258200D01*
X258950Y94750D01*
X255950Y94000D02*X258950D01*
Y94750D02*Y94000D01*
X260750Y98500D02*Y93250D01*
X261500Y92500D01*
X266450Y98500D02*Y92500D01*
X265700Y98500D02*X268700D01*
X269450Y97750D01*
Y96250D01*
X268700Y95500D02*X269450Y96250D01*
X266450Y95500D02*X268700D01*
X272000Y92500D02*X274250D01*
X271250Y93250D02*X272000Y92500D01*
X271250Y94750D02*Y93250D01*
Y94750D02*X272000Y95500D01*
X273500D01*
X274250Y94750D01*
X271250Y94000D02*X274250D01*
Y94750D02*Y94000D01*
X276800Y98500D02*Y93250D01*
X277550Y92500D01*
X276050Y96250D02*X277550D01*
X279800Y92500D02*X282050D01*
X279050Y93250D02*X279800Y92500D01*
X279050Y94750D02*Y93250D01*
Y94750D02*X279800Y95500D01*
X281300D01*
X282050Y94750D01*
X279050Y94000D02*X282050D01*
Y94750D02*Y94000D01*
X284600Y94750D02*Y92500D01*
Y94750D02*X285350Y95500D01*
X286850D01*
X283850D02*X284600Y94750D01*
X289400Y92500D02*X291650D01*
X292400Y93250D01*
X291650Y94000D02*X292400Y93250D01*
X289400Y94000D02*X291650D01*
X288650Y94750D02*X289400Y94000D01*
X288650Y94750D02*X289400Y95500D01*
X291650D01*
X292400Y94750D01*
X288650Y93250D02*X289400Y92500D01*
X294950D02*X297200D01*
X294200Y93250D02*X294950Y92500D01*
X294200Y94750D02*Y93250D01*
Y94750D02*X294950Y95500D01*
X296450D01*
X297200Y94750D01*
X294200Y94000D02*X297200D01*
Y94750D02*Y94000D01*
X299750Y94750D02*Y92500D01*
Y94750D02*X300500Y95500D01*
X301250D01*
X302000Y94750D01*
Y92500D01*
X299000Y95500D02*X299750Y94750D01*
X200000Y113500D02*X203000D01*
X201500D02*Y107500D01*
X204800Y112000D02*Y111250D01*
Y109750D02*Y107500D01*
X207050Y113500D02*Y108250D01*
X207800Y107500D01*
X206300Y111250D02*X207800D01*
X209300Y113500D02*Y108250D01*
X210050Y107500D01*
X212300D02*X214550D01*
X211550Y108250D02*X212300Y107500D01*
X211550Y109750D02*Y108250D01*
Y109750D02*X212300Y110500D01*
X213800D01*
X214550Y109750D01*
X211550Y109000D02*X214550D01*
Y109750D02*Y109000D01*
X216350Y111250D02*X217100D01*
X216350Y109750D02*X217100D01*
X221600Y108250D02*X222350Y107500D01*
X221600Y112750D02*X222350Y113500D01*
X221600Y112750D02*Y108250D01*
X224150Y110500D02*Y108250D01*
X224900Y107500D01*
X226400D01*
X227150Y108250D01*
Y110500D02*Y108250D01*
X229700Y109750D02*Y107500D01*
Y109750D02*X230450Y110500D01*
X231200D01*
X231950Y109750D01*
Y107500D01*
X228950Y110500D02*X229700Y109750D01*
X233750Y113500D02*Y107500D01*
Y109750D02*X236000Y107500D01*
X233750Y109750D02*X235250Y111250D01*
X238550Y109750D02*Y107500D01*
Y109750D02*X239300Y110500D01*
X240050D01*
X240800Y109750D01*
Y107500D01*
X237800Y110500D02*X238550Y109750D01*
X242600D02*Y108250D01*
Y109750D02*X243350Y110500D01*
X244850D01*
X245600Y109750D01*
Y108250D01*
X244850Y107500D02*X245600Y108250D01*
X243350Y107500D02*X244850D01*
X242600Y108250D02*X243350Y107500D01*
X247400Y110500D02*Y108250D01*
X248150Y107500D01*
X248900D01*
X249650Y108250D01*
Y110500D02*Y108250D01*
X250400Y107500D01*
X251150D01*
X251900Y108250D01*
Y110500D02*Y108250D01*
X254450Y109750D02*Y107500D01*
Y109750D02*X255200Y110500D01*
X255950D01*
X256700Y109750D01*
Y107500D01*
X253700Y110500D02*X254450Y109750D01*
X258500Y113500D02*X259250Y112750D01*
Y108250D01*
X258500Y107500D02*X259250Y108250D01*
X263750Y110500D02*X266750D01*
X271250Y113500D02*Y107500D01*
Y113500D02*X274250D01*
X271250Y110500D02*X273500D01*
X278300D02*X279050Y109750D01*
X276800Y110500D02*X278300D01*
X276050Y109750D02*X276800Y110500D01*
X276050Y109750D02*Y108250D01*
X276800Y107500D01*
X279050Y110500D02*Y108250D01*
X279800Y107500D01*
X276800D02*X278300D01*
X279050Y108250D01*
X281600Y113500D02*Y107500D01*
Y108250D02*X282350Y107500D01*
X283850D01*
X284600Y108250D01*
Y109750D02*Y108250D01*
X283850Y110500D02*X284600Y109750D01*
X282350Y110500D02*X283850D01*
X281600Y109750D02*X282350Y110500D01*
X287150Y109750D02*Y107500D01*
Y109750D02*X287900Y110500D01*
X289400D01*
X286400D02*X287150Y109750D01*
X291200Y112000D02*Y111250D01*
Y109750D02*Y107500D01*
X293450Y110500D02*X295700D01*
X292700Y109750D02*X293450Y110500D01*
X292700Y109750D02*Y108250D01*
X293450Y107500D01*
X295700D01*
X299750Y110500D02*X300500Y109750D01*
X298250Y110500D02*X299750D01*
X297500Y109750D02*X298250Y110500D01*
X297500Y109750D02*Y108250D01*
X298250Y107500D01*
X300500Y110500D02*Y108250D01*
X301250Y107500D01*
X298250D02*X299750D01*
X300500Y108250D01*
X303800Y113500D02*Y108250D01*
X304550Y107500D01*
X303050Y111250D02*X304550D01*
X306050Y112000D02*Y111250D01*
Y109750D02*Y107500D01*
X307550Y109750D02*Y108250D01*
Y109750D02*X308300Y110500D01*
X309800D01*
X310550Y109750D01*
Y108250D01*
X309800Y107500D02*X310550Y108250D01*
X308300Y107500D02*X309800D01*
X307550Y108250D02*X308300Y107500D01*
X313100Y109750D02*Y107500D01*
Y109750D02*X313850Y110500D01*
X314600D01*
X315350Y109750D01*
Y107500D01*
X312350Y110500D02*X313100Y109750D01*
X320600Y113500D02*Y107500D01*
X322850Y113500D02*X323600Y112750D01*
Y108250D01*
X322850Y107500D02*X323600Y108250D01*
X319850Y107500D02*X322850D01*
X319850Y113500D02*X322850D01*
X326150Y109750D02*Y107500D01*
Y109750D02*X326900Y110500D01*
X328400D01*
X325400D02*X326150Y109750D01*
X332450Y110500D02*X333200Y109750D01*
X330950Y110500D02*X332450D01*
X330200Y109750D02*X330950Y110500D01*
X330200Y109750D02*Y108250D01*
X330950Y107500D01*
X333200Y110500D02*Y108250D01*
X333950Y107500D01*
X330950D02*X332450D01*
X333200Y108250D01*
X335750Y110500D02*Y108250D01*
X336500Y107500D01*
X337250D01*
X338000Y108250D01*
Y110500D02*Y108250D01*
X338750Y107500D01*
X339500D01*
X340250Y108250D01*
Y110500D02*Y108250D01*
X342050Y112000D02*Y111250D01*
Y109750D02*Y107500D01*
X344300Y109750D02*Y107500D01*
Y109750D02*X345050Y110500D01*
X345800D01*
X346550Y109750D01*
Y107500D01*
X343550Y110500D02*X344300Y109750D01*
X350600Y110500D02*X351350Y109750D01*
X349100Y110500D02*X350600D01*
X348350Y109750D02*X349100Y110500D01*
X348350Y109750D02*Y108250D01*
X349100Y107500D01*
X350600D01*
X351350Y108250D01*
X348350Y106000D02*X349100Y105250D01*
X350600D01*
X351350Y106000D01*
Y110500D02*Y106000D01*
M02*
