G04 start of page 3 for group 1 idx 1 *
G04 Title: (unknown), solder *
G04 Creator: pcb 20110918 *
G04 CreationDate: Sat 30 Mar 2013 03:35:01 AM GMT UTC *
G04 For: railfan *
G04 Format: Gerber/RS-274X *
G04 PCB-Dimensions: 130000 55000 *
G04 PCB-Coordinate-Origin: lower left *
%MOIN*%
%FSLAX25Y25*%
%LNBOTTOM*%
%ADD28C,0.0380*%
%ADD27C,0.0200*%
%ADD26C,0.0360*%
%ADD25C,0.0600*%
%ADD24C,0.0001*%
G54D24*G36*
X61500Y2500D02*X35000D01*
Y11500D01*
X61500D01*
Y2500D01*
G37*
G36*
X40000Y32000D02*Y47000D01*
X56000D01*
Y32000D01*
X40000D01*
G37*
G36*
X57730Y53500D02*X111500D01*
Y1500D01*
X57730D01*
Y5714D01*
X57798Y5728D01*
X57871Y5755D01*
X57940Y5794D01*
X58002Y5843D01*
X58055Y5901D01*
X58098Y5966D01*
X58130Y6038D01*
X58206Y6271D01*
X58260Y6511D01*
X58292Y6755D01*
X58303Y7000D01*
X58292Y7245D01*
X58260Y7489D01*
X58206Y7729D01*
X58132Y7963D01*
X58100Y8035D01*
X58056Y8100D01*
X58003Y8159D01*
X57941Y8208D01*
X57872Y8246D01*
X57798Y8274D01*
X57730Y8288D01*
Y53500D01*
G37*
G36*
X55501D02*X57730D01*
Y8288D01*
X57721Y8290D01*
X57642Y8293D01*
X57563Y8284D01*
X57487Y8263D01*
X57415Y8230D01*
X57350Y8186D01*
X57291Y8133D01*
X57242Y8071D01*
X57204Y8002D01*
X57176Y7928D01*
X57160Y7851D01*
X57157Y7772D01*
X57166Y7693D01*
X57189Y7618D01*
X57238Y7468D01*
X57272Y7314D01*
X57293Y7158D01*
X57300Y7000D01*
X57293Y6842D01*
X57272Y6686D01*
X57238Y6532D01*
X57190Y6382D01*
X57168Y6306D01*
X57159Y6228D01*
X57162Y6150D01*
X57178Y6073D01*
X57205Y5999D01*
X57244Y5930D01*
X57293Y5869D01*
X57351Y5815D01*
X57416Y5772D01*
X57488Y5739D01*
X57564Y5718D01*
X57642Y5709D01*
X57720Y5712D01*
X57730Y5714D01*
Y1500D01*
X55501D01*
Y4197D01*
X55745Y4208D01*
X55989Y4240D01*
X56229Y4294D01*
X56463Y4368D01*
X56535Y4400D01*
X56600Y4444D01*
X56659Y4497D01*
X56708Y4559D01*
X56746Y4628D01*
X56774Y4702D01*
X56790Y4779D01*
X56793Y4858D01*
X56784Y4937D01*
X56763Y5013D01*
X56730Y5085D01*
X56686Y5150D01*
X56633Y5209D01*
X56571Y5258D01*
X56502Y5296D01*
X56428Y5324D01*
X56351Y5340D01*
X56272Y5343D01*
X56193Y5334D01*
X56118Y5311D01*
X55968Y5262D01*
X55814Y5228D01*
X55658Y5207D01*
X55501Y5200D01*
Y8800D01*
X55658Y8793D01*
X55814Y8772D01*
X55968Y8738D01*
X56118Y8690D01*
X56194Y8668D01*
X56272Y8659D01*
X56350Y8662D01*
X56427Y8678D01*
X56501Y8705D01*
X56570Y8744D01*
X56631Y8793D01*
X56685Y8851D01*
X56728Y8916D01*
X56761Y8988D01*
X56782Y9064D01*
X56791Y9142D01*
X56788Y9220D01*
X56772Y9298D01*
X56745Y9371D01*
X56706Y9440D01*
X56657Y9502D01*
X56599Y9555D01*
X56534Y9598D01*
X56462Y9630D01*
X56229Y9706D01*
X55989Y9760D01*
X55745Y9792D01*
X55501Y9803D01*
Y53500D01*
G37*
G36*
X53000D02*X55501D01*
Y9803D01*
X55500Y9803D01*
X55255Y9792D01*
X55011Y9760D01*
X54771Y9706D01*
X54537Y9632D01*
X54465Y9600D01*
X54400Y9556D01*
X54341Y9503D01*
X54292Y9441D01*
X54254Y9372D01*
X54226Y9298D01*
X54210Y9221D01*
X54207Y9142D01*
X54216Y9063D01*
X54237Y8987D01*
X54270Y8915D01*
X54314Y8850D01*
X54367Y8791D01*
X54429Y8742D01*
X54498Y8704D01*
X54572Y8676D01*
X54649Y8660D01*
X54728Y8657D01*
X54807Y8666D01*
X54882Y8689D01*
X55032Y8738D01*
X55186Y8772D01*
X55342Y8793D01*
X55500Y8800D01*
X55501Y8800D01*
Y5200D01*
X55500Y5200D01*
X55342Y5207D01*
X55186Y5228D01*
X55032Y5262D01*
X54882Y5310D01*
X54806Y5332D01*
X54728Y5341D01*
X54650Y5338D01*
X54573Y5322D01*
X54499Y5295D01*
X54430Y5256D01*
X54369Y5207D01*
X54315Y5149D01*
X54272Y5084D01*
X54239Y5012D01*
X54218Y4936D01*
X54209Y4858D01*
X54212Y4780D01*
X54228Y4702D01*
X54255Y4629D01*
X54294Y4560D01*
X54343Y4498D01*
X54401Y4445D01*
X54466Y4402D01*
X54538Y4370D01*
X54771Y4294D01*
X55011Y4240D01*
X55255Y4208D01*
X55500Y4197D01*
X55501Y4197D01*
Y1500D01*
X53000D01*
Y5839D01*
X53059Y5792D01*
X53128Y5754D01*
X53202Y5726D01*
X53279Y5710D01*
X53358Y5707D01*
X53437Y5716D01*
X53513Y5737D01*
X53585Y5770D01*
X53650Y5814D01*
X53709Y5867D01*
X53758Y5929D01*
X53796Y5998D01*
X53824Y6072D01*
X53840Y6149D01*
X53843Y6228D01*
X53834Y6307D01*
X53811Y6382D01*
X53762Y6532D01*
X53728Y6686D01*
X53707Y6842D01*
X53700Y7000D01*
X53707Y7158D01*
X53728Y7314D01*
X53762Y7468D01*
X53810Y7618D01*
X53832Y7694D01*
X53841Y7772D01*
X53838Y7850D01*
X53822Y7927D01*
X53795Y8001D01*
X53756Y8070D01*
X53707Y8131D01*
X53649Y8185D01*
X53584Y8228D01*
X53512Y8261D01*
X53436Y8282D01*
X53358Y8291D01*
X53280Y8288D01*
X53202Y8272D01*
X53129Y8245D01*
X53060Y8206D01*
X53001Y8160D01*
X53000Y8161D01*
Y53500D01*
G37*
G36*
X52230Y5955D02*X52244Y5930D01*
X52293Y5869D01*
X52351Y5815D01*
X52416Y5772D01*
X52488Y5739D01*
X52564Y5718D01*
X52642Y5709D01*
X52720Y5712D01*
X52798Y5728D01*
X52871Y5755D01*
X52940Y5794D01*
X52999Y5840D01*
X53000Y5839D01*
Y1500D01*
X52230D01*
Y5955D01*
G37*
G36*
Y7493D02*X52238Y7468D01*
X52272Y7314D01*
X52293Y7158D01*
X52300Y7000D01*
X52293Y6842D01*
X52272Y6686D01*
X52238Y6532D01*
X52230Y6506D01*
Y7493D01*
G37*
G36*
Y53500D02*X53000D01*
Y8161D01*
X52941Y8208D01*
X52872Y8246D01*
X52798Y8274D01*
X52721Y8290D01*
X52642Y8293D01*
X52563Y8284D01*
X52487Y8263D01*
X52415Y8230D01*
X52350Y8186D01*
X52291Y8133D01*
X52242Y8071D01*
X52230Y8049D01*
Y36214D01*
X52298Y36228D01*
X52371Y36255D01*
X52440Y36294D01*
X52502Y36343D01*
X52555Y36401D01*
X52598Y36466D01*
X52630Y36538D01*
X52706Y36771D01*
X52760Y37011D01*
X52792Y37255D01*
X52803Y37500D01*
X52792Y37745D01*
X52760Y37989D01*
X52706Y38229D01*
X52632Y38463D01*
X52600Y38535D01*
X52556Y38600D01*
X52503Y38659D01*
X52441Y38708D01*
X52372Y38746D01*
X52298Y38774D01*
X52230Y38788D01*
Y41214D01*
X52298Y41228D01*
X52371Y41255D01*
X52440Y41294D01*
X52502Y41343D01*
X52555Y41401D01*
X52598Y41466D01*
X52630Y41538D01*
X52706Y41771D01*
X52760Y42011D01*
X52792Y42255D01*
X52803Y42500D01*
X52792Y42745D01*
X52760Y42989D01*
X52706Y43229D01*
X52632Y43463D01*
X52600Y43535D01*
X52556Y43600D01*
X52503Y43659D01*
X52441Y43708D01*
X52372Y43746D01*
X52298Y43774D01*
X52230Y43788D01*
Y53500D01*
G37*
G36*
X50501D02*X52230D01*
Y43788D01*
X52221Y43790D01*
X52142Y43793D01*
X52063Y43784D01*
X51987Y43763D01*
X51915Y43730D01*
X51850Y43686D01*
X51791Y43633D01*
X51742Y43571D01*
X51704Y43502D01*
X51676Y43428D01*
X51660Y43351D01*
X51657Y43272D01*
X51666Y43193D01*
X51689Y43118D01*
X51738Y42968D01*
X51772Y42814D01*
X51793Y42658D01*
X51800Y42500D01*
X51793Y42342D01*
X51772Y42186D01*
X51738Y42032D01*
X51690Y41882D01*
X51668Y41806D01*
X51659Y41728D01*
X51662Y41650D01*
X51678Y41573D01*
X51705Y41499D01*
X51744Y41430D01*
X51793Y41369D01*
X51851Y41315D01*
X51916Y41272D01*
X51988Y41239D01*
X52064Y41218D01*
X52142Y41209D01*
X52220Y41212D01*
X52230Y41214D01*
Y38788D01*
X52221Y38790D01*
X52142Y38793D01*
X52063Y38784D01*
X51987Y38763D01*
X51915Y38730D01*
X51850Y38686D01*
X51791Y38633D01*
X51742Y38571D01*
X51704Y38502D01*
X51676Y38428D01*
X51660Y38351D01*
X51657Y38272D01*
X51666Y38193D01*
X51689Y38118D01*
X51738Y37968D01*
X51772Y37814D01*
X51793Y37658D01*
X51800Y37500D01*
X51793Y37342D01*
X51772Y37186D01*
X51738Y37032D01*
X51690Y36882D01*
X51668Y36806D01*
X51659Y36728D01*
X51662Y36650D01*
X51678Y36573D01*
X51705Y36499D01*
X51744Y36430D01*
X51793Y36369D01*
X51851Y36315D01*
X51916Y36272D01*
X51988Y36239D01*
X52064Y36218D01*
X52142Y36209D01*
X52220Y36212D01*
X52230Y36214D01*
Y8049D01*
X52204Y8002D01*
X52176Y7928D01*
X52160Y7851D01*
X52157Y7772D01*
X52166Y7693D01*
X52189Y7618D01*
X52230Y7493D01*
Y6506D01*
X52190Y6382D01*
X52168Y6306D01*
X52159Y6228D01*
X52162Y6150D01*
X52178Y6073D01*
X52205Y5999D01*
X52230Y5955D01*
Y1500D01*
X50501D01*
Y4197D01*
X50745Y4208D01*
X50989Y4240D01*
X51229Y4294D01*
X51463Y4368D01*
X51535Y4400D01*
X51600Y4444D01*
X51659Y4497D01*
X51708Y4559D01*
X51746Y4628D01*
X51774Y4702D01*
X51790Y4779D01*
X51793Y4858D01*
X51784Y4937D01*
X51763Y5013D01*
X51730Y5085D01*
X51686Y5150D01*
X51633Y5209D01*
X51571Y5258D01*
X51502Y5296D01*
X51428Y5324D01*
X51351Y5340D01*
X51272Y5343D01*
X51193Y5334D01*
X51118Y5311D01*
X50968Y5262D01*
X50814Y5228D01*
X50658Y5207D01*
X50501Y5200D01*
Y8800D01*
X50658Y8793D01*
X50814Y8772D01*
X50968Y8738D01*
X51118Y8690D01*
X51194Y8668D01*
X51272Y8659D01*
X51350Y8662D01*
X51427Y8678D01*
X51501Y8705D01*
X51570Y8744D01*
X51631Y8793D01*
X51685Y8851D01*
X51728Y8916D01*
X51761Y8988D01*
X51782Y9064D01*
X51791Y9142D01*
X51788Y9220D01*
X51772Y9298D01*
X51745Y9371D01*
X51706Y9440D01*
X51657Y9502D01*
X51599Y9555D01*
X51534Y9598D01*
X51462Y9630D01*
X51229Y9706D01*
X50989Y9760D01*
X50745Y9792D01*
X50501Y9803D01*
Y34743D01*
X50729Y34794D01*
X50963Y34868D01*
X51035Y34900D01*
X51100Y34944D01*
X51159Y34997D01*
X51208Y35059D01*
X51246Y35128D01*
X51274Y35202D01*
X51290Y35279D01*
X51293Y35358D01*
X51284Y35437D01*
X51263Y35513D01*
X51230Y35585D01*
X51186Y35650D01*
X51133Y35709D01*
X51071Y35758D01*
X51002Y35796D01*
X50928Y35824D01*
X50851Y35840D01*
X50772Y35843D01*
X50693Y35834D01*
X50618Y35811D01*
X50501Y35773D01*
Y39228D01*
X50618Y39190D01*
X50694Y39168D01*
X50772Y39159D01*
X50850Y39162D01*
X50927Y39178D01*
X51001Y39205D01*
X51070Y39244D01*
X51131Y39293D01*
X51185Y39351D01*
X51228Y39416D01*
X51261Y39488D01*
X51282Y39564D01*
X51291Y39642D01*
X51288Y39720D01*
X51272Y39798D01*
X51245Y39871D01*
X51206Y39940D01*
X51160Y39999D01*
X51208Y40059D01*
X51246Y40128D01*
X51274Y40202D01*
X51290Y40279D01*
X51293Y40358D01*
X51284Y40437D01*
X51263Y40513D01*
X51230Y40585D01*
X51186Y40650D01*
X51133Y40709D01*
X51071Y40758D01*
X51002Y40796D01*
X50928Y40824D01*
X50851Y40840D01*
X50772Y40843D01*
X50693Y40834D01*
X50618Y40811D01*
X50501Y40773D01*
Y44228D01*
X50618Y44190D01*
X50694Y44168D01*
X50772Y44159D01*
X50850Y44162D01*
X50927Y44178D01*
X51001Y44205D01*
X51070Y44244D01*
X51131Y44293D01*
X51185Y44351D01*
X51228Y44416D01*
X51261Y44488D01*
X51282Y44564D01*
X51291Y44642D01*
X51288Y44720D01*
X51272Y44798D01*
X51245Y44871D01*
X51206Y44940D01*
X51157Y45002D01*
X51099Y45055D01*
X51034Y45098D01*
X50962Y45130D01*
X50729Y45206D01*
X50501Y45257D01*
Y53500D01*
G37*
G36*
X48000D02*X50501D01*
Y45257D01*
X50489Y45260D01*
X50245Y45292D01*
X50000Y45303D01*
X49755Y45292D01*
X49511Y45260D01*
X49271Y45206D01*
X49037Y45132D01*
X48965Y45100D01*
X48900Y45056D01*
X48841Y45003D01*
X48792Y44941D01*
X48754Y44872D01*
X48726Y44798D01*
X48710Y44721D01*
X48707Y44642D01*
X48716Y44563D01*
X48737Y44487D01*
X48770Y44415D01*
X48814Y44350D01*
X48867Y44291D01*
X48929Y44242D01*
X48998Y44204D01*
X49072Y44176D01*
X49149Y44160D01*
X49228Y44157D01*
X49307Y44166D01*
X49382Y44189D01*
X49532Y44238D01*
X49686Y44272D01*
X49842Y44293D01*
X50000Y44300D01*
X50158Y44293D01*
X50314Y44272D01*
X50468Y44238D01*
X50501Y44228D01*
Y40773D01*
X50468Y40762D01*
X50314Y40728D01*
X50158Y40707D01*
X50000Y40700D01*
X49842Y40707D01*
X49686Y40728D01*
X49532Y40762D01*
X49382Y40810D01*
X49306Y40832D01*
X49228Y40841D01*
X49150Y40838D01*
X49073Y40822D01*
X48999Y40795D01*
X48930Y40756D01*
X48869Y40707D01*
X48815Y40649D01*
X48772Y40584D01*
X48739Y40512D01*
X48718Y40436D01*
X48709Y40358D01*
X48712Y40280D01*
X48728Y40202D01*
X48755Y40129D01*
X48794Y40060D01*
X48840Y40001D01*
X48792Y39941D01*
X48754Y39872D01*
X48726Y39798D01*
X48710Y39721D01*
X48707Y39642D01*
X48716Y39563D01*
X48737Y39487D01*
X48770Y39415D01*
X48814Y39350D01*
X48867Y39291D01*
X48929Y39242D01*
X48998Y39204D01*
X49072Y39176D01*
X49149Y39160D01*
X49228Y39157D01*
X49307Y39166D01*
X49382Y39189D01*
X49532Y39238D01*
X49686Y39272D01*
X49842Y39293D01*
X50000Y39300D01*
X50158Y39293D01*
X50314Y39272D01*
X50468Y39238D01*
X50501Y39228D01*
Y35773D01*
X50468Y35762D01*
X50314Y35728D01*
X50158Y35707D01*
X50000Y35700D01*
X49842Y35707D01*
X49686Y35728D01*
X49532Y35762D01*
X49382Y35810D01*
X49306Y35832D01*
X49228Y35841D01*
X49150Y35838D01*
X49073Y35822D01*
X48999Y35795D01*
X48930Y35756D01*
X48869Y35707D01*
X48815Y35649D01*
X48772Y35584D01*
X48739Y35512D01*
X48718Y35436D01*
X48709Y35358D01*
X48712Y35280D01*
X48728Y35202D01*
X48755Y35129D01*
X48794Y35060D01*
X48843Y34998D01*
X48901Y34945D01*
X48966Y34902D01*
X49038Y34870D01*
X49271Y34794D01*
X49511Y34740D01*
X49755Y34708D01*
X50000Y34697D01*
X50245Y34708D01*
X50489Y34740D01*
X50501Y34743D01*
Y9803D01*
X50500Y9803D01*
X50255Y9792D01*
X50011Y9760D01*
X49771Y9706D01*
X49537Y9632D01*
X49465Y9600D01*
X49400Y9556D01*
X49341Y9503D01*
X49292Y9441D01*
X49254Y9372D01*
X49226Y9298D01*
X49210Y9221D01*
X49207Y9142D01*
X49216Y9063D01*
X49237Y8987D01*
X49270Y8915D01*
X49314Y8850D01*
X49367Y8791D01*
X49429Y8742D01*
X49498Y8704D01*
X49572Y8676D01*
X49649Y8660D01*
X49728Y8657D01*
X49807Y8666D01*
X49882Y8689D01*
X50032Y8738D01*
X50186Y8772D01*
X50342Y8793D01*
X50500Y8800D01*
X50501Y8800D01*
Y5200D01*
X50500Y5200D01*
X50342Y5207D01*
X50186Y5228D01*
X50032Y5262D01*
X49882Y5310D01*
X49806Y5332D01*
X49728Y5341D01*
X49650Y5338D01*
X49573Y5322D01*
X49499Y5295D01*
X49430Y5256D01*
X49369Y5207D01*
X49315Y5149D01*
X49272Y5084D01*
X49239Y5012D01*
X49218Y4936D01*
X49209Y4858D01*
X49212Y4780D01*
X49228Y4702D01*
X49255Y4629D01*
X49294Y4560D01*
X49343Y4498D01*
X49401Y4445D01*
X49466Y4402D01*
X49538Y4370D01*
X49771Y4294D01*
X50011Y4240D01*
X50255Y4208D01*
X50500Y4197D01*
X50501Y4197D01*
Y1500D01*
X48000D01*
Y5839D01*
X48059Y5792D01*
X48128Y5754D01*
X48202Y5726D01*
X48279Y5710D01*
X48358Y5707D01*
X48437Y5716D01*
X48513Y5737D01*
X48585Y5770D01*
X48650Y5814D01*
X48709Y5867D01*
X48758Y5929D01*
X48796Y5998D01*
X48824Y6072D01*
X48840Y6149D01*
X48843Y6228D01*
X48834Y6307D01*
X48811Y6382D01*
X48762Y6532D01*
X48728Y6686D01*
X48707Y6842D01*
X48700Y7000D01*
X48707Y7158D01*
X48728Y7314D01*
X48762Y7468D01*
X48810Y7618D01*
X48832Y7694D01*
X48841Y7772D01*
X48838Y7850D01*
X48822Y7927D01*
X48795Y8001D01*
X48756Y8070D01*
X48707Y8131D01*
X48649Y8185D01*
X48584Y8228D01*
X48512Y8261D01*
X48436Y8282D01*
X48358Y8291D01*
X48280Y8288D01*
X48202Y8272D01*
X48129Y8245D01*
X48060Y8206D01*
X48001Y8160D01*
X48000Y8161D01*
Y36234D01*
X48013Y36237D01*
X48085Y36270D01*
X48150Y36314D01*
X48209Y36367D01*
X48258Y36429D01*
X48296Y36498D01*
X48324Y36572D01*
X48340Y36649D01*
X48343Y36728D01*
X48334Y36807D01*
X48311Y36882D01*
X48262Y37031D01*
X48292Y37255D01*
X48303Y37500D01*
X48292Y37745D01*
X48262Y37969D01*
X48310Y38118D01*
X48332Y38194D01*
X48341Y38272D01*
X48338Y38350D01*
X48322Y38427D01*
X48295Y38501D01*
X48256Y38570D01*
X48207Y38631D01*
X48149Y38685D01*
X48084Y38728D01*
X48012Y38761D01*
X48000Y38764D01*
Y41234D01*
X48013Y41237D01*
X48085Y41270D01*
X48150Y41314D01*
X48209Y41367D01*
X48258Y41429D01*
X48296Y41498D01*
X48324Y41572D01*
X48340Y41649D01*
X48343Y41728D01*
X48334Y41807D01*
X48311Y41882D01*
X48262Y42031D01*
X48292Y42255D01*
X48303Y42500D01*
X48292Y42745D01*
X48262Y42969D01*
X48310Y43118D01*
X48332Y43194D01*
X48341Y43272D01*
X48338Y43350D01*
X48322Y43427D01*
X48295Y43501D01*
X48256Y43570D01*
X48207Y43631D01*
X48149Y43685D01*
X48084Y43728D01*
X48012Y43761D01*
X48000Y43764D01*
Y53500D01*
G37*
G36*
X45501D02*X48000D01*
Y43764D01*
X47936Y43782D01*
X47858Y43791D01*
X47780Y43788D01*
X47754Y43783D01*
X47721Y43790D01*
X47642Y43793D01*
X47563Y43784D01*
X47487Y43763D01*
X47415Y43730D01*
X47350Y43686D01*
X47291Y43633D01*
X47242Y43571D01*
X47204Y43502D01*
X47176Y43428D01*
X47160Y43351D01*
X47157Y43272D01*
X47166Y43193D01*
X47189Y43118D01*
X47238Y42969D01*
X47208Y42745D01*
X47197Y42500D01*
X47208Y42255D01*
X47238Y42031D01*
X47190Y41882D01*
X47168Y41806D01*
X47159Y41728D01*
X47162Y41650D01*
X47178Y41573D01*
X47205Y41499D01*
X47244Y41430D01*
X47293Y41369D01*
X47351Y41315D01*
X47416Y41272D01*
X47488Y41239D01*
X47564Y41218D01*
X47642Y41209D01*
X47720Y41212D01*
X47746Y41217D01*
X47779Y41210D01*
X47858Y41207D01*
X47937Y41216D01*
X48000Y41234D01*
Y38764D01*
X47936Y38782D01*
X47858Y38791D01*
X47780Y38788D01*
X47754Y38783D01*
X47721Y38790D01*
X47642Y38793D01*
X47563Y38784D01*
X47487Y38763D01*
X47415Y38730D01*
X47350Y38686D01*
X47291Y38633D01*
X47242Y38571D01*
X47204Y38502D01*
X47176Y38428D01*
X47160Y38351D01*
X47157Y38272D01*
X47166Y38193D01*
X47189Y38118D01*
X47238Y37969D01*
X47208Y37745D01*
X47197Y37500D01*
X47208Y37255D01*
X47238Y37031D01*
X47190Y36882D01*
X47168Y36806D01*
X47159Y36728D01*
X47162Y36650D01*
X47178Y36573D01*
X47205Y36499D01*
X47244Y36430D01*
X47293Y36369D01*
X47351Y36315D01*
X47416Y36272D01*
X47488Y36239D01*
X47564Y36218D01*
X47642Y36209D01*
X47720Y36212D01*
X47746Y36217D01*
X47779Y36210D01*
X47858Y36207D01*
X47937Y36216D01*
X48000Y36234D01*
Y8161D01*
X47941Y8208D01*
X47872Y8246D01*
X47798Y8274D01*
X47721Y8290D01*
X47642Y8293D01*
X47563Y8284D01*
X47487Y8263D01*
X47415Y8230D01*
X47350Y8186D01*
X47291Y8133D01*
X47242Y8071D01*
X47204Y8002D01*
X47176Y7928D01*
X47160Y7851D01*
X47157Y7772D01*
X47166Y7693D01*
X47189Y7618D01*
X47238Y7468D01*
X47272Y7314D01*
X47293Y7158D01*
X47300Y7000D01*
X47293Y6842D01*
X47272Y6686D01*
X47238Y6532D01*
X47190Y6382D01*
X47168Y6306D01*
X47159Y6228D01*
X47162Y6150D01*
X47178Y6073D01*
X47205Y5999D01*
X47244Y5930D01*
X47293Y5869D01*
X47351Y5815D01*
X47416Y5772D01*
X47488Y5739D01*
X47564Y5718D01*
X47642Y5709D01*
X47720Y5712D01*
X47798Y5728D01*
X47871Y5755D01*
X47940Y5794D01*
X47999Y5840D01*
X48000Y5839D01*
Y1500D01*
X45501D01*
Y4197D01*
X45745Y4208D01*
X45989Y4240D01*
X46229Y4294D01*
X46463Y4368D01*
X46535Y4400D01*
X46600Y4444D01*
X46659Y4497D01*
X46708Y4559D01*
X46746Y4628D01*
X46774Y4702D01*
X46790Y4779D01*
X46793Y4858D01*
X46784Y4937D01*
X46763Y5013D01*
X46730Y5085D01*
X46686Y5150D01*
X46633Y5209D01*
X46571Y5258D01*
X46502Y5296D01*
X46428Y5324D01*
X46351Y5340D01*
X46272Y5343D01*
X46193Y5334D01*
X46118Y5311D01*
X45968Y5262D01*
X45814Y5228D01*
X45658Y5207D01*
X45501Y5200D01*
Y8800D01*
X45658Y8793D01*
X45814Y8772D01*
X45968Y8738D01*
X46118Y8690D01*
X46194Y8668D01*
X46272Y8659D01*
X46350Y8662D01*
X46427Y8678D01*
X46501Y8705D01*
X46570Y8744D01*
X46631Y8793D01*
X46685Y8851D01*
X46728Y8916D01*
X46761Y8988D01*
X46782Y9064D01*
X46791Y9142D01*
X46788Y9220D01*
X46772Y9298D01*
X46745Y9371D01*
X46706Y9440D01*
X46657Y9502D01*
X46599Y9555D01*
X46534Y9598D01*
X46462Y9630D01*
X46229Y9706D01*
X45989Y9760D01*
X45745Y9792D01*
X45501Y9803D01*
Y34697D01*
X45745Y34708D01*
X45989Y34740D01*
X46229Y34794D01*
X46463Y34868D01*
X46535Y34900D01*
X46600Y34944D01*
X46659Y34997D01*
X46708Y35059D01*
X46746Y35128D01*
X46774Y35202D01*
X46790Y35279D01*
X46793Y35358D01*
X46784Y35437D01*
X46763Y35513D01*
X46730Y35585D01*
X46686Y35650D01*
X46633Y35709D01*
X46571Y35758D01*
X46502Y35796D01*
X46428Y35824D01*
X46351Y35840D01*
X46272Y35843D01*
X46193Y35834D01*
X46118Y35811D01*
X45968Y35762D01*
X45814Y35728D01*
X45658Y35707D01*
X45501Y35700D01*
Y39300D01*
X45658Y39293D01*
X45814Y39272D01*
X45968Y39238D01*
X46118Y39190D01*
X46194Y39168D01*
X46272Y39159D01*
X46350Y39162D01*
X46427Y39178D01*
X46501Y39205D01*
X46570Y39244D01*
X46631Y39293D01*
X46685Y39351D01*
X46728Y39416D01*
X46761Y39488D01*
X46782Y39564D01*
X46791Y39642D01*
X46788Y39720D01*
X46772Y39798D01*
X46745Y39871D01*
X46706Y39940D01*
X46660Y39999D01*
X46708Y40059D01*
X46746Y40128D01*
X46774Y40202D01*
X46790Y40279D01*
X46793Y40358D01*
X46784Y40437D01*
X46763Y40513D01*
X46730Y40585D01*
X46686Y40650D01*
X46633Y40709D01*
X46571Y40758D01*
X46502Y40796D01*
X46428Y40824D01*
X46351Y40840D01*
X46272Y40843D01*
X46193Y40834D01*
X46118Y40811D01*
X45968Y40762D01*
X45814Y40728D01*
X45658Y40707D01*
X45501Y40700D01*
Y44300D01*
X45658Y44293D01*
X45814Y44272D01*
X45968Y44238D01*
X46118Y44190D01*
X46194Y44168D01*
X46272Y44159D01*
X46350Y44162D01*
X46427Y44178D01*
X46501Y44205D01*
X46570Y44244D01*
X46631Y44293D01*
X46685Y44351D01*
X46728Y44416D01*
X46761Y44488D01*
X46782Y44564D01*
X46791Y44642D01*
X46788Y44720D01*
X46772Y44798D01*
X46745Y44871D01*
X46706Y44940D01*
X46657Y45002D01*
X46599Y45055D01*
X46534Y45098D01*
X46462Y45130D01*
X46229Y45206D01*
X45989Y45260D01*
X45745Y45292D01*
X45501Y45303D01*
Y53500D01*
G37*
G36*
X43000D02*X45501D01*
Y45303D01*
X45500Y45303D01*
X45255Y45292D01*
X45011Y45260D01*
X44771Y45206D01*
X44537Y45132D01*
X44465Y45100D01*
X44400Y45056D01*
X44341Y45003D01*
X44292Y44941D01*
X44254Y44872D01*
X44226Y44798D01*
X44210Y44721D01*
X44207Y44642D01*
X44216Y44563D01*
X44237Y44487D01*
X44270Y44415D01*
X44314Y44350D01*
X44367Y44291D01*
X44429Y44242D01*
X44498Y44204D01*
X44572Y44176D01*
X44649Y44160D01*
X44728Y44157D01*
X44807Y44166D01*
X44882Y44189D01*
X45032Y44238D01*
X45186Y44272D01*
X45342Y44293D01*
X45500Y44300D01*
X45501Y44300D01*
Y40700D01*
X45500Y40700D01*
X45342Y40707D01*
X45186Y40728D01*
X45032Y40762D01*
X44882Y40810D01*
X44806Y40832D01*
X44728Y40841D01*
X44650Y40838D01*
X44573Y40822D01*
X44499Y40795D01*
X44430Y40756D01*
X44369Y40707D01*
X44315Y40649D01*
X44272Y40584D01*
X44239Y40512D01*
X44218Y40436D01*
X44209Y40358D01*
X44212Y40280D01*
X44228Y40202D01*
X44255Y40129D01*
X44294Y40060D01*
X44340Y40001D01*
X44292Y39941D01*
X44254Y39872D01*
X44226Y39798D01*
X44210Y39721D01*
X44207Y39642D01*
X44216Y39563D01*
X44237Y39487D01*
X44270Y39415D01*
X44314Y39350D01*
X44367Y39291D01*
X44429Y39242D01*
X44498Y39204D01*
X44572Y39176D01*
X44649Y39160D01*
X44728Y39157D01*
X44807Y39166D01*
X44882Y39189D01*
X45032Y39238D01*
X45186Y39272D01*
X45342Y39293D01*
X45500Y39300D01*
X45501Y39300D01*
Y35700D01*
X45500Y35700D01*
X45342Y35707D01*
X45186Y35728D01*
X45032Y35762D01*
X44882Y35810D01*
X44806Y35832D01*
X44728Y35841D01*
X44650Y35838D01*
X44573Y35822D01*
X44499Y35795D01*
X44430Y35756D01*
X44369Y35707D01*
X44315Y35649D01*
X44272Y35584D01*
X44239Y35512D01*
X44218Y35436D01*
X44209Y35358D01*
X44212Y35280D01*
X44228Y35202D01*
X44255Y35129D01*
X44294Y35060D01*
X44343Y34998D01*
X44401Y34945D01*
X44466Y34902D01*
X44538Y34870D01*
X44771Y34794D01*
X45011Y34740D01*
X45255Y34708D01*
X45500Y34697D01*
X45501Y34697D01*
Y9803D01*
X45500Y9803D01*
X45255Y9792D01*
X45011Y9760D01*
X44771Y9706D01*
X44537Y9632D01*
X44465Y9600D01*
X44400Y9556D01*
X44341Y9503D01*
X44292Y9441D01*
X44254Y9372D01*
X44226Y9298D01*
X44210Y9221D01*
X44207Y9142D01*
X44216Y9063D01*
X44237Y8987D01*
X44270Y8915D01*
X44314Y8850D01*
X44367Y8791D01*
X44429Y8742D01*
X44498Y8704D01*
X44572Y8676D01*
X44649Y8660D01*
X44728Y8657D01*
X44807Y8666D01*
X44882Y8689D01*
X45032Y8738D01*
X45186Y8772D01*
X45342Y8793D01*
X45500Y8800D01*
X45501Y8800D01*
Y5200D01*
X45500Y5200D01*
X45342Y5207D01*
X45186Y5228D01*
X45032Y5262D01*
X44882Y5310D01*
X44806Y5332D01*
X44728Y5341D01*
X44650Y5338D01*
X44573Y5322D01*
X44499Y5295D01*
X44430Y5256D01*
X44369Y5207D01*
X44315Y5149D01*
X44272Y5084D01*
X44239Y5012D01*
X44218Y4936D01*
X44209Y4858D01*
X44212Y4780D01*
X44228Y4702D01*
X44255Y4629D01*
X44294Y4560D01*
X44343Y4498D01*
X44401Y4445D01*
X44466Y4402D01*
X44538Y4370D01*
X44771Y4294D01*
X45011Y4240D01*
X45255Y4208D01*
X45500Y4197D01*
X45501Y4197D01*
Y1500D01*
X43000D01*
Y5839D01*
X43059Y5792D01*
X43128Y5754D01*
X43202Y5726D01*
X43279Y5710D01*
X43358Y5707D01*
X43437Y5716D01*
X43513Y5737D01*
X43585Y5770D01*
X43650Y5814D01*
X43709Y5867D01*
X43758Y5929D01*
X43796Y5998D01*
X43824Y6072D01*
X43840Y6149D01*
X43843Y6228D01*
X43834Y6307D01*
X43811Y6382D01*
X43762Y6532D01*
X43728Y6686D01*
X43707Y6842D01*
X43700Y7000D01*
X43707Y7158D01*
X43728Y7314D01*
X43762Y7468D01*
X43810Y7618D01*
X43832Y7694D01*
X43841Y7772D01*
X43838Y7850D01*
X43822Y7927D01*
X43795Y8001D01*
X43756Y8070D01*
X43707Y8131D01*
X43649Y8185D01*
X43584Y8228D01*
X43512Y8261D01*
X43436Y8282D01*
X43358Y8291D01*
X43280Y8288D01*
X43202Y8272D01*
X43129Y8245D01*
X43060Y8206D01*
X43001Y8160D01*
X43000Y8161D01*
Y36339D01*
X43059Y36292D01*
X43128Y36254D01*
X43202Y36226D01*
X43279Y36210D01*
X43358Y36207D01*
X43437Y36216D01*
X43513Y36237D01*
X43585Y36270D01*
X43650Y36314D01*
X43709Y36367D01*
X43758Y36429D01*
X43796Y36498D01*
X43824Y36572D01*
X43840Y36649D01*
X43843Y36728D01*
X43834Y36807D01*
X43811Y36882D01*
X43762Y37032D01*
X43728Y37186D01*
X43707Y37342D01*
X43700Y37500D01*
X43707Y37658D01*
X43728Y37814D01*
X43762Y37968D01*
X43810Y38118D01*
X43832Y38194D01*
X43841Y38272D01*
X43838Y38350D01*
X43822Y38427D01*
X43795Y38501D01*
X43756Y38570D01*
X43707Y38631D01*
X43649Y38685D01*
X43584Y38728D01*
X43512Y38761D01*
X43436Y38782D01*
X43358Y38791D01*
X43280Y38788D01*
X43202Y38772D01*
X43129Y38745D01*
X43060Y38706D01*
X43000Y38659D01*
Y41339D01*
X43059Y41292D01*
X43128Y41254D01*
X43202Y41226D01*
X43279Y41210D01*
X43358Y41207D01*
X43437Y41216D01*
X43513Y41237D01*
X43585Y41270D01*
X43650Y41314D01*
X43709Y41367D01*
X43758Y41429D01*
X43796Y41498D01*
X43824Y41572D01*
X43840Y41649D01*
X43843Y41728D01*
X43834Y41807D01*
X43811Y41882D01*
X43762Y42032D01*
X43728Y42186D01*
X43707Y42342D01*
X43700Y42500D01*
X43707Y42658D01*
X43728Y42814D01*
X43762Y42968D01*
X43810Y43118D01*
X43832Y43194D01*
X43841Y43272D01*
X43838Y43350D01*
X43822Y43427D01*
X43795Y43501D01*
X43756Y43570D01*
X43707Y43631D01*
X43649Y43685D01*
X43584Y43728D01*
X43512Y43761D01*
X43436Y43782D01*
X43358Y43791D01*
X43280Y43788D01*
X43202Y43772D01*
X43129Y43745D01*
X43060Y43706D01*
X43000Y43659D01*
Y53500D01*
G37*
G36*
X40501D02*X43000D01*
Y43659D01*
X42998Y43657D01*
X42945Y43599D01*
X42902Y43534D01*
X42870Y43462D01*
X42794Y43229D01*
X42740Y42989D01*
X42708Y42745D01*
X42697Y42500D01*
X42708Y42255D01*
X42740Y42011D01*
X42794Y41771D01*
X42868Y41537D01*
X42900Y41465D01*
X42944Y41400D01*
X42997Y41341D01*
X43000Y41339D01*
Y38659D01*
X42998Y38657D01*
X42945Y38599D01*
X42902Y38534D01*
X42870Y38462D01*
X42794Y38229D01*
X42740Y37989D01*
X42708Y37745D01*
X42697Y37500D01*
X42708Y37255D01*
X42740Y37011D01*
X42794Y36771D01*
X42868Y36537D01*
X42900Y36465D01*
X42944Y36400D01*
X42997Y36341D01*
X43000Y36339D01*
Y8161D01*
X42941Y8208D01*
X42872Y8246D01*
X42798Y8274D01*
X42721Y8290D01*
X42642Y8293D01*
X42563Y8284D01*
X42487Y8263D01*
X42415Y8230D01*
X42350Y8186D01*
X42291Y8133D01*
X42242Y8071D01*
X42204Y8002D01*
X42176Y7928D01*
X42160Y7851D01*
X42157Y7772D01*
X42166Y7693D01*
X42189Y7618D01*
X42238Y7468D01*
X42272Y7314D01*
X42293Y7158D01*
X42300Y7000D01*
X42293Y6842D01*
X42272Y6686D01*
X42238Y6532D01*
X42190Y6382D01*
X42168Y6306D01*
X42159Y6228D01*
X42162Y6150D01*
X42178Y6073D01*
X42205Y5999D01*
X42244Y5930D01*
X42293Y5869D01*
X42351Y5815D01*
X42416Y5772D01*
X42488Y5739D01*
X42564Y5718D01*
X42642Y5709D01*
X42720Y5712D01*
X42798Y5728D01*
X42871Y5755D01*
X42940Y5794D01*
X42999Y5840D01*
X43000Y5839D01*
Y1500D01*
X40501D01*
Y4197D01*
X40745Y4208D01*
X40989Y4240D01*
X41229Y4294D01*
X41463Y4368D01*
X41535Y4400D01*
X41600Y4444D01*
X41659Y4497D01*
X41708Y4559D01*
X41746Y4628D01*
X41774Y4702D01*
X41790Y4779D01*
X41793Y4858D01*
X41784Y4937D01*
X41763Y5013D01*
X41730Y5085D01*
X41686Y5150D01*
X41633Y5209D01*
X41571Y5258D01*
X41502Y5296D01*
X41428Y5324D01*
X41351Y5340D01*
X41272Y5343D01*
X41193Y5334D01*
X41118Y5311D01*
X40968Y5262D01*
X40814Y5228D01*
X40658Y5207D01*
X40501Y5200D01*
Y8800D01*
X40658Y8793D01*
X40814Y8772D01*
X40968Y8738D01*
X41118Y8690D01*
X41194Y8668D01*
X41272Y8659D01*
X41350Y8662D01*
X41427Y8678D01*
X41501Y8705D01*
X41570Y8744D01*
X41631Y8793D01*
X41685Y8851D01*
X41728Y8916D01*
X41761Y8988D01*
X41782Y9064D01*
X41791Y9142D01*
X41788Y9220D01*
X41772Y9298D01*
X41745Y9371D01*
X41706Y9440D01*
X41657Y9502D01*
X41599Y9555D01*
X41534Y9598D01*
X41462Y9630D01*
X41229Y9706D01*
X40989Y9760D01*
X40745Y9792D01*
X40501Y9803D01*
Y53500D01*
G37*
G36*
X38270D02*X40501D01*
Y9803D01*
X40500Y9803D01*
X40255Y9792D01*
X40011Y9760D01*
X39771Y9706D01*
X39537Y9632D01*
X39465Y9600D01*
X39400Y9556D01*
X39341Y9503D01*
X39292Y9441D01*
X39254Y9372D01*
X39226Y9298D01*
X39210Y9221D01*
X39207Y9142D01*
X39216Y9063D01*
X39237Y8987D01*
X39270Y8915D01*
X39314Y8850D01*
X39367Y8791D01*
X39429Y8742D01*
X39498Y8704D01*
X39572Y8676D01*
X39649Y8660D01*
X39728Y8657D01*
X39807Y8666D01*
X39882Y8689D01*
X40032Y8738D01*
X40186Y8772D01*
X40342Y8793D01*
X40500Y8800D01*
X40501Y8800D01*
Y5200D01*
X40500Y5200D01*
X40342Y5207D01*
X40186Y5228D01*
X40032Y5262D01*
X39882Y5310D01*
X39806Y5332D01*
X39728Y5341D01*
X39650Y5338D01*
X39573Y5322D01*
X39499Y5295D01*
X39430Y5256D01*
X39369Y5207D01*
X39315Y5149D01*
X39272Y5084D01*
X39239Y5012D01*
X39218Y4936D01*
X39209Y4858D01*
X39212Y4780D01*
X39228Y4702D01*
X39255Y4629D01*
X39294Y4560D01*
X39343Y4498D01*
X39401Y4445D01*
X39466Y4402D01*
X39538Y4370D01*
X39771Y4294D01*
X40011Y4240D01*
X40255Y4208D01*
X40500Y4197D01*
X40501Y4197D01*
Y1500D01*
X38270D01*
Y5712D01*
X38279Y5710D01*
X38358Y5707D01*
X38437Y5716D01*
X38513Y5737D01*
X38585Y5770D01*
X38650Y5814D01*
X38709Y5867D01*
X38758Y5929D01*
X38796Y5998D01*
X38824Y6072D01*
X38840Y6149D01*
X38843Y6228D01*
X38834Y6307D01*
X38811Y6382D01*
X38762Y6532D01*
X38728Y6686D01*
X38707Y6842D01*
X38700Y7000D01*
X38707Y7158D01*
X38728Y7314D01*
X38762Y7468D01*
X38810Y7618D01*
X38832Y7694D01*
X38841Y7772D01*
X38838Y7850D01*
X38822Y7927D01*
X38795Y8001D01*
X38756Y8070D01*
X38707Y8131D01*
X38649Y8185D01*
X38584Y8228D01*
X38512Y8261D01*
X38436Y8282D01*
X38358Y8291D01*
X38280Y8288D01*
X38270Y8286D01*
Y53500D01*
G37*
G36*
X13613D02*X38270D01*
Y8286D01*
X38202Y8272D01*
X38129Y8245D01*
X38060Y8206D01*
X37998Y8157D01*
X37945Y8099D01*
X37902Y8034D01*
X37870Y7962D01*
X37794Y7729D01*
X37740Y7489D01*
X37708Y7245D01*
X37697Y7000D01*
X37708Y6755D01*
X37740Y6511D01*
X37794Y6271D01*
X37868Y6037D01*
X37900Y5965D01*
X37944Y5900D01*
X37997Y5841D01*
X38059Y5792D01*
X38128Y5754D01*
X38202Y5726D01*
X38270Y5712D01*
Y1500D01*
X13613D01*
Y13130D01*
X13683Y13159D01*
X13884Y13283D01*
X14064Y13436D01*
X14217Y13616D01*
X14341Y13817D01*
X14431Y14035D01*
X14486Y14265D01*
X14500Y14500D01*
X14486Y20735D01*
X14431Y20965D01*
X14341Y21183D01*
X14217Y21384D01*
X14064Y21564D01*
X13884Y21717D01*
X13683Y21841D01*
X13613Y21870D01*
Y25353D01*
X13656Y25360D01*
X13768Y25397D01*
X13873Y25452D01*
X13968Y25522D01*
X14051Y25606D01*
X14119Y25702D01*
X14170Y25808D01*
X14318Y26216D01*
X14422Y26637D01*
X14484Y27067D01*
X14505Y27500D01*
X14484Y27933D01*
X14422Y28363D01*
X14318Y28784D01*
X14175Y29194D01*
X14122Y29300D01*
X14053Y29396D01*
X13970Y29481D01*
X13875Y29551D01*
X13769Y29606D01*
X13657Y29643D01*
X13613Y29651D01*
Y34802D01*
X13652Y34847D01*
X14022Y35451D01*
X14293Y36105D01*
X14458Y36794D01*
X14500Y37500D01*
X14458Y38206D01*
X14293Y38895D01*
X14022Y39549D01*
X13652Y40153D01*
X13613Y40198D01*
Y53500D01*
G37*
G36*
Y21870D02*X13465Y21931D01*
X13235Y21986D01*
X13000Y22000D01*
X10000Y21993D01*
Y22995D01*
X10433Y23016D01*
X10863Y23078D01*
X11284Y23182D01*
X11694Y23325D01*
X11800Y23378D01*
X11896Y23447D01*
X11981Y23530D01*
X12051Y23625D01*
X12106Y23731D01*
X12143Y23843D01*
X12163Y23960D01*
X12164Y24079D01*
X12146Y24196D01*
X12110Y24309D01*
X12057Y24415D01*
X11988Y24512D01*
X11905Y24596D01*
X11809Y24667D01*
X11704Y24721D01*
X11592Y24759D01*
X11475Y24778D01*
X11356Y24779D01*
X11239Y24761D01*
X11126Y24723D01*
X10855Y24624D01*
X10575Y24556D01*
X10289Y24514D01*
X10000Y24500D01*
Y30500D01*
X10289Y30486D01*
X10575Y30444D01*
X10855Y30376D01*
X11128Y30280D01*
X11239Y30242D01*
X11356Y30225D01*
X11474Y30225D01*
X11591Y30245D01*
X11703Y30282D01*
X11807Y30336D01*
X11902Y30406D01*
X11985Y30491D01*
X12054Y30587D01*
X12107Y30692D01*
X12143Y30805D01*
X12160Y30921D01*
X12159Y31039D01*
X12140Y31156D01*
X12103Y31268D01*
X12048Y31373D01*
X11978Y31468D01*
X11894Y31551D01*
X11798Y31619D01*
X11692Y31670D01*
X11284Y31818D01*
X10863Y31922D01*
X10433Y31984D01*
X10000Y32005D01*
Y32986D01*
X10706Y33042D01*
X11395Y33207D01*
X12049Y33478D01*
X12653Y33848D01*
X13192Y34308D01*
X13613Y34802D01*
Y29651D01*
X13540Y29663D01*
X13421Y29664D01*
X13304Y29646D01*
X13191Y29610D01*
X13085Y29557D01*
X12988Y29488D01*
X12904Y29405D01*
X12833Y29309D01*
X12779Y29204D01*
X12741Y29092D01*
X12722Y28975D01*
X12721Y28856D01*
X12739Y28739D01*
X12777Y28626D01*
X12876Y28355D01*
X12944Y28075D01*
X12986Y27789D01*
X13000Y27500D01*
X12986Y27211D01*
X12944Y26925D01*
X12876Y26645D01*
X12780Y26372D01*
X12742Y26261D01*
X12725Y26144D01*
X12725Y26026D01*
X12745Y25909D01*
X12782Y25797D01*
X12836Y25693D01*
X12906Y25598D01*
X12991Y25515D01*
X13087Y25446D01*
X13192Y25393D01*
X13305Y25357D01*
X13421Y25340D01*
X13539Y25341D01*
X13613Y25353D01*
Y21870D01*
G37*
G36*
Y1500D02*X10000D01*
Y13007D01*
X13235Y13014D01*
X13465Y13069D01*
X13613Y13130D01*
Y1500D01*
G37*
G36*
X10000Y53500D02*X13613D01*
Y40198D01*
X13192Y40692D01*
X12653Y41152D01*
X12049Y41522D01*
X11395Y41793D01*
X10706Y41958D01*
X10000Y42014D01*
Y53500D01*
G37*
G36*
X6387Y13130D02*X6535Y13069D01*
X6765Y13014D01*
X7000Y13000D01*
X10000Y13007D01*
Y1500D01*
X6387D01*
Y13130D01*
G37*
G36*
Y34802D02*X6808Y34308D01*
X7347Y33848D01*
X7951Y33478D01*
X8605Y33207D01*
X9294Y33042D01*
X10000Y32986D01*
Y32005D01*
X9567Y31984D01*
X9137Y31922D01*
X8716Y31818D01*
X8306Y31675D01*
X8200Y31622D01*
X8104Y31553D01*
X8019Y31470D01*
X7949Y31375D01*
X7894Y31269D01*
X7857Y31157D01*
X7837Y31040D01*
X7836Y30921D01*
X7854Y30804D01*
X7890Y30691D01*
X7943Y30585D01*
X8012Y30488D01*
X8095Y30404D01*
X8191Y30333D01*
X8296Y30279D01*
X8408Y30241D01*
X8525Y30222D01*
X8644Y30221D01*
X8761Y30239D01*
X8874Y30277D01*
X9145Y30376D01*
X9425Y30444D01*
X9711Y30486D01*
X10000Y30500D01*
Y24500D01*
X9711Y24514D01*
X9425Y24556D01*
X9145Y24624D01*
X8872Y24720D01*
X8761Y24758D01*
X8644Y24775D01*
X8526Y24775D01*
X8409Y24755D01*
X8297Y24718D01*
X8193Y24664D01*
X8098Y24594D01*
X8015Y24509D01*
X7946Y24413D01*
X7893Y24308D01*
X7857Y24195D01*
X7840Y24079D01*
X7841Y23961D01*
X7860Y23844D01*
X7897Y23732D01*
X7952Y23627D01*
X8022Y23532D01*
X8106Y23449D01*
X8202Y23381D01*
X8308Y23330D01*
X8716Y23182D01*
X9137Y23078D01*
X9567Y23016D01*
X10000Y22995D01*
X10000D01*
Y21993D01*
X6765Y21986D01*
X6535Y21931D01*
X6387Y21870D01*
Y25349D01*
X6460Y25337D01*
X6579Y25336D01*
X6696Y25354D01*
X6809Y25390D01*
X6915Y25443D01*
X7012Y25512D01*
X7096Y25595D01*
X7167Y25691D01*
X7221Y25796D01*
X7259Y25908D01*
X7278Y26025D01*
X7279Y26144D01*
X7261Y26261D01*
X7223Y26374D01*
X7124Y26645D01*
X7056Y26925D01*
X7014Y27211D01*
X7000Y27500D01*
X7014Y27789D01*
X7056Y28075D01*
X7124Y28355D01*
X7220Y28628D01*
X7258Y28739D01*
X7275Y28856D01*
X7275Y28974D01*
X7255Y29091D01*
X7218Y29203D01*
X7164Y29307D01*
X7094Y29402D01*
X7009Y29485D01*
X6913Y29554D01*
X6808Y29607D01*
X6695Y29643D01*
X6579Y29660D01*
X6461Y29659D01*
X6387Y29647D01*
Y34802D01*
G37*
G36*
Y53500D02*X10000D01*
Y42014D01*
X9294Y41958D01*
X8605Y41793D01*
X7951Y41522D01*
X7347Y41152D01*
X6808Y40692D01*
X6387Y40198D01*
Y53500D01*
G37*
G36*
X2000Y1500D02*Y53500D01*
X6387D01*
Y40198D01*
X6348Y40153D01*
X5978Y39549D01*
X5707Y38895D01*
X5542Y38206D01*
X5486Y37500D01*
X5542Y36794D01*
X5707Y36105D01*
X5978Y35451D01*
X6348Y34847D01*
X6387Y34802D01*
Y29647D01*
X6344Y29640D01*
X6232Y29603D01*
X6127Y29548D01*
X6032Y29478D01*
X5949Y29394D01*
X5881Y29298D01*
X5830Y29192D01*
X5682Y28784D01*
X5578Y28363D01*
X5516Y27933D01*
X5495Y27500D01*
X5516Y27067D01*
X5578Y26637D01*
X5682Y26216D01*
X5825Y25806D01*
X5878Y25700D01*
X5947Y25604D01*
X6030Y25519D01*
X6125Y25449D01*
X6231Y25394D01*
X6343Y25357D01*
X6387Y25349D01*
Y21870D01*
X6317Y21841D01*
X6116Y21717D01*
X5936Y21564D01*
X5783Y21384D01*
X5659Y21183D01*
X5569Y20965D01*
X5514Y20735D01*
X5500Y20500D01*
X5514Y14265D01*
X5569Y14035D01*
X5659Y13817D01*
X5783Y13616D01*
X5936Y13436D01*
X6116Y13283D01*
X6317Y13159D01*
X6387Y13130D01*
Y1500D01*
X2000D01*
G37*
G36*
X7000Y20500D02*Y14500D01*
X13000D01*
Y20500D01*
X7000D01*
G37*
G54D25*X10000Y27500D03*
Y37500D03*
G54D26*X50500Y7000D03*
X55500D03*
X40500D03*
X45500D03*
X50000Y42500D03*
Y37500D03*
X45500D03*
Y42500D03*
G54D27*G54D28*M02*
