M48
INCH
T30C0.020
T29C0.038
%
T30
X004400Y003200
X003900Y003200
X004900Y003200
X004400Y002700
X003250Y003850
X003650Y004250
X003250Y004250
X006550Y004250
X006550Y003800
X006150Y003800
X006550Y003350
X006150Y003350
X006150Y004250
X004400Y002200
X003600Y000550
X003250Y000750
X003250Y000350
X005900Y000700
X006000Y000300
X005600Y000400
T29
X000550Y001300
X000550Y002300
X000550Y003300
M30
