G04 start of page 2 for group 0 idx 0 *
G04 Title: (unknown), component *
G04 Creator: pcb 20110918 *
G04 CreationDate: Tue 09 Apr 2013 04:13:52 PM GMT UTC *
G04 For: railfan *
G04 Format: Gerber/RS-274X *
G04 PCB-Dimensions: 70000 46000 *
G04 PCB-Coordinate-Origin: lower left *
%MOIN*%
%FSLAX25Y25*%
%LNTOP*%
%ADD22C,0.0380*%
%ADD21C,0.0360*%
%ADD20R,0.0660X0.0660*%
%ADD19R,0.0100X0.0100*%
%ADD18R,0.0117X0.0117*%
%ADD17R,0.0512X0.0512*%
%ADD16C,0.0600*%
%ADD15C,0.0300*%
%ADD14C,0.0150*%
%ADD13C,0.0200*%
%ADD12C,0.0100*%
%ADD11C,0.0001*%
G54D11*G36*
X9500Y45000D02*X18000D01*
Y22500D01*
X9970D01*
X10000Y23000D01*
X9958Y23706D01*
X9793Y24395D01*
X9522Y25049D01*
X9500Y25085D01*
Y31055D01*
X9551Y31106D01*
X9619Y31202D01*
X9670Y31308D01*
X9818Y31716D01*
X9922Y32137D01*
X9984Y32567D01*
X10005Y33000D01*
X9984Y33433D01*
X9922Y33863D01*
X9818Y34284D01*
X9675Y34694D01*
X9622Y34800D01*
X9553Y34896D01*
X9500Y34950D01*
Y45000D01*
G37*
G36*
X9113D02*X12000D01*
Y22500D01*
X9970D01*
X10000Y23000D01*
X9958Y23706D01*
X9793Y24395D01*
X9522Y25049D01*
X9152Y25653D01*
X9113Y25698D01*
Y30853D01*
X9156Y30860D01*
X9268Y30897D01*
X9373Y30952D01*
X9468Y31022D01*
X9551Y31106D01*
X9619Y31202D01*
X9670Y31308D01*
X9818Y31716D01*
X9922Y32137D01*
X9984Y32567D01*
X10005Y33000D01*
X9984Y33433D01*
X9922Y33863D01*
X9818Y34284D01*
X9675Y34694D01*
X9622Y34800D01*
X9553Y34896D01*
X9470Y34981D01*
X9375Y35051D01*
X9269Y35106D01*
X9157Y35143D01*
X9113Y35151D01*
Y45000D01*
G37*
G36*
X5502D02*X9113D01*
Y35151D01*
X9040Y35163D01*
X8921Y35164D01*
X8804Y35146D01*
X8691Y35110D01*
X8585Y35057D01*
X8488Y34988D01*
X8404Y34905D01*
X8333Y34809D01*
X8279Y34704D01*
X8241Y34592D01*
X8222Y34475D01*
X8221Y34356D01*
X8239Y34239D01*
X8277Y34126D01*
X8376Y33855D01*
X8444Y33575D01*
X8486Y33289D01*
X8500Y33000D01*
X8486Y32711D01*
X8444Y32425D01*
X8376Y32145D01*
X8280Y31872D01*
X8242Y31761D01*
X8225Y31644D01*
X8225Y31526D01*
X8245Y31409D01*
X8282Y31297D01*
X8336Y31193D01*
X8406Y31098D01*
X8491Y31015D01*
X8587Y30946D01*
X8692Y30893D01*
X8805Y30857D01*
X8921Y30840D01*
X9039Y30841D01*
X9113Y30853D01*
Y25698D01*
X8692Y26192D01*
X8153Y26652D01*
X7549Y27022D01*
X6895Y27293D01*
X6206Y27458D01*
X5502Y27514D01*
Y28495D01*
X5933Y28516D01*
X6363Y28578D01*
X6784Y28682D01*
X7194Y28825D01*
X7300Y28878D01*
X7396Y28947D01*
X7481Y29030D01*
X7551Y29125D01*
X7606Y29231D01*
X7643Y29343D01*
X7663Y29460D01*
X7664Y29579D01*
X7646Y29696D01*
X7610Y29809D01*
X7557Y29915D01*
X7488Y30012D01*
X7405Y30096D01*
X7309Y30167D01*
X7204Y30221D01*
X7092Y30259D01*
X6975Y30278D01*
X6856Y30279D01*
X6739Y30261D01*
X6626Y30223D01*
X6355Y30124D01*
X6075Y30056D01*
X5789Y30014D01*
X5502Y30000D01*
Y36000D01*
X5789Y35986D01*
X6075Y35944D01*
X6355Y35876D01*
X6628Y35780D01*
X6739Y35742D01*
X6856Y35725D01*
X6974Y35725D01*
X7091Y35745D01*
X7203Y35782D01*
X7307Y35836D01*
X7402Y35906D01*
X7485Y35991D01*
X7554Y36087D01*
X7607Y36192D01*
X7643Y36305D01*
X7660Y36421D01*
X7659Y36539D01*
X7640Y36656D01*
X7603Y36768D01*
X7548Y36873D01*
X7478Y36968D01*
X7394Y37051D01*
X7298Y37119D01*
X7192Y37170D01*
X6784Y37318D01*
X6363Y37422D01*
X5933Y37484D01*
X5502Y37505D01*
Y45000D01*
G37*
G36*
X1500D02*X5502D01*
Y37505D01*
X5500Y37505D01*
X5067Y37484D01*
X4637Y37422D01*
X4216Y37318D01*
X3806Y37175D01*
X3700Y37122D01*
X3604Y37053D01*
X3519Y36970D01*
X3449Y36875D01*
X3394Y36769D01*
X3357Y36657D01*
X3337Y36540D01*
X3336Y36421D01*
X3354Y36304D01*
X3390Y36191D01*
X3443Y36085D01*
X3512Y35988D01*
X3595Y35904D01*
X3691Y35833D01*
X3796Y35779D01*
X3908Y35741D01*
X4025Y35722D01*
X4144Y35721D01*
X4261Y35739D01*
X4374Y35777D01*
X4645Y35876D01*
X4925Y35944D01*
X5211Y35986D01*
X5500Y36000D01*
X5502Y36000D01*
Y30000D01*
X5500Y30000D01*
X5211Y30014D01*
X4925Y30056D01*
X4645Y30124D01*
X4372Y30220D01*
X4261Y30258D01*
X4144Y30275D01*
X4026Y30275D01*
X3909Y30255D01*
X3797Y30218D01*
X3693Y30164D01*
X3598Y30094D01*
X3515Y30009D01*
X3446Y29913D01*
X3393Y29808D01*
X3357Y29695D01*
X3340Y29579D01*
X3341Y29461D01*
X3360Y29344D01*
X3397Y29232D01*
X3452Y29127D01*
X3522Y29032D01*
X3606Y28949D01*
X3702Y28881D01*
X3808Y28830D01*
X4216Y28682D01*
X4637Y28578D01*
X5067Y28516D01*
X5500Y28495D01*
X5502Y28495D01*
Y27514D01*
X5500Y27514D01*
X5324Y27500D01*
X1500D01*
Y31050D01*
X1530Y31019D01*
X1625Y30949D01*
X1731Y30894D01*
X1843Y30857D01*
X1960Y30837D01*
X2079Y30836D01*
X2196Y30854D01*
X2309Y30890D01*
X2415Y30943D01*
X2512Y31012D01*
X2596Y31095D01*
X2667Y31191D01*
X2721Y31296D01*
X2759Y31408D01*
X2778Y31525D01*
X2779Y31644D01*
X2761Y31761D01*
X2723Y31874D01*
X2624Y32145D01*
X2556Y32425D01*
X2514Y32711D01*
X2500Y33000D01*
X2514Y33289D01*
X2556Y33575D01*
X2624Y33855D01*
X2720Y34128D01*
X2758Y34239D01*
X2775Y34356D01*
X2775Y34474D01*
X2755Y34591D01*
X2718Y34703D01*
X2664Y34807D01*
X2594Y34902D01*
X2509Y34985D01*
X2413Y35054D01*
X2308Y35107D01*
X2195Y35143D01*
X2079Y35160D01*
X1961Y35159D01*
X1844Y35140D01*
X1732Y35103D01*
X1627Y35048D01*
X1532Y34978D01*
X1500Y34945D01*
Y45000D01*
G37*
G36*
X13000Y12500D02*Y19500D01*
X25500D01*
X31000Y14000D01*
Y12500D01*
X13000D01*
G37*
G36*
X35500Y14000D02*Y11000D01*
X13000D01*
Y14000D01*
X35500D01*
G37*
G36*
X9113Y19500D02*X18500D01*
Y1000D01*
X9113D01*
Y10853D01*
X9156Y10860D01*
X9268Y10897D01*
X9373Y10952D01*
X9468Y11022D01*
X9551Y11106D01*
X9619Y11202D01*
X9670Y11308D01*
X9818Y11716D01*
X9922Y12137D01*
X9984Y12567D01*
X10005Y13000D01*
X9984Y13433D01*
X9922Y13863D01*
X9818Y14284D01*
X9675Y14694D01*
X9622Y14800D01*
X9553Y14896D01*
X9470Y14981D01*
X9375Y15051D01*
X9269Y15106D01*
X9157Y15143D01*
X9113Y15151D01*
Y19500D01*
G37*
G36*
X8331D02*X9113D01*
Y15151D01*
X9040Y15163D01*
X8921Y15164D01*
X8804Y15146D01*
X8691Y15110D01*
X8585Y15057D01*
X8488Y14988D01*
X8404Y14905D01*
X8333Y14809D01*
X8279Y14704D01*
X8241Y14592D01*
X8222Y14475D01*
X8221Y14356D01*
X8239Y14239D01*
X8277Y14126D01*
X8376Y13855D01*
X8444Y13575D01*
X8486Y13289D01*
X8500Y13000D01*
X8486Y12711D01*
X8444Y12425D01*
X8376Y12145D01*
X8280Y11872D01*
X8242Y11761D01*
X8225Y11644D01*
X8225Y11526D01*
X8245Y11409D01*
X8282Y11297D01*
X8336Y11193D01*
X8406Y11098D01*
X8491Y11015D01*
X8587Y10946D01*
X8692Y10893D01*
X8805Y10857D01*
X8921Y10840D01*
X9039Y10841D01*
X9113Y10853D01*
Y1000D01*
X5502D01*
Y8495D01*
X5933Y8516D01*
X6363Y8578D01*
X6784Y8682D01*
X7194Y8825D01*
X7300Y8878D01*
X7396Y8947D01*
X7481Y9030D01*
X7551Y9125D01*
X7606Y9231D01*
X7643Y9343D01*
X7663Y9460D01*
X7664Y9579D01*
X7646Y9696D01*
X7610Y9809D01*
X7557Y9915D01*
X7488Y10012D01*
X7405Y10096D01*
X7309Y10167D01*
X7204Y10221D01*
X7092Y10259D01*
X6975Y10278D01*
X6856Y10279D01*
X6739Y10261D01*
X6626Y10223D01*
X6355Y10124D01*
X6075Y10056D01*
X5789Y10014D01*
X5502Y10000D01*
Y16000D01*
X5789Y15986D01*
X6075Y15944D01*
X6355Y15876D01*
X6628Y15780D01*
X6739Y15742D01*
X6856Y15725D01*
X6974Y15725D01*
X7091Y15745D01*
X7203Y15782D01*
X7307Y15836D01*
X7402Y15906D01*
X7485Y15991D01*
X7554Y16087D01*
X7607Y16192D01*
X7643Y16305D01*
X7660Y16421D01*
X7659Y16539D01*
X7640Y16656D01*
X7603Y16768D01*
X7548Y16873D01*
X7478Y16968D01*
X7394Y17051D01*
X7298Y17119D01*
X7192Y17170D01*
X6784Y17318D01*
X6363Y17422D01*
X5933Y17484D01*
X5502Y17505D01*
Y18486D01*
X6206Y18542D01*
X6895Y18707D01*
X7549Y18978D01*
X8153Y19348D01*
X8331Y19500D01*
G37*
G36*
X5502Y1000D02*X1500D01*
Y11050D01*
X1530Y11019D01*
X1625Y10949D01*
X1731Y10894D01*
X1843Y10857D01*
X1960Y10837D01*
X2079Y10836D01*
X2196Y10854D01*
X2309Y10890D01*
X2415Y10943D01*
X2512Y11012D01*
X2596Y11095D01*
X2667Y11191D01*
X2721Y11296D01*
X2759Y11408D01*
X2778Y11525D01*
X2779Y11644D01*
X2761Y11761D01*
X2723Y11874D01*
X2624Y12145D01*
X2556Y12425D01*
X2514Y12711D01*
X2500Y13000D01*
X2514Y13289D01*
X2556Y13575D01*
X2624Y13855D01*
X2720Y14128D01*
X2758Y14239D01*
X2775Y14356D01*
X2775Y14474D01*
X2755Y14591D01*
X2718Y14703D01*
X2664Y14807D01*
X2594Y14902D01*
X2509Y14985D01*
X2413Y15054D01*
X2308Y15107D01*
X2195Y15143D01*
X2079Y15160D01*
X1961Y15159D01*
X1844Y15140D01*
X1732Y15103D01*
X1627Y15048D01*
X1532Y14978D01*
X1500Y14945D01*
Y18500D01*
X5324D01*
X5500Y18486D01*
X5502Y18486D01*
Y17505D01*
X5500Y17505D01*
X5067Y17484D01*
X4637Y17422D01*
X4216Y17318D01*
X3806Y17175D01*
X3700Y17122D01*
X3604Y17053D01*
X3519Y16970D01*
X3449Y16875D01*
X3394Y16769D01*
X3357Y16657D01*
X3337Y16540D01*
X3336Y16421D01*
X3354Y16304D01*
X3390Y16191D01*
X3443Y16085D01*
X3512Y15988D01*
X3595Y15904D01*
X3691Y15833D01*
X3796Y15779D01*
X3908Y15741D01*
X4025Y15722D01*
X4144Y15721D01*
X4261Y15739D01*
X4374Y15777D01*
X4645Y15876D01*
X4925Y15944D01*
X5211Y15986D01*
X5500Y16000D01*
X5502Y16000D01*
Y10000D01*
X5500Y10000D01*
X5211Y10014D01*
X4925Y10056D01*
X4645Y10124D01*
X4372Y10220D01*
X4261Y10258D01*
X4144Y10275D01*
X4026Y10275D01*
X3909Y10255D01*
X3797Y10218D01*
X3693Y10164D01*
X3598Y10094D01*
X3515Y10009D01*
X3446Y9913D01*
X3393Y9808D01*
X3357Y9695D01*
X3340Y9579D01*
X3341Y9461D01*
X3360Y9344D01*
X3397Y9232D01*
X3452Y9127D01*
X3522Y9032D01*
X3606Y8949D01*
X3702Y8881D01*
X3808Y8830D01*
X4216Y8682D01*
X4637Y8578D01*
X5067Y8516D01*
X5500Y8495D01*
X5502Y8495D01*
Y1000D01*
G37*
G36*
X58500Y45000D02*Y41500D01*
X13000D01*
Y45000D01*
X58500D01*
G37*
G36*
X13000D02*X35500D01*
Y39500D01*
X13000D01*
Y45000D01*
G37*
G36*
X34000Y36000D02*Y40135D01*
X34151Y40228D01*
X34486Y40514D01*
X34772Y40849D01*
X35003Y41225D01*
X35171Y41632D01*
X35274Y42061D01*
X35300Y42500D01*
X40500D01*
Y41500D01*
X35000Y36000D01*
X34000D01*
G37*
G36*
X42500Y40500D02*Y34500D01*
X40279D01*
X40275Y34503D01*
X39868Y34671D01*
X39439Y34774D01*
X39000Y34809D01*
X38561Y34774D01*
X38132Y34671D01*
X37725Y34503D01*
X37721Y34500D01*
X36500D01*
Y35500D01*
X41500Y40500D01*
X42500D01*
G37*
G36*
X35000Y36000D02*X30000D01*
Y41221D01*
X30228Y40849D01*
X30514Y40514D01*
X30849Y40228D01*
X31225Y39997D01*
X31632Y39829D01*
X32061Y39726D01*
X32500Y39691D01*
X32939Y39726D01*
X33368Y39829D01*
X33775Y39997D01*
X34151Y40228D01*
X34486Y40514D01*
X34772Y40849D01*
X35000Y41221D01*
Y36000D01*
G37*
G36*
X51500Y1000D02*X24500D01*
Y10000D01*
X51500D01*
Y1000D01*
G37*
G36*
X34500Y12000D02*X39500D01*
Y11000D01*
X34500D01*
Y12000D01*
G37*
G36*
Y14000D02*X39500D01*
Y13000D01*
X34500D01*
Y14000D01*
G37*
G36*
X67500Y1000D02*X52500D01*
Y10000D01*
X67500D01*
Y1000D01*
G37*
G36*
X56000Y17000D02*X54000D01*
Y26500D01*
X56000D01*
Y17000D01*
G37*
G36*
X41500Y1000D02*Y40500D01*
X51500D01*
Y1000D01*
X41500D01*
G37*
G36*
X36500Y19500D02*Y35500D01*
X42000D01*
Y40500D01*
X43500D01*
Y19500D01*
X36500D01*
G37*
G36*
X69000Y31000D02*X53500D01*
Y45000D01*
X69000D01*
Y31000D01*
G37*
G36*
X62000Y21000D02*Y33000D01*
X69000D01*
Y21000D01*
X62000D01*
G37*
G54D12*X56000Y26457D02*X56043Y26500D01*
X38254Y15470D02*X32030D01*
X38254Y17438D02*X34062D01*
X32000Y19500D01*
G54D13*X31957Y26500D02*X22629D01*
G54D14*X32000Y19500D02*Y26457D01*
G54D12*X31957Y26500D01*
X32030Y15470D02*X26500Y21000D01*
X19500D01*
G54D13*X22629Y26500D02*Y35414D01*
G54D12*X22543Y35500D01*
X57500Y13500D02*X59000Y15000D01*
X54746Y13500D02*X57500D01*
X54746Y11530D02*X59030D01*
X60500Y13000D01*
X64000D01*
X19500Y21000D02*X16000Y24500D01*
G54D15*X59000Y18500D02*X64500Y24000D01*
G54D13*X59000Y15000D02*Y18500D01*
G54D16*X5500Y13000D03*
Y23000D03*
Y33000D03*
G54D17*X15595Y7181D02*Y4819D01*
X27405Y7181D02*Y4819D01*
G54D18*X37105Y17440D02*X39403D01*
G54D19*X37355D02*X39153D01*
G54D18*X37105Y15470D02*X39403D01*
G54D19*X37355D02*X39153D01*
G54D18*X37105Y13500D02*X39403D01*
G54D19*X37355D02*X39153D01*
G54D18*X37105Y11530D02*X39403D01*
G54D19*X37355D02*X39153D01*
G54D18*X37105Y9560D02*X39403D01*
G54D19*X37355D02*X39153D01*
G54D20*X46500Y13900D02*Y13100D01*
G54D17*X56043Y37893D02*Y37107D01*
X48957Y37893D02*Y37107D01*
X15457Y35893D02*Y35107D01*
X22543Y35893D02*Y35107D01*
X48957Y26893D02*Y26107D01*
X56043Y26893D02*Y26107D01*
X39043Y26893D02*Y26107D01*
X31957Y26893D02*Y26107D01*
X22543Y25893D02*Y25107D01*
X15457Y25893D02*Y25107D01*
X64107Y14543D02*X64893D01*
X64107Y7457D02*X64893D01*
G54D18*X53597Y9560D02*X55895D01*
G54D19*X53847D02*X55645D01*
G54D18*X53597Y11530D02*X55895D01*
G54D19*X53847D02*X55645D01*
G54D18*X53597Y13500D02*X55895D01*
G54D19*X53847D02*X55645D01*
G54D18*X53597Y15470D02*X55895D01*
G54D19*X53847D02*X55645D01*
G54D18*X53597Y17440D02*X55895D01*
G54D19*X53847D02*X55645D01*
G54D21*X44000Y32000D03*
X39000D03*
X49000D03*
X44000Y27000D03*
X32500Y38500D03*
X36500Y42500D03*
X32500D03*
X65500D03*
Y38000D03*
X61500D03*
X65500Y33500D03*
X61500D03*
Y42500D03*
X44000Y22000D03*
X36000Y5500D03*
X32500Y7500D03*
Y3500D03*
X59000Y7000D03*
X60000Y3000D03*
X56000Y4000D03*
G54D13*G54D22*M02*
