G04 start of page 9 for group -4015 idx -4015 *
G04 Title: (unknown), toppaste *
G04 Creator: pcb 20110918 *
G04 CreationDate: Tue 09 Apr 2013 04:13:52 PM GMT UTC *
G04 For: railfan *
G04 Format: Gerber/RS-274X *
G04 PCB-Dimensions: 70000 46000 *
G04 PCB-Coordinate-Origin: lower left *
%MOIN*%
%FSLAX25Y25*%
%LNTOPPASTE*%
%ADD43R,0.0660X0.0660*%
%ADD42R,0.0100X0.0100*%
%ADD41R,0.0512X0.0512*%
G54D41*X64107Y14543D02*X64893D01*
X64107Y7457D02*X64893D01*
X15595Y7181D02*Y4819D01*
X27405Y7181D02*Y4819D01*
G54D42*X37355Y17440D02*X39153D01*
X37355Y15470D02*X39153D01*
X37355Y13500D02*X39153D01*
X37355Y11530D02*X39153D01*
X37355Y9560D02*X39153D01*
X53847D02*X55645D01*
X53847Y11530D02*X55645D01*
X53847Y13500D02*X55645D01*
X53847Y15470D02*X55645D01*
X53847Y17440D02*X55645D01*
G54D43*X46500Y13900D02*Y13100D01*
G54D41*X56043Y37893D02*Y37107D01*
X48957Y37893D02*Y37107D01*
Y26893D02*Y26107D01*
X56043Y26893D02*Y26107D01*
X39043Y26893D02*Y26107D01*
X31957Y26893D02*Y26107D01*
X15457Y35893D02*Y35107D01*
X22543Y35893D02*Y35107D01*
Y25893D02*Y25107D01*
X15457Y25893D02*Y25107D01*
M02*
