G04 start of page 8 for group -4078 idx -4078 *
G04 Title: (unknown), bottomsilk *
G04 Creator: pcb 20110918 *
G04 CreationDate: Tue 09 Apr 2013 04:13:52 PM GMT UTC *
G04 For: railfan *
G04 Format: Gerber/RS-274X *
G04 PCB-Dimensions: 70000 46000 *
G04 PCB-Coordinate-Origin: lower left *
%MOIN*%
%FSLAX25Y25*%
%LNBOTTOMSILK*%
%ADD40C,0.0080*%
%ADD39C,0.0100*%
G54D39*X69500Y45500D02*X500D01*
Y500D02*X69500D01*
Y45500D01*
X500D02*Y500D01*
G54D40*X2900Y43500D02*X4100D01*
X2500Y43100D02*X2900Y43500D01*
X2500Y40700D02*Y43100D01*
Y40700D02*X2900Y40300D01*
X4100D01*
X5060D02*Y43500D01*
Y41900D02*X6660Y40300D01*
X5060Y41900D02*X6660Y43500D01*
X7620Y40300D02*X9220D01*
X8420D02*Y43500D01*
X10180Y41900D02*X11780D01*
X12740Y40300D02*Y43500D01*
X14340D01*
X15300Y40300D02*X16900D01*
X16100D02*Y43500D01*
X17860Y40700D02*X18260Y40300D01*
X19060D01*
X19460Y40700D01*
Y43100D01*
X19060Y43500D02*X19460Y43100D01*
X18260Y43500D02*X19060D01*
X17860Y43100D02*X18260Y43500D01*
Y41900D02*X19460D01*
X20420Y43500D02*X22020Y41900D01*
Y40700D02*Y41900D01*
X21620Y40300D02*X22020Y40700D01*
X20820Y40300D02*X21620D01*
X20420Y40700D02*X20820Y40300D01*
X20420Y40700D02*Y41500D01*
X20820Y41900D01*
X22020D01*
X22980Y43500D02*X24980Y41500D01*
Y40300D02*Y41500D01*
X22980Y40300D02*X24980D01*
X25940Y40700D02*X26340Y40300D01*
X27140D01*
X27540Y40700D01*
Y43100D01*
X27140Y43500D02*X27540Y43100D01*
X26340Y43500D02*X27140D01*
X25940Y43100D02*X26340Y43500D01*
Y41900D02*X27540D01*
X3000Y3900D02*Y4700D01*
X3800Y5500D01*
X4600Y4700D01*
Y3900D02*Y4700D01*
X5560Y2700D02*X5960Y2300D01*
X7160D01*
X7560Y2700D01*
Y3500D01*
X5560Y5500D02*X7560Y3500D01*
X5560Y5500D02*X7560D01*
X8520D02*X8920D01*
X9880Y5100D02*X10280Y5500D01*
X9880Y2700D02*Y5100D01*
Y2700D02*X10280Y2300D01*
X11080D01*
X11480Y2700D01*
Y5100D01*
X11080Y5500D02*X11480Y5100D01*
X10280Y5500D02*X11080D01*
X9880Y4700D02*X11480Y3100D01*
X14600Y21300D02*X15000Y21700D01*
X13400Y21300D02*X14600D01*
X13000Y21700D02*X13400Y21300D01*
X13000Y21700D02*Y24100D01*
X13400Y24500D01*
X14600D01*
X15000Y24100D01*
Y23300D02*Y24100D01*
X14600Y22900D02*X15000Y23300D01*
X13800Y22900D02*X14600D01*
X15960Y21300D02*Y24500D01*
Y21300D02*Y21700D01*
X17960Y23700D01*
Y21300D02*Y24500D01*
X19320Y21300D02*Y24500D01*
X20520Y21300D02*X20920Y21700D01*
Y24100D01*
X20520Y24500D02*X20920Y24100D01*
X18920Y24500D02*X20520D01*
X18920Y21300D02*X20520D01*
X13000Y11300D02*X13800D01*
X13400D02*Y14500D01*
X13000D02*X13800D01*
X14760Y11300D02*Y14500D01*
Y11300D02*Y11700D01*
X16760Y13700D01*
Y11300D02*Y14500D01*
X13000Y31700D02*Y34100D01*
Y31700D02*X13400Y31300D01*
X14200D01*
X14600Y31700D01*
Y34100D01*
X14200Y34500D02*X14600Y34100D01*
X13400Y34500D02*X14200D01*
X13000Y34100D02*X13400Y34500D01*
X15560Y31300D02*Y34100D01*
X15960Y34500D01*
X16760D01*
X17160Y34100D01*
Y31300D02*Y34100D01*
X18120Y31300D02*X19720D01*
X18920D02*Y34500D01*
G54D39*X23500Y8000D02*X32000Y500D01*
X23500Y33000D02*Y8000D01*
X36000Y45500D02*X23500Y33000D01*
X69500Y43000D02*X67000Y45500D01*
X69500Y43000D02*Y13000D01*
X57000Y500D02*X69500Y13000D01*
X36500Y23000D02*G75*G03X36500Y23000I10000J0D01*G01*
X10500Y18000D02*Y8000D01*
X500Y18000D02*X10500D01*
X500Y8000D02*X10500D01*
Y38000D02*Y8000D01*
X500Y38000D02*X10500D01*
X500D02*Y8000D01*
G54D40*X47500Y21000D02*Y25000D01*
X49500D01*
X51200D02*X52200D01*
X51700Y21000D02*Y25000D01*
X50700Y22000D02*X51700Y21000D01*
M02*
