G04 start of page 5 for group -4063 idx -4063 *
G04 Title: (unknown), componentmask *
G04 Creator: pcb 20110918 *
G04 CreationDate: Tue 09 Apr 2013 04:13:52 PM GMT UTC *
G04 For: railfan *
G04 Format: Gerber/RS-274X *
G04 PCB-Dimensions: 70000 46000 *
G04 PCB-Coordinate-Origin: lower left *
%MOIN*%
%FSLAX25Y25*%
%LNTOPMASK*%
%ADD34R,0.0720X0.0720*%
%ADD33R,0.0177X0.0177*%
%ADD32R,0.0572X0.0572*%
%ADD31C,0.0660*%
G54D31*X5500Y13000D03*
Y23000D03*
Y33000D03*
G54D32*X15595Y7181D02*Y4819D01*
X27405Y7181D02*Y4819D01*
G54D33*X37105Y17440D02*X39403D01*
X37355D02*X39153D01*
X37105Y15470D02*X39403D01*
X37355D02*X39153D01*
X37105Y13500D02*X39403D01*
X37355D02*X39153D01*
X37105Y11530D02*X39403D01*
X37355D02*X39153D01*
X37105Y9560D02*X39403D01*
X37355D02*X39153D01*
G54D34*X46500Y13900D02*Y13100D01*
G54D32*X56043Y37893D02*Y37107D01*
X48957Y37893D02*Y37107D01*
X15457Y35893D02*Y35107D01*
X22543Y35893D02*Y35107D01*
X48957Y26893D02*Y26107D01*
X56043Y26893D02*Y26107D01*
X39043Y26893D02*Y26107D01*
X31957Y26893D02*Y26107D01*
X22543Y25893D02*Y25107D01*
X15457Y25893D02*Y25107D01*
X64107Y14543D02*X64893D01*
X64107Y7457D02*X64893D01*
G54D33*X53597Y9560D02*X55895D01*
X53847D02*X55645D01*
X53597Y11530D02*X55895D01*
X53847D02*X55645D01*
X53597Y13500D02*X55895D01*
X53847D02*X55645D01*
X53597Y15470D02*X55895D01*
X53847D02*X55645D01*
X53597Y17440D02*X55895D01*
X53847D02*X55645D01*
M02*
